SplineFontDB: 1.0
FontName: DejaVuSerif-Oblique
FullName: DejaVu Serif Oblique
FamilyName: DejaVu Serif
Weight: Book
Copyright: Copyright (c) 2003 by Bitstream, Inc. All Rights Reserved.\nDejaVu changes are in public domain\n
Version: 1.11
ItalicAngle: -11
UnderlinePosition: -213
UnderlineWidth: 133
Ascent: 1556
Descent: 492
Order2: 1
NeedsXUIDChange: 1
FSType: 4
PfmFamily: 17
TTFWeight: 400
TTFWidth: 5
Panose: 2 6 6 3 5 3 5 11 2 4
LineGap: 410
VLineGap: 0
OS2TypoAscent: 1556
OS2TypoDescent: -492
OS2TypoLinegap: 0
OS2WinAscent: 1901
OS2WinAOffset: 0
OS2WinDescent: 483
OS2WinDOffset: 0
HheadAscent: 1901
HheadAOffset: 0
HheadDescent: -483
HheadDOffset: 0
ScriptLang: 2
 1 latn 1 dflt 
 1 DFLT 1 dflt 
TtfTable: prep 1374
\,q1Gi5bg!`Y/Hn`$>N*A-9e9"N2Pf_[Q^b_']E'A-9Xq"2J1E^O63s$Nn!K"1l#W"hHGk\J,.U
1'>#b"1J12[Jg97rWBJ*"0o(#"gRn+YX\f!rWB<O"0MP)X:>?5WXK'3'Eb?D"0"$XW+6".*Wr2n
"/DT$"f)&!U1=A"Q4=(l,m0fb$3d(K".r3gSe)!p/d%W"*X/)5".P_j"e-M7RLfRhQjs:f,m0NZ
$3ce,".2=VQ^/*bQP9OgJ-;/J"-u1TPpHNsKJ3RorWA@I'*XRG"-ScU"d0N$P.1NX5R@RUO9u/R
%0Ma&!<>AV"HWrmOMD![Dg_eM]*"(E$O)P&"-,VLNI_H@NB.0#Mn9.OrWA(9>m6.u",h[4MMWV_
MHp=A5Qlq"*X.BH",M^E"c+3%Lq*K#5lUtB&Hd`?0Em/@",&?1K,+Q@Q32[G"+Xom"b?RSIr#Z"
Ii/?;I1?F01';q7"+5G+"agscHOg4)Q32CE"*b.TGBP)4GPVDbFW:R.+9Qa+"*A>j"`tdfF8c8^
rW@.Z%0^bN")n\OE'OPEI04A(4p>h>")U4(ChjF_C_-\bJ-9Wr")C.)C1LiYCAJ$HBY+F^rW?hH
>m4oR")*2fB4`FnB3bUP5Qk[F"(c"R"_IN4A7PdP'a%qE"(D02?sbMi@/^78/d#GZ"'tm.>Y>0'
I03[P"'J"o=T/D(rW?35"',=&;e,u.'E_2f"&Mc("]0UL:CdP&5sRa=9FCqpA-5CI#R*ec"%Y0L
7fs;+7hYto&d(Q($3`j9"%5Ki"[m,.6UD=f6PBPg5mmi_&-G3`#mEU&"$d.p5e-j05Z7eMQ30;R
/Hn=4"$Ja\"[,K\4?ElR4;7l[5Qj.U"$/FT"Zfok3B.TS3>)ER&Has$"#g,\2)H!N2?!\71D9pK
'E^-H$3`4!"#;S;"YpDe1:[A"5lUsA#m2k7(^2T]""u8A"YU\p0>I]C*XW'''a$(=">'pj"YH#B
/1VD</5$'q+p\?&'E]jN"=aH["Y+$b.4?kR.7"%a">'d*0EW[*/HmO$""$&2,n1[p-!^Tu,8(/*
;Ze6g#R)Fc"!^&6+p\8o+;b8*>lu2k&Hs9o"!GA^+!(am*t\SsJ-6o#"!0]1*?tY+%g*ar!u`%2
"WC;A)$DMp))).0rW<r<$3_7F!u;FM'bh>c'l*mc',(N`'E]%7";;FN&d0ci'"\5X!tYVJrW<]6

StartChar: .notdef
Encoding: 0 -1 0
Width: 1229
Flags: W
HStem: -362 114<63 950> 1329 115<277 1165>
Fore
-73.5254 -362 m 1,0,-1
 277.525 1444 l 1,1,-1
 1301.53 1444 l 1,2,-1
 950.475 -362 l 1,3,-1
 -73.5254 -362 l 1,0,-1
63.6338 -248 m 1,4,-1
 858.634 -248 l 1,5,-1
 1165.17 1329 l 1,6,-1
 370.172 1329 l 1,7,-1
 63.6338 -248 l 1,4,-1
EndSplineSet
EndChar
StartChar: exclam
Encoding: 33 33 4
Width: 823
Flags: W
HStem: -29 267<264.076 315.977> 1473 20G<430.924 688.924>
Fore
156.929 104 m 0,0,1
 167.814 160 167.814 160 213.396 199 c 128,-1,2
 258.977 238 258.977 238 315.977 238 c 0,3,4
 370.977 238 370.977 238 402.396 199 c 128,-1,5
 433.814 160 433.814 160 422.929 104 c 0,6,7
 412.238 49 412.238 49 365.657 10 c 128,-1,8
 319.076 -29 319.076 -29 264.076 -29 c 0,9,10
 207.076 -29 207.076 -29 176.561 9.5 c 128,-1,11
 146.044 48 146.044 48 156.929 104 c 0,0,1
430.924 1493 m 1,12,-1
 688.924 1493 l 1,13,-1
 461.337 672 l 1,14,-1
 412.354 420 l 1,15,-1
 289.354 420 l 1,16,-1
 338.337 672 l 1,17,-1
 430.924 1493 l 1,12,-1
EndSplineSet
EndChar
StartChar: quotedbl
Encoding: 34 34 5
Width: 942
Flags: W
HStem: 1473 20G<254.94 413.94 635.94 794.94>
Fore
413.94 1493 m 1,0,-1
 306.06 938 l 1,1,-1
 147.06 938 l 1,2,-1
 254.94 1493 l 1,3,-1
 413.94 1493 l 1,0,-1
794.94 1493 m 1,4,-1
 687.06 938 l 1,5,-1
 528.06 938 l 1,6,-1
 635.94 1493 l 1,7,-1
 794.94 1493 l 1,4,-1
EndSplineSet
EndChar
StartChar: numbersign
Encoding: 35 35 6
Width: 1716
Flags: W
HStem: 0 21G<222.131 392.131 674.131 846.131> 414 153<124 404 643 859 1097 1381> 901 154<333 620 861 1074 1313 1591>
Fore
1074.27 901 m 1,0,-1
 792.268 901 l 1,1,-1
 643.344 567 l 1,2,-1
 928.344 567 l 1,3,-1
 1074.27 901 l 1,0,-1
1043.87 1470 m 1,4,-1
 861.202 1055 l 1,5,-1
 1143.2 1055 l 1,6,-1
 1326.87 1470 l 1,7,-1
 1498.87 1470 l 1,8,-1
 1313.2 1055 l 1,9,-1
 1621.2 1055 l 1,10,-1
 1591.27 901 l 1,11,-1
 1244.27 901 l 1,12,-1
 1097.34 567 l 1,13,-1
 1411.34 567 l 1,14,-1
 1381.6 414 l 1,15,-1
 1029.6 414 l 1,16,-1
 846.131 0 l 1,17,-1
 674.131 0 l 1,18,-1
 859.604 414 l 1,19,-1
 576.604 414 l 1,20,-1
 392.131 0 l 1,21,-1
 222.131 0 l 1,22,-1
 404.604 414 l 1,23,-1
 95.6035 414 l 1,24,-1
 125.344 567 l 1,25,-1
 473.344 567 l 1,26,-1
 620.268 901 l 1,27,-1
 304.268 901 l 1,28,-1
 334.202 1055 l 1,29,-1
 689.202 1055 l 1,30,-1
 873.869 1470 l 1,31,-1
 1043.87 1470 l 1,4,-1
EndSplineSet
EndChar
StartChar: dollar
Encoding: 36 36 7
Width: 1303
Flags: W
HStem: -301 369<461 509> -31 99<462.001 481.244> 1536 20G<770.482 870.482>
Fore
581.244 68 m 1,0,1
 696.188 78 696.188 78 766.379 133 c 128,-1,2
 836.57 188 836.57 188 855.036 283 c 0,3,4
 871.753 369 871.753 369 824.415 429 c 128,-1,5
 777.078 489 777.078 489 669.104 520 c 1,6,-1
 581.244 68 l 1,0,1
698.756 1187 m 1,7,8
 594.396 1180 594.396 1180 527.19 1127.5 c 128,-1,9
 459.985 1075 459.985 1075 442.88 987 c 0,10,11
 427.329 907 427.329 907 469.527 854 c 128,-1,12
 511.725 801 511.725 801 617.311 768 c 1,13,-1
 698.756 1187 l 1,7,8
68.0215 72 m 1,14,-1
 121.671 348 l 1,15,-1
 229.671 348 l 1,16,17
 207.041 211 207.041 211 269.434 141 c 128,-1,18
 331.827 71 331.827 71 481.244 68 c 1,19,-1
 575.519 553 l 1,20,21
 357.959 617 357.959 617 281.189 700.5 c 128,-1,22
 204.421 784 204.421 784 231.245 922 c 0,23,24
 262.346 1082 262.346 1082 391.201 1179 c 128,-1,25
 520.056 1276 520.056 1276 718.389 1288 c 1,26,-1
 770.482 1556 l 1,27,-1
 870.482 1556 l 1,28,-1
 818.389 1288 l 1,29,30
 917.833 1280 917.833 1280 1006.57 1255.5 c 128,-1,31
 1095.31 1231 1095.31 1231 1176.34 1190 c 1,32,-1
 1125.41 928 l 1,33,-1
 1016.41 928 l 1,34,35
 1026.96 1044 1026.96 1044 970.982 1111 c 128,-1,36
 915.006 1178 915.006 1178 798.756 1187 c 1,37,-1
 710.896 735 l 1,38,39
 943.872 668 943.872 668 1025.56 581.5 c 128,-1,40
 1107.24 495 1107.24 495 1079.06 350 c 0,41,42
 1046.79 184 1046.79 184 911.354 84 c 128,-1,43
 775.916 -16 775.916 -16 562.001 -31 c 1,44,-1
 509.518 -301 l 1,45,-1
 409.518 -301 l 1,46,-1
 462.001 -31 l 1,47,48
 366.39 -29 366.39 -29 268.346 -3.5 c 128,-1,49
 170.303 22 170.303 22 68.0215 72 c 1,14,-1
EndSplineSet
EndChar
StartChar: percent
Encoding: 37 37 8
Width: 1946
Flags: W
HStem: -29 92<1338 1358> 694 90<1467 1496> 707 90<449 477> 1427 93<587 609>
Fore
591.47 1427 m 0,0,1
 503.47 1427 503.47 1427 437.837 1344 c 128,-1,2
 372.203 1261 372.203 1261 343.24 1112 c 0,3,4
 314.666 965 314.666 965 348.839 881 c 128,-1,5
 383.011 797 383.011 797 469.011 797 c 0,6,7
 554.011 797 554.011 797 619.741 880.5 c 128,-1,8
 685.472 964 685.472 964 714.24 1112 c 0,9,10
 743.009 1260 743.009 1260 709.739 1343.5 c 128,-1,11
 676.47 1427 676.47 1427 591.47 1427 c 0,0,1
1478.99 694 m 0,12,13
 1391.99 694 1391.99 694 1326.16 610 c 128,-1,14
 1260.33 526 1260.33 526 1231.37 377 c 0,15,16
 1202.8 230 1202.8 230 1236.57 146.5 c 128,-1,17
 1270.34 63 1270.34 63 1356.33 63 c 0,18,19
 1442.34 63 1442.34 63 1507.57 146.5 c 128,-1,20
 1572.8 230 1572.8 230 1601.37 377 c 0,21,22
 1630.14 525 1630.14 525 1597.06 609.5 c 128,-1,23
 1563.99 694 1563.99 694 1478.99 694 c 0,12,13
1496.48 784 m 0,24,25
 1654.48 784 1654.48 784 1726.1 674 c 128,-1,26
 1797.72 564 1797.72 564 1761.37 377 c 0,27,28
 1725.02 190 1725.02 190 1610.24 80.5 c 128,-1,29
 1495.45 -29 1495.45 -29 1338.45 -29 c 0,30,31
 1178.45 -29 1178.45 -29 1106.74 80.5 c 128,-1,32
 1035.02 190 1035.02 190 1071.37 377 c 0,33,34
 1107.91 565 1107.91 565 1222.7 674.5 c 128,-1,35
 1337.48 784 1337.48 784 1496.48 784 c 0,24,25
1514.55 1520 m 1,36,-1
 1666.55 1520 l 1,37,-1
 431.452 -29 l 1,38,-1
 279.452 -29 l 1,39,-1
 1514.55 1520 l 1,36,-1
607.548 1520 m 0,40,41
 765.548 1520 765.548 1520 838.263 1410.5 c 128,-1,42
 910.979 1301 910.979 1301 874.629 1114 c 0,43,44
 837.892 925 837.892 925 723.204 816 c 128,-1,45
 608.517 707 608.517 707 449.517 707 c 0,46,47
 290.517 707 290.517 707 219.301 816.5 c 128,-1,48
 148.086 926 148.086 926 184.629 1114 c 0,49,50
 220.784 1300 220.784 1300 335.166 1410 c 128,-1,51
 449.548 1520 449.548 1520 607.548 1520 c 0,40,41
EndSplineSet
EndChar
StartChar: ampersand
Encoding: 38 38 9
Width: 1823
Flags: W
HStem: -29 121<556.452 624.973> 0 106<1365 1581> 741 107<1235 1396 1236 1689> 1413 107<895 934>
Fore
1005.99 231 m 1,0,-1
 543.146 844 l 1,1,2
 440.984 766 440.984 766 379.894 675.5 c 128,-1,3
 318.802 585 318.802 585 298.976 483 c 0,4,5
 266.708 317 266.708 317 359.84 204.5 c 128,-1,6
 452.973 92 452.973 92 624.973 92 c 0,7,8
 726.973 92 726.973 92 824.373 127.5 c 128,-1,9
 921.773 163 921.773 163 1005.99 231 c 1,0,-1
1581.09 0 m 1,10,-1
 1180.09 0 l 1,11,-1
 1071.27 145 l 1,12,13
 949.169 57 949.169 57 821.811 14 c 128,-1,14
 694.452 -29 694.452 -29 556.452 -29 c 0,15,16
 298.452 -29 298.452 -29 173.11 103 c 128,-1,17
 47.7686 235 47.7686 235 91.6992 461 c 0,18,19
 117.552 594 117.552 594 216.502 709.5 c 128,-1,20
 315.453 825 315.453 825 490.086 926 c 1,21,22
 450.942 987 450.942 987 438.703 1047.5 c 128,-1,23
 426.463 1108 426.463 1108 439.292 1174 c 0,24,25
 470.198 1333 470.198 1333 602.873 1426.5 c 128,-1,26
 735.548 1520 735.548 1520 932.548 1520 c 0,27,28
 999.548 1520 999.548 1520 1085.74 1503 c 128,-1,29
 1171.94 1486 1171.94 1486 1280.33 1452 c 1,30,-1
 1230.18 1194 l 1,31,-1
 1117.18 1194 l 1,32,33
 1123.98 1301 1123.98 1301 1070.86 1357 c 128,-1,34
 1017.75 1413 1017.75 1413 907.749 1413 c 0,35,36
 804.749 1413 804.749 1413 729.767 1356.5 c 128,-1,37
 654.784 1300 654.784 1300 637.29 1210 c 0,38,39
 625.433 1149 625.433 1149 647.673 1088.5 c 128,-1,40
 669.912 1028 669.912 1028 755.947 915 c 2,41,-1
 1166.2 371 l 1,42,43
 1250.75 451 1250.75 451 1308.24 543.5 c 128,-1,44
 1365.72 636 1365.72 636 1396.12 741 c 1,45,-1
 1216.12 741 l 1,46,-1
 1236.92 848 l 1,47,-1
 1709.92 848 l 1,48,-1
 1689.12 741 l 1,49,-1
 1517.12 741 l 1,50,51
 1474.86 611 1474.86 611 1403.39 498 c 128,-1,52
 1331.93 385 1331.93 385 1230.27 289 c 1,53,-1
 1366.69 106 l 1,54,-1
 1601.69 106 l 1,55,-1
 1581.09 0 l 1,10,-1
EndSplineSet
EndChar
StartChar: quotesingle
Encoding: 39 39 10
Width: 563
Flags: W
HStem: 1473 20G<254.94 413.94>
Fore
413.94 1493 m 1,0,-1
 306.06 938 l 1,1,-1
 147.06 938 l 1,2,-1
 254.94 1493 l 1,3,-1
 413.94 1493 l 1,0,-1
EndSplineSet
EndChar
StartChar: parenleft
Encoding: 40 40 11
Width: 799
Flags: W
Fore
470.769 -319 m 1,0,1
 248.956 -210 248.956 -210 170.927 26.5 c 128,-1,2
 92.8975 263 92.8975 263 161.902 618 c 0,3,4
 231.103 974 231.103 974 401.073 1210.5 c 128,-1,5
 571.044 1447 571.044 1447 835.231 1556 c 1,6,-1
 816.183 1458 l 1,7,8
 641.578 1352 641.578 1352 537.16 1159.5 c 128,-1,9
 432.741 967 432.741 967 364.902 618 c 0,10,11
 297.259 270 297.259 270 326.84 77.5 c 128,-1,12
 356.422 -115 356.422 -115 489.817 -221 c 1,13,-1
 470.769 -319 l 1,0,1
EndSplineSet
EndChar
StartChar: parenright
Encoding: 41 41 12
Width: 799
Flags: W
Fore
-37.2314 -319 m 1,0,-1
 -18.1826 -221 l 1,1,2
 156.422 -115 156.422 -115 261.34 77.5 c 128,-1,3
 366.259 270 366.259 270 433.902 618 c 0,4,5
 501.741 967 501.741 967 471.66 1159.5 c 128,-1,6
 441.578 1352 441.578 1352 308.183 1458 c 1,7,-1
 327.231 1556 l 1,8,9
 550.044 1447 550.044 1447 628.073 1210.5 c 128,-1,10
 706.103 974 706.103 974 636.902 618 c 0,11,12
 567.897 263 567.897 263 397.927 26.5 c 128,-1,13
 227.956 -210 227.956 -210 -37.2314 -319 c 1,0,-1
EndSplineSet
EndChar
StartChar: asterisk
Encoding: 42 42 13
Width: 1024
Flags: W
HStem: 1500 20G<534.581 670.581>
Fore
1026.57 1237 m 1,0,-1
 600.194 1055 l 1,1,-1
 955.234 870 l 1,2,-1
 856.297 752 l 1,3,-1
 550.478 969 l 1,4,-1
 489.419 588 l 1,5,-1
 353.419 588 l 1,6,-1
 440.478 969 l 1,7,-1
 50.2969 752 l 1,8,-1
 -2.76562 870 l 1,9,-1
 423.806 1053 l 1,10,-1
 68.5713 1237 l 1,11,-1
 167.703 1356 l 1,12,-1
 473.522 1139 l 1,13,-1
 534.581 1520 l 1,14,-1
 670.581 1520 l 1,15,-1
 583.522 1139 l 1,16,-1
 973.703 1356 l 1,17,-1
 1026.57 1237 l 1,0,-1
EndSplineSet
EndChar
StartChar: plus
Encoding: 43 43 14
Width: 1716
Flags: W
HStem: 0 21G<653.208 813.208> 561 162<231 762 953 1483>
Fore
1062.79 1284 m 1,0,-1
 953.745 723 l 1,1,-1
 1514.75 723 l 1,2,-1
 1483.25 561 l 1,3,-1
 922.255 561 l 1,4,-1
 813.208 0 l 1,5,-1
 653.208 0 l 1,6,-1
 762.255 561 l 1,7,-1
 201.255 561 l 1,8,-1
 232.745 723 l 1,9,-1
 793.745 723 l 1,10,-1
 902.792 1284 l 1,11,-1
 1062.79 1284 l 1,0,-1
EndSplineSet
EndChar
StartChar: comma
Encoding: 44 44 15
Width: 651
Flags: W
Fore
40.3721 -199 m 1,0,1
 147.784 -130 147.784 -130 209.959 -36.5 c 128,-1,2
 272.134 57 272.134 57 297.986 190 c 2,3,-1
 305.178 227 l 1,4,-1
 502.178 227 l 1,5,6
 460.939 56 460.939 56 364.628 -66.5 c 128,-1,7
 268.316 -189 268.316 -189 104.822 -279 c 1,8,-1
 40.3721 -199 l 1,0,1
EndSplineSet
EndChar
StartChar: hyphen
Encoding: 45 45 16
Width: 692
Flags: W
HStem: 471 156<104 586>
Fore
105.162 627 m 1,0,-1
 617.162 627 l 1,1,-1
 586.838 471 l 1,2,-1
 74.8379 471 l 1,3,-1
 105.162 627 l 1,0,-1
EndSplineSet
KernsSLIF: 356 -73 0 0 221 -225 0 0 376 -225 0 0 89 -225 0 0 88 -73 0 0 87 -112 0 0 86 -149 0 0 84 -73 0 0
EndChar
StartChar: period
Encoding: 46 46 17
Width: 651
Flags: W
HStem: -29 21G<271.55 327.55>
Fore
192.902 104 m 0,0,1
 203.788 160 203.788 160 249.369 199 c 128,-1,2
 294.95 238 294.95 238 351.95 238 c 0,3,4
 406.95 238 406.95 238 438.369 199 c 128,-1,5
 469.788 160 469.788 160 458.902 104 c 0,6,7
 448.212 49 448.212 49 401.631 10 c 128,-1,8
 355.05 -29 355.05 -29 300.05 -29 c 0,9,10
 243.05 -29 243.05 -29 212.534 9.5 c 128,-1,11
 182.018 48 182.018 48 192.902 104 c 0,0,1
EndSplineSet
EndChar
StartChar: slash
Encoding: 47 47 18
Width: 690
Flags: W
HStem: 1473 20G<693.571 853.571>
Fore
693.571 1493 m 1,0,-1
 853.571 1493 l 1,1,-1
 -3.57129 -190 l 1,2,-1
 -163.571 -190 l 1,3,-1
 693.571 1493 l 1,0,-1
EndSplineSet
EndChar
StartChar: zero
Encoding: 48 48 19
Width: 1303
Flags: W
HStem: -29 99<498 523> 1421 99<775 803>
Fore
519.696 70 m 0,0,1
 672.696 70 672.696 70 781.352 238 c 128,-1,2
 890.008 406 890.008 406 955.902 745 c 0,3,4
 1021.99 1085 1021.99 1085 978.648 1253 c 128,-1,5
 935.304 1421 935.304 1421 782.304 1421 c 0,6,7
 629.304 1421 629.304 1421 520.648 1253 c 128,-1,8
 411.992 1085 411.992 1085 345.902 745 c 0,9,10
 280.008 406 280.008 406 323.352 238 c 128,-1,11
 366.696 70 366.696 70 519.696 70 c 0,0,1
500.452 -29 m 0,12,13
 257.452 -29 257.452 -29 160.606 175 c 128,-1,14
 63.7598 379 63.7598 379 134.902 745 c 0,15,16
 206.24 1112 206.24 1112 382.394 1316 c 128,-1,17
 558.548 1520 558.548 1520 801.548 1520 c 0,18,19
 1045.55 1520 1045.55 1520 1141.89 1316 c 128,-1,20
 1238.24 1112 1238.24 1112 1166.9 745 c 0,21,22
 1095.76 379 1095.76 379 920.106 175 c 128,-1,23
 744.452 -29 744.452 -29 500.452 -29 c 0,12,13
EndSplineSet
EndChar
StartChar: one
Encoding: 49 49 20
Width: 1303
Flags: W
HStem: 0 106<162 864> 1500 20G<761.729 899.729>
Fore
143.271 0 m 1,0,-1
 163.875 106 l 1,1,-1
 423.875 106 l 1,2,-1
 665.296 1348 l 1,3,-1
 326.392 1153 l 1,4,-1
 351.855 1284 l 1,5,-1
 761.729 1520 l 1,6,-1
 899.729 1520 l 1,7,-1
 624.875 106 l 1,8,-1
 884.875 106 l 1,9,-1
 864.271 0 l 1,10,-1
 143.271 0 l 1,0,-1
EndSplineSet
EndChar
StartChar: two
Encoding: 50 50 21
Width: 1303
Flags: W
HStem: 0 164<246 954> 1421 99<694 727>
Fore
335.281 1137 m 1,0,-1
 223.281 1137 l 1,1,-1
 274.986 1403 l 1,2,3
 393.066 1460 393.066 1460 507.397 1490 c 128,-1,4
 621.729 1520 621.729 1520 725.729 1520 c 0,5,6
 958.729 1520 958.729 1520 1071.76 1407 c 128,-1,7
 1184.8 1294 1184.8 1294 1147.09 1100 c 0,8,9
 1104.52 881 1104.52 881 739.234 576 c 0,10,11
 710.764 553 710.764 553 696.431 541 c 2,12,-1
 246.149 164 l 1,13,-1
 869.149 164 l 1,14,-1
 904.915 348 l 1,15,-1
 1021.92 348 l 1,16,-1
 954.271 0 l 1,17,-1
 -8.72949 0 l 1,18,-1
 12.458 109 l 1,19,-1
 553.318 561 l 2,20,21
 732.476 711 732.476 711 820.87 836.5 c 128,-1,22
 909.265 962 909.265 962 936.089 1100 c 0,23,24
 965.44 1251 965.44 1251 903.463 1336 c 128,-1,25
 841.485 1421 841.485 1421 703.485 1421 c 0,26,27
 560.485 1421 560.485 1421 468.685 1350 c 128,-1,28
 376.884 1279 376.884 1279 335.281 1137 c 1,0,-1
EndSplineSet
EndChar
StartChar: three
Encoding: 51 51 22
Width: 1303
Flags: W
HStem: -29 99<453 491> 1421 99<735 775>
Fore
332.054 1430 m 1,0,1
 457.606 1474 457.606 1474 569.577 1497 c 128,-1,2
 681.548 1520 681.548 1520 775.548 1520 c 0,3,4
 994.548 1520 994.548 1520 1099.18 1425.5 c 128,-1,5
 1203.81 1331 1203.81 1331 1171.15 1163 c 0,6,7
 1144.91 1028 1144.91 1028 1042.32 937.5 c 128,-1,8
 939.729 847 939.729 847 777.51 815 c 1,9,10
 956.455 789 956.455 789 1037.06 681.5 c 128,-1,11
 1117.66 574 1117.66 574 1084.42 403 c 0,12,13
 1043.8 194 1043.8 194 881.626 82.5 c 128,-1,14
 719.452 -29 719.452 -29 455.452 -29 c 0,15,16
 338.452 -29 338.452 -29 231.812 -4 c 128,-1,17
 125.172 21 125.172 21 25.085 72 c 1,18,-1
 81.4551 362 l 1,19,-1
 193.455 362 l 1,20,21
 175.465 218 175.465 218 248.08 144 c 128,-1,22
 320.696 70 320.696 70 478.696 70 c 0,23,24
 631.696 70 631.696 70 737.398 158.5 c 128,-1,25
 843.102 247 843.102 247 873.036 401 c 0,26,27
 907.247 577 907.247 577 833.838 667.5 c 128,-1,28
 760.43 758 760.43 758 584.43 758 c 2,29,-1
 489.43 758 l 1,30,-1
 509.257 860 l 1,31,-1
 559.257 860 l 2,32,33
 734.257 860 734.257 860 835.849 932.5 c 128,-1,34
 937.441 1005 937.441 1005 965.821 1151 c 0,35,36
 991.285 1282 991.285 1282 932.795 1351.5 c 128,-1,37
 874.304 1421 874.304 1421 739.304 1421 c 0,38,39
 604.304 1421 604.304 1421 517.363 1357 c 128,-1,40
 430.423 1293 430.423 1293 392.932 1167 c 1,41,-1
 280.932 1167 l 1,42,-1
 332.054 1430 l 1,0,1
EndSplineSet
EndChar
StartChar: four
Encoding: 52 52 23
Width: 1303
Flags: W
HStem: 0 106<346 1007> 0 506<155 1007> 399 107<155 644 865 1129> 1500 20G<864.729 1062.73>
Fore
665.627 506 m 1,0,-1
 819.966 1300 l 1,1,-1
 155.627 506 l 1,2,-1
 665.627 506 l 1,0,-1
1007.27 0 m 1,3,-1
 327.271 0 l 1,4,-1
 347.875 106 l 1,5,-1
 587.875 106 l 1,6,-1
 644.829 399 l 1,7,-1
 -7.1709 399 l 1,8,-1
 14.0166 508 l 1,9,-1
 864.729 1520 l 1,10,-1
 1062.73 1520 l 1,11,-1
 865.627 506 l 1,12,-1
 1150.63 506 l 1,13,-1
 1129.83 399 l 1,14,-1
 844.829 399 l 1,15,-1
 787.875 106 l 1,16,-1
 1027.88 106 l 1,17,-1
 1007.27 0 l 1,3,-1
EndSplineSet
EndChar
StartChar: five
Encoding: 53 53 24
Width: 1303
Flags: W
HStem: -29 99<444 494> 874 99<631 669> 1329 164<387 1146>
Fore
1177.92 1493 m 1,0,-1
 1146.04 1329 l 1,1,-1
 462.045 1329 l 1,2,-1
 378.851 901 l 1,3,4
 437.848 937 437.848 937 510.847 955 c 128,-1,5
 583.846 973 583.846 973 669.846 973 c 0,6,7
 911.846 973 911.846 973 1025.8 839 c 128,-1,8
 1139.75 705 1139.75 705 1094.66 473 c 0,9,10
 1048.59 236 1048.59 236 881.332 103.5 c 128,-1,11
 714.076 -29 714.076 -29 458.076 -29 c 0,12,13
 355.076 -29 355.076 -29 251.937 -4 c 128,-1,14
 148.796 21 148.796 21 45.709 72 c 1,15,-1
 102.079 362 l 1,16,-1
 215.079 362 l 1,17,18
 196.478 220 196.478 220 263.398 145 c 128,-1,19
 330.32 70 330.32 70 477.32 70 c 0,20,21
 635.32 70 635.32 70 740.536 174 c 128,-1,22
 845.751 278 845.751 278 883.655 473 c 0,23,24
 921.365 667 921.365 667 856.983 770.5 c 128,-1,25
 792.602 874 792.602 874 633.602 874 c 0,26,27
 543.602 874 543.602 874 468.882 842 c 128,-1,28
 394.162 810 394.162 810 328.138 743 c 1,29,-1
 242.138 743 l 1,30,-1
 387.924 1493 l 1,31,-1
 1177.92 1493 l 1,0,-1
EndSplineSet
EndChar
StartChar: six
Encoding: 54 54 25
Width: 1303
Flags: W
HStem: -29 99<511 549> 872 99<694 735.833> 1421 99<862 902.548>
Fore
538.696 70 m 0,0,1
 679.696 70 679.696 70 775.814 173.5 c 128,-1,2
 871.933 277 871.933 277 909.643 471 c 0,3,4
 947.353 665 947.353 665 891.471 768.5 c 128,-1,5
 835.589 872 835.589 872 694.589 872 c 0,6,7
 551.589 872 551.589 872 457.151 772 c 128,-1,8
 362.713 672 362.713 672 325.976 483 c 0,9,10
 287.294 284 287.294 284 342.495 177 c 128,-1,11
 397.696 70 397.696 70 538.696 70 c 0,0,1
358.87 822 m 1,12,13
 441.448 897 441.448 897 534.641 934 c 128,-1,14
 627.833 971 627.833 971 735.833 971 c 0,15,16
 958.833 971 958.833 971 1062.29 837 c 128,-1,17
 1165.74 703 1165.74 703 1120.64 471 c 0,18,19
 1076.52 244 1076.52 244 910.485 107.5 c 128,-1,20
 744.452 -29 744.452 -29 511.452 -29 c 0,21,22
 258.452 -29 258.452 -29 159.093 159.5 c 128,-1,23
 59.7334 348 59.7334 348 127.767 698 c 0,24,25
 203.964 1090 203.964 1090 406.756 1305 c 128,-1,26
 609.548 1520 609.548 1520 902.548 1520 c 0,27,28
 981.548 1520 981.548 1520 1065.63 1505 c 128,-1,29
 1149.72 1490 1149.72 1490 1234.88 1460 c 1,30,-1
 1187.07 1214 l 1,31,-1
 1074.07 1214 l 1,32,33
 1081.7 1315 1081.7 1315 1027 1368 c 128,-1,34
 972.304 1421 972.304 1421 862.304 1421 c 0,35,36
 668.304 1421 668.304 1421 544.73 1274 c 128,-1,37
 421.156 1127 421.156 1127 358.87 822 c 1,12,13
EndSplineSet
EndChar
StartChar: seven
Encoding: 55 55 26
Width: 1303
Flags: W
HStem: 0 21G<276.896 425.896> 1329 164<317 1092>
Fore
1280.28 1391 m 1,0,-1
 425.896 0 l 1,1,-1
 276.896 0 l 1,2,-1
 1092.23 1329 l 1,3,-1
 402.227 1329 l 1,4,-1
 366.461 1145 l 1,5,-1
 249.461 1145 l 1,6,-1
 317.104 1493 l 1,7,-1
 1300.1 1493 l 1,8,-1
 1280.28 1391 l 1,0,-1
EndSplineSet
EndChar
StartChar: eight
Encoding: 56 56 27
Width: 1303
Flags: W
HStem: -29 99<490 541> 745 99<648 672> 1421 99<759 803>
Fore
888.396 408 m 0,0,1
 919.497 568 919.497 568 857.2 656.5 c 128,-1,2
 794.902 745 794.902 745 650.902 745 c 0,3,4
 506.902 745 506.902 745 410.2 656.5 c 128,-1,5
 313.497 568 313.497 568 282.396 408 c 0,6,7
 251.102 247 251.102 247 313.398 158.5 c 128,-1,8
 375.696 70 375.696 70 519.696 70 c 0,9,10
 663.696 70 663.696 70 760.398 158.5 c 128,-1,11
 857.102 247 857.102 247 888.396 408 c 0,0,1
988.322 1133 m 0,12,13
 1014.76 1269 1014.76 1269 960.531 1345 c 128,-1,14
 906.304 1421 906.304 1421 782.304 1421 c 0,15,16
 659.304 1421 659.304 1421 575.031 1345 c 128,-1,17
 490.758 1269 490.758 1269 464.322 1133 c 0,18,19
 437.692 996 437.692 996 492.419 920 c 128,-1,20
 547.146 844 547.146 844 670.146 844 c 0,21,22
 794.146 844 794.146 844 877.919 920 c 128,-1,23
 961.692 996 961.692 996 988.322 1133 c 0,12,13
814.622 795 m 1,24,25
 980.151 772 980.151 772 1055.23 669.5 c 128,-1,26
 1130.3 567 1130.3 567 1099.4 408 c 0,27,28
 1058.58 198 1058.58 198 903.515 84.5 c 128,-1,29
 748.452 -29 748.452 -29 500.452 -29 c 0,30,31
 253.452 -29 253.452 -29 142.015 84.5 c 128,-1,32
 30.5771 198 30.5771 198 71.3965 408 c 0,33,34
 102.303 567 102.303 567 217.228 669.5 c 128,-1,35
 332.151 772 332.151 772 507.622 795 c 1,36,37
 361.87 822 361.87 822 298.378 909.5 c 128,-1,38
 234.887 997 234.887 997 261.322 1133 c 0,39,40
 296.311 1313 296.311 1313 440.429 1416.5 c 128,-1,41
 584.548 1520 584.548 1520 801.548 1520 c 0,42,43
 1018.55 1520 1018.55 1520 1122.43 1416.5 c 128,-1,44
 1226.31 1313 1226.31 1313 1191.32 1133 c 0,45,46
 1164.89 997 1164.89 997 1067.38 909.5 c 128,-1,47
 969.87 822 969.87 822 814.622 795 c 1,24,25
EndSplineSet
EndChar
StartChar: nine
Encoding: 57 57 28
Width: 1303
Flags: W
HStem: -29 99<400 439> 520 98<564 608.217> 1421 99<755 791>
Fore
943.13 669 m 1,0,1
 861.552 594 861.552 594 767.359 557 c 128,-1,2
 673.167 520 673.167 520 564.167 520 c 0,3,4
 342.167 520 342.167 520 239.714 654 c 128,-1,5
 137.261 788 137.261 788 182.357 1020 c 0,6,7
 226.481 1247 226.481 1247 392.515 1383.5 c 128,-1,8
 558.548 1520 558.548 1520 791.548 1520 c 0,9,10
 1044.55 1520 1044.55 1520 1143.41 1331.5 c 128,-1,11
 1242.27 1143 1242.27 1143 1174.23 793 c 0,12,13
 1098.04 401 1098.04 401 895.244 186 c 128,-1,14
 692.452 -29 692.452 -29 400.452 -29 c 0,15,16
 321.452 -29 321.452 -29 237.368 -14 c 128,-1,17
 153.284 1 153.284 1 68.1152 31 c 1,18,-1
 116.321 279 l 1,19,-1
 228.321 279 l 1,20,21
 221.689 178 221.689 178 276.192 124 c 128,-1,22
 330.696 70 330.696 70 439.696 70 c 0,23,24
 633.696 70 633.696 70 757.173 216.5 c 128,-1,25
 880.649 363 880.649 363 943.13 669 c 1,0,1
764.304 1421 m 0,26,27
 622.304 1421 622.304 1421 526.686 1317.5 c 128,-1,28
 431.067 1214 431.067 1214 393.357 1020 c 0,29,30
 355.647 826 355.647 826 410.932 722 c 128,-1,31
 466.217 618 466.217 618 608.217 618 c 0,32,33
 750.217 618 750.217 618 845.252 718.5 c 128,-1,34
 940.287 819 940.287 819 977.024 1008 c 0,35,36
 1015.71 1207 1015.71 1207 960.505 1314 c 128,-1,37
 905.304 1421 905.304 1421 764.304 1421 c 0,26,27
EndSplineSet
EndChar
StartChar: colon
Encoding: 58 58 29
Width: 690
Flags: W
HStem: -29 267<256.779 308.679> 623 266<383.516 435.221>
Fore
149.632 104 m 0,0,1
 160.518 160 160.518 160 206.599 199 c 128,-1,2
 252.679 238 252.679 238 308.679 238 c 0,3,4
 364.679 238 364.679 238 395.599 199 c 128,-1,5
 426.518 160 426.518 160 415.632 104 c 0,6,7
 404.747 48 404.747 48 359.263 9.5 c 128,-1,8
 313.779 -29 313.779 -29 256.779 -29 c 0,9,10
 199.779 -29 199.779 -29 169.263 9.5 c 128,-1,11
 138.747 48 138.747 48 149.632 104 c 0,0,1
276.368 756 m 0,12,13
 287.253 812 287.253 812 333.237 850.5 c 128,-1,14
 379.221 889 379.221 889 435.221 889 c 0,15,16
 492.221 889 492.221 889 522.834 851 c 128,-1,17
 553.447 813 553.447 813 542.368 756 c 0,18,19
 531.288 699 531.288 699 485.901 661 c 128,-1,20
 440.516 623 440.516 623 383.516 623 c 0,21,22
 327.516 623 327.516 623 296.499 661.5 c 128,-1,23
 265.482 700 265.482 700 276.368 756 c 0,12,13
EndSplineSet
EndChar
StartChar: semicolon
Encoding: 59 59 30
Width: 690
Flags: W
HStem: 623 266<411.812 463.519>
Fore
-23.9678 -199 m 1,0,1
 83.4443 -130 83.4443 -130 145.619 -36.5 c 128,-1,2
 207.794 57 207.794 57 233.646 190 c 2,3,-1
 240.838 227 l 1,4,-1
 437.838 227 l 1,5,6
 396.6 56 396.6 56 300.288 -66.5 c 128,-1,7
 203.977 -189 203.977 -189 40.4814 -279 c 1,8,-1
 -23.9678 -199 l 1,0,1
304.665 756 m 0,9,10
 315.551 812 315.551 812 361.534 850.5 c 128,-1,11
 407.519 889 407.519 889 463.519 889 c 0,12,13
 519.519 889 519.519 889 550.438 850 c 128,-1,14
 581.356 811 581.356 811 570.665 756 c 0,15,16
 559.78 700 559.78 700 513.797 661.5 c 128,-1,17
 467.812 623 467.812 623 411.812 623 c 0,18,19
 355.812 623 355.812 623 324.797 661.5 c 128,-1,20
 293.78 700 293.78 700 304.665 756 c 0,9,10
EndSplineSet
EndChar
StartChar: less
Encoding: 60 60 31
Width: 1716
Flags: W
Fore
1572.48 1020 m 1,0,-1
 460.806 641 l 1,1,-1
 1425.52 264 l 1,2,-1
 1392.48 94 l 1,3,-1
 200.866 559 l 1,4,-1
 233.134 725 l 1,5,-1
 1605.52 1190 l 1,6,-1
 1572.48 1020 l 1,0,-1
EndSplineSet
EndChar
StartChar: equal
Encoding: 61 61 32
Width: 1716
Flags: W
HStem: 358 160<191 1443> 766 160<271 1523>
Fore
272.204 926 m 1,0,-1
 1554.2 926 l 1,1,-1
 1523.1 766 l 1,2,-1
 241.104 766 l 1,3,-1
 272.204 926 l 1,0,-1
192.896 518 m 1,4,-1
 1474.9 518 l 1,5,-1
 1443.8 358 l 1,6,-1
 161.796 358 l 1,7,-1
 192.896 518 l 1,4,-1
EndSplineSet
EndChar
StartChar: greater
Encoding: 62 62 33
Width: 1716
Flags: W
Fore
290.476 1020 m 1,0,-1
 323.521 1190 l 1,1,-1
 1515.13 725 l 1,2,-1
 1482.87 559 l 1,3,-1
 110.479 94 l 1,4,-1
 143.524 264 l 1,5,-1
 1254.81 641 l 1,6,-1
 290.476 1020 l 1,0,-1
EndSplineSet
EndChar
StartChar: question
Encoding: 63 63 34
Width: 1098
Flags: W
HStem: -29 267<343.452 395.352> 1421 99<635 672>
Fore
235.305 104 m 0,0,1
 246.19 160 246.19 160 292.271 199 c 128,-1,2
 338.352 238 338.352 238 395.352 238 c 0,3,4
 450.352 238 450.352 238 481.771 199 c 128,-1,5
 513.19 160 513.19 160 502.305 104 c 0,6,7
 491.614 49 491.614 49 445.033 10 c 128,-1,8
 398.452 -29 398.452 -29 343.452 -29 c 0,9,10
 286.452 -29 286.452 -29 255.437 9.5 c 128,-1,11
 224.42 48 224.42 48 235.305 104 c 0,0,1
271.47 1427 m 1,12,13
 386.606 1474 386.606 1474 486.577 1497 c 128,-1,14
 586.548 1520 586.548 1520 670.548 1520 c 0,15,16
 892.548 1520 892.548 1520 1000.25 1413 c 128,-1,17
 1107.95 1306 1107.95 1306 1072.57 1124 c 0,18,19
 1036.42 938 1036.42 938 902.981 820 c 128,-1,20
 769.545 702 769.545 702 536.631 651 c 1,21,-1
 487.259 397 l 1,22,-1
 364.259 397 l 1,23,-1
 428.016 725 l 1,24,25
 613.374 768 613.374 768 722.506 869 c 128,-1,26
 831.639 970 831.639 970 861.962 1126 c 0,27,28
 888.592 1263 888.592 1263 830.948 1342 c 128,-1,29
 773.304 1421 773.304 1421 647.304 1421 c 0,30,31
 533.304 1421 533.304 1421 448.072 1355.5 c 128,-1,32
 362.84 1290 362.84 1290 317.932 1167 c 1,33,-1
 220.932 1167 l 1,34,-1
 271.47 1427 l 1,12,13
EndSplineSet
EndChar
StartChar: at
Encoding: 64 64 35
Width: 2048
Flags: W
HStem: -356 104<863 926.468> 86 117<906.168 971.911> 870 117<1075 1109> 1337 105<1237 1273>
Fore
1236.66 248 m 1,0,1
 1161.72 166 1161.72 166 1080.44 126 c 128,-1,2
 999.168 86 999.168 86 906.168 86 c 0,3,4
 731.168 86 731.168 86 646.466 211 c 128,-1,5
 561.764 336 561.764 336 600.834 537 c 0,6,7
 639.904 738 639.904 738 773.104 862.5 c 128,-1,8
 906.305 987 906.305 987 1081.3 987 c 0,9,10
 1174.3 987 1174.3 987 1240.03 947 c 128,-1,11
 1305.75 907 1305.75 907 1348.82 825 c 1,12,-1
 1376.42 967 l 1,13,-1
 1532.42 967 l 1,14,-1
 1382.36 195 l 1,15,16
 1559.55 232 1559.55 232 1677.85 357 c 128,-1,17
 1796.14 482 1796.14 482 1832.69 670 c 0,18,19
 1854.26 781 1854.26 781 1839.51 880 c 128,-1,20
 1824.75 979 1824.75 979 1774.08 1063 c 0,21,22
 1693.93 1196 1693.93 1196 1555.13 1266.5 c 128,-1,23
 1416.34 1337 1416.34 1337 1237.34 1337 c 0,24,25
 1147.34 1337 1147.34 1337 1055.64 1318 c 128,-1,26
 963.951 1299 963.951 1299 870.371 1260 c 0,27,28
 650.293 1167 650.293 1167 501.652 978.5 c 128,-1,29
 353.012 790 353.012 790 305 543 c 0,30,31
 272.538 376 272.538 376 295.229 235.5 c 128,-1,32
 317.918 95 317.918 95 392.896 -8 c 0,33,34
 478.766 -127 478.766 -127 616.116 -189.5 c 128,-1,35
 753.468 -252 753.468 -252 926.468 -252 c 0,36,37
 1055.47 -252 1055.47 -252 1174.85 -214 c 128,-1,38
 1294.24 -176 1294.24 -176 1405.01 -100 c 1,39,-1
 1444.41 -170 l 1,40,41
 1318.33 -263 1318.33 -263 1172.29 -309.5 c 128,-1,42
 1026.25 -356 1026.25 -356 863.252 -356 c 0,43,44
 680.252 -356 680.252 -356 526.679 -289.5 c 128,-1,45
 373.104 -223 373.104 -223 272.014 -100 c 0,46,47
 167.7 27 167.7 27 132.98 190.5 c 128,-1,48
 98.2617 354 98.2617 354 135 543 c 0,49,50
 170.766 727 170.766 727 269.45 890 c 128,-1,51
 368.134 1053 368.134 1053 520.82 1180 c 0,52,53
 672.312 1306 672.312 1306 858.03 1374 c 128,-1,54
 1043.75 1442 1043.75 1442 1237.75 1442 c 0,55,56
 1451.75 1442 1451.75 1442 1612.11 1359 c 128,-1,57
 1772.48 1276 1772.48 1276 1861.16 1120 c 0,58,59
 1918.11 1022 1918.11 1022 1934.75 907 c 128,-1,60
 1951.4 792 1951.4 792 1927.3 668 c 0,61,62
 1875.2 400 1875.2 400 1681.98 244.5 c 128,-1,63
 1488.75 89 1488.75 89 1206.17 86 c 1,64,-1
 1236.66 248 l 1,0,1
1282.73 485 m 2,65,-1
 1303.14 590 l 2,66,67
 1327.43 715 1327.43 715 1271 792.5 c 128,-1,68
 1214.56 870 1214.56 870 1099.56 870 c 0,69,70
 978.562 870 978.562 870 894.054 782.5 c 128,-1,71
 809.546 695 809.546 695 778.834 537 c 0,72,73
 747.928 378 747.928 378 798.919 290.5 c 128,-1,74
 849.911 203 849.911 203 971.911 203 c 0,75,76
 1085.91 203 1085.91 203 1172.17 281.5 c 128,-1,77
 1258.43 360 1258.43 360 1282.73 485 c 2,65,-1
EndSplineSet
EndChar
StartChar: A
Encoding: 65 65 36
Width: 1479
Flags: W
HStem: 0 106<-138 262 830 1353> 434 107<370 936> 1473 20G<796.104 964.104>
Fore
370.055 541 m 1,0,-1
 918.055 541 l 1,1,-1
 782.064 1251 l 1,2,-1
 370.055 541 l 1,0,-1
-157.104 0 m 1,3,-1
 -136.501 106 l 1,4,-1
 -5.50098 106 l 1,5,-1
 796.104 1493 l 1,6,-1
 964.104 1493 l 1,7,-1
 1227.5 106 l 1,8,-1
 1374.5 106 l 1,9,-1
 1353.9 0 l 1,10,-1
 810.896 0 l 1,11,-1
 831.499 106 l 1,12,-1
 997.499 106 l 1,13,-1
 936.256 434 l 1,14,-1
 308.256 434 l 1,15,-1
 119.499 106 l 1,16,-1
 283.499 106 l 1,17,-1
 262.896 0 l 1,18,-1
 -157.104 0 l 1,3,-1
EndSplineSet
KernsSLIF: 357 -36 0 0 356 -112 0 0 253 -83 0 0 221 -83 0 0 64258 -36 0 0 64257 -36 0 0 376 -83 0 0 255 -83 0 0 8217 -301 0 0 8221 -301 0 0 121 -83 0 0 119 -92 0 0 118 -83 0 0 116 -36 0 0 102 -36 0 0 89 -83 0 0 87 -83 0 0 86 -102 0 0 84 -112 0 0
EndChar
StartChar: B
Encoding: 66 66 37
Width: 1505
Flags: W
HStem: 0 106<-13 704> 756 106<528 816> 1386 107<257 427 258 912>
Fore
381.499 106 m 1,0,-1
 680.499 106 l 2,1,2
 860.499 106 860.499 106 958.661 184 c 128,-1,3
 1056.82 262 1056.82 262 1089.87 432 c 0,4,5
 1122.72 601 1122.72 601 1055.28 678.5 c 128,-1,6
 987.847 756 987.847 756 806.847 756 c 2,7,-1
 507.847 756 l 1,8,-1
 381.499 106 l 1,0,-1
528.451 862 m 1,9,-1
 782.451 862 l 2,10,11
 946.451 862 946.451 862 1034.2 925 c 128,-1,12
 1121.94 988 1121.94 988 1148.38 1124 c 0,13,14
 1175.01 1261 1175.01 1261 1111.66 1323.5 c 128,-1,15
 1048.31 1386 1048.31 1386 884.307 1386 c 2,16,-1
 630.307 1386 l 1,17,-1
 528.451 862 l 1,9,-1
-32.1045 0 m 1,18,-1
 -11.501 106 l 1,19,-1
 178.499 106 l 1,20,-1
 427.307 1386 l 1,21,-1
 237.307 1386 l 1,22,-1
 258.104 1493 l 1,23,-1
 995.104 1493 l 2,24,25
 1221.1 1493 1221.1 1493 1317.62 1400.5 c 128,-1,26
 1414.14 1308 1414.14 1308 1378.38 1124 c 0,27,28
 1352.53 991 1352.53 991 1257.67 912 c 128,-1,29
 1162.81 833 1162.81 833 1006.32 815 c 1,30,31
 1191.65 791 1191.65 791 1271.2 693.5 c 128,-1,32
 1350.75 596 1350.75 596 1318.87 432 c 0,33,34
 1275.71 210 1275.71 210 1115.3 105 c 128,-1,35
 954.896 0 954.896 0 657.896 0 c 2,36,-1
 -32.1045 0 l 1,18,-1
EndSplineSet
KernsSLIF: 268 38 0 0 262 38 0 0 286 38 0 0 221 -36 0 0 210 38 0 0 212 38 0 0 211 38 0 0 376 -36 0 0 338 38 0 0 213 38 0 0 216 38 0 0 214 38 0 0 199 38 0 0 89 -36 0 0 79 38 0 0 71 38 0 0 67 38 0 0 45 38 0 0
EndChar
StartChar: C
Encoding: 67 67 38
Width: 1567
Flags: W
HStem: -29 107<670 720> 1413 107<956 998>
Fore
1375.87 395 m 1,0,1
 1269.24 186 1269.24 186 1092.85 78.5 c 128,-1,2
 916.452 -29 916.452 -29 678.452 -29 c 0,3,4
 532.452 -29 532.452 -29 417.172 21 c 128,-1,5
 301.891 71 301.891 71 223.745 168 c 0,6,7
 133.516 280 133.516 280 106.715 422.5 c 128,-1,8
 79.9141 565 79.9141 565 114.902 745 c 0,9,10
 182.547 1093 182.547 1093 425.047 1306.5 c 128,-1,11
 667.548 1520 667.548 1520 996.548 1520 c 0,12,13
 1118.55 1520 1118.55 1520 1250.33 1488 c 128,-1,14
 1382.11 1456 1382.11 1456 1528.47 1391 c 1,15,-1
 1461.61 1047 l 1,16,-1
 1348.61 1047 l 1,17,18
 1348.15 1235 1348.15 1235 1253.95 1324 c 128,-1,19
 1159.75 1413 1159.75 1413 958.749 1413 c 0,20,21
 719.749 1413 719.749 1413 563.802 1243.5 c 128,-1,22
 407.854 1074 407.854 1074 343.902 745 c 0,23,24
 280.146 417 280.146 417 370.198 247.5 c 128,-1,25
 460.251 78 460.251 78 699.251 78 c 0,26,27
 866.251 78 866.251 78 989.704 157.5 c 128,-1,28
 1113.16 237 1113.16 237 1191.87 395 c 1,29,-1
 1375.87 395 l 1,0,1
EndSplineSet
KernsSLIF: 46 -73 0 0 44 -73 0 0
EndChar
StartChar: D
Encoding: 68 68 39
Width: 1642
Flags: W
HStem: 0 106<-13 608> 1386 107<257 427 258 854>
Fore
381.499 106 m 1,0,-1
 567.499 106 l 2,1,2
 858.499 106 858.499 106 1046.27 272 c 128,-1,3
 1234.03 438 1234.03 438 1294.29 748 c 0,4,5
 1354.55 1058 1354.55 1058 1231.43 1222 c 128,-1,6
 1108.31 1386 1108.31 1386 816.307 1386 c 2,7,-1
 630.307 1386 l 1,8,-1
 381.499 106 l 1,0,-1
-32.1045 0 m 1,9,-1
 -11.501 106 l 1,10,-1
 178.499 106 l 1,11,-1
 427.307 1386 l 1,12,-1
 237.307 1386 l 1,13,-1
 258.104 1493 l 1,14,-1
 852.104 1493 l 2,15,16
 1238.1 1493 1238.1 1493 1415.31 1296 c 128,-1,17
 1592.52 1099 1592.52 1099 1524.29 748 c 0,18,19
 1455.87 396 1455.87 396 1201.38 198 c 128,-1,20
 946.896 0 946.896 0 561.896 0 c 2,21,-1
 -32.1045 0 l 1,9,-1
EndSplineSet
KernsSLIF: 86 -36 0 0 46 -73 0 0 45 38 0 0 44 -73 0 0
EndChar
StartChar: E
Encoding: 69 69 40
Width: 1495
Flags: W
HStem: 0 123<384.804 1086.8 1185.9 1185.9> 0 106<-32.1045 -32.1045 -11.501 178.499> 748 122<506.292 1019.01> 1370 123<627.196 1460.1> 1386 107<258.104 427.307>
Fore
-32.1045 0 m 1,0,-1
 -11.501 106 l 1,1,-1
 178.499 106 l 1,2,-1
 427.307 1386 l 1,3,-1
 237.307 1386 l 1,4,-1
 258.104 1493 l 1,5,-1
 1460.1 1493 l 1,6,-1
 1395.57 1161 l 1,7,-1
 1272.57 1161 l 1,8,-1
 1313.2 1370 l 1,9,-1
 627.196 1370 l 1,10,-1
 530.006 870 l 1,11,-1
 1019.01 870 l 1,12,-1
 1055.36 1057 l 1,13,-1
 1178.36 1057 l 1,14,-1
 1081.94 561 l 1,15,-1
 958.942 561 l 1,16,-1
 995.292 748 l 1,17,-1
 506.292 748 l 1,18,-1
 384.804 123 l 1,19,-1
 1086.8 123 l 1,20,-1
 1127.43 332 l 1,21,-1
 1250.43 332 l 1,22,-1
 1185.9 0 l 1,23,-1
 -32.1045 0 l 1,0,-1
EndSplineSet
KernsSLIF: 45 38 0 0
EndChar
StartChar: F
Encoding: 70 70 41
Width: 1421
Flags: W
HStem: 0 106<-32.1045 599.896> 748 122<506.292 1040.01> 1370 123<627.196 1480.1> 1386 107<258.104 427.307>
Fore
-32.1045 0 m 1,0,-1
 -11.501 106 l 1,1,-1
 178.499 106 l 1,2,-1
 427.307 1386 l 1,3,-1
 237.307 1386 l 1,4,-1
 258.104 1493 l 1,5,-1
 1480.1 1493 l 1,6,-1
 1415.57 1161 l 1,7,-1
 1292.57 1161 l 1,8,-1
 1333.2 1370 l 1,9,-1
 627.196 1370 l 1,10,-1
 530.006 870 l 1,11,-1
 1040.01 870 l 1,12,-1
 1076.36 1057 l 1,13,-1
 1199.36 1057 l 1,14,-1
 1102.94 561 l 1,15,-1
 979.942 561 l 1,16,-1
 1016.29 748 l 1,17,-1
 506.292 748 l 1,18,-1
 381.499 106 l 1,19,-1
 620.499 106 l 1,20,-1
 599.896 0 l 1,21,-1
 -32.1045 0 l 1,0,-1
EndSplineSet
KernsSLIF: 283 -112 0 0 193 -178 0 0 194 -178 0 0 339 -112 0 0 195 -178 0 0 192 -178 0 0 248 -112 0 0 230 -139 0 0 245 -112 0 0 246 -112 0 0 244 -112 0 0 242 -112 0 0 243 -112 0 0 235 -112 0 0 234 -112 0 0 232 -112 0 0 233 -112 0 0 229 -139 0 0 227 -139 0 0 228 -139 0 0 226 -139 0 0 224 -139 0 0 225 -139 0 0 196 -178 0 0 111 -112 0 0 101 -112 0 0 97 -139 0 0 65 -178 0 0 59 -73 0 0 58 -73 0 0 46 -319 0 0 45 -92 0 0 44 -319 0 0
EndChar
StartChar: G
Encoding: 71 71 42
Width: 1636
Flags: W
HStem: -29 107<701 751> 575 107<977 1238> 1413 107<973 1023>
Fore
1369.61 1047 m 1,0,1
 1370.96 1234 1370.96 1234 1277.35 1323.5 c 128,-1,2
 1183.75 1413 1183.75 1413 985.749 1413 c 0,3,4
 727.749 1413 727.749 1413 568.481 1247 c 128,-1,5
 409.215 1081 409.215 1081 343.902 745 c 0,6,7
 279.952 416 279.952 416 378.102 247 c 128,-1,8
 476.251 78 476.251 78 730.251 78 c 0,9,10
 843.251 78 843.251 78 951.693 106 c 128,-1,11
 1060.14 134 1060.14 134 1164.02 190 c 1,12,-1
 1238.86 575 l 1,13,-1
 957.858 575 l 1,14,-1
 978.657 682 l 1,15,-1
 1462.66 682 l 1,16,-1
 1354.39 125 l 1,17,18
 1206.42 48 1206.42 48 1045.44 9.5 c 128,-1,19
 884.452 -29 884.452 -29 709.452 -29 c 0,20,21
 371.452 -29 371.452 -29 209.063 182.5 c 128,-1,22
 46.6758 394 46.6758 394 114.902 745 c 0,23,24
 183.714 1099 183.714 1099 428.631 1309.5 c 128,-1,25
 673.548 1520 673.548 1520 1018.55 1520 c 0,26,27
 1146.55 1520 1146.55 1520 1277.31 1490.5 c 128,-1,28
 1408.08 1461 1408.08 1461 1550.42 1401 c 1,29,-1
 1481.61 1047 l 1,30,-1
 1369.61 1047 l 1,0,1
EndSplineSet
KernsSLIF: 221 -36 0 0 376 -36 0 0 89 -36 0 0 46 -73 0 0 45 38 0 0 44 -73 0 0
EndChar
StartChar: H
Encoding: 72 72 43
Width: 1786
Flags: W
HStem: 0 106<-13 550 964 1527> 748 122<530 1280> 1386 107<257 427 258 820 1234 1404 1235 1797>
Fore
-32.1045 0 m 1,0,-1
 -11.501 106 l 1,1,-1
 178.499 106 l 1,2,-1
 427.307 1386 l 1,3,-1
 237.307 1386 l 1,4,-1
 258.104 1493 l 1,5,-1
 841.104 1493 l 1,6,-1
 820.307 1386 l 1,7,-1
 630.307 1386 l 1,8,-1
 530.006 870 l 1,9,-1
 1304.01 870 l 1,10,-1
 1404.31 1386 l 1,11,-1
 1214.31 1386 l 1,12,-1
 1235.1 1493 l 1,13,-1
 1818.1 1493 l 1,14,-1
 1797.31 1386 l 1,15,-1
 1607.31 1386 l 1,16,-1
 1358.5 106 l 1,17,-1
 1548.5 106 l 1,18,-1
 1527.9 0 l 1,19,-1
 944.896 0 l 1,20,-1
 965.499 106 l 1,21,-1
 1155.5 106 l 1,22,-1
 1280.29 748 l 1,23,-1
 506.292 748 l 1,24,-1
 381.499 106 l 1,25,-1
 571.499 106 l 1,26,-1
 550.896 0 l 1,27,-1
 -32.1045 0 l 1,0,-1
EndSplineSet
EndChar
StartChar: I
Encoding: 73 73 44
Width: 809
Flags: W
HStem: 0 106<-13 550> 1386 107<257 427 258 820>
Fore
381.499 106 m 1,0,-1
 571.499 106 l 1,1,-1
 550.896 0 l 1,2,-1
 -32.1045 0 l 1,3,-1
 -11.501 106 l 1,4,-1
 178.499 106 l 1,5,-1
 427.307 1386 l 1,6,-1
 237.307 1386 l 1,7,-1
 258.104 1493 l 1,8,-1
 841.104 1493 l 1,9,-1
 820.307 1386 l 1,10,-1
 630.307 1386 l 1,11,-1
 381.499 106 l 1,0,-1
EndSplineSet
EndChar
StartChar: J
Encoding: 74 74 45
Width: 821
Flags: W
HStem: -426 107<-69 -42> 1386 107<287 499 288 892>
Fore
-345.29 -358 m 1,0,-1
 -299.61 -123 l 1,1,-1
 -185.61 -123 l 1,2,3
 -201.854 -222 -201.854 -222 -167.282 -270.5 c 128,-1,4
 -132.709 -319 -132.709 -319 -44.709 -319 c 0,5,6
 74.291 -319 74.291 -319 135.869 -244 c 128,-1,7
 197.448 -169 197.448 -169 239.822 49 c 2,8,-1
 499.709 1386 l 1,9,-1
 267.709 1386 l 1,10,-1
 288.508 1493 l 1,11,-1
 913.508 1493 l 1,12,-1
 892.709 1386 l 1,13,-1
 702.709 1386 l 1,14,-1
 441.268 41 l 2,15,16
 393.256 -206 393.256 -206 272.874 -316 c 128,-1,17
 152.492 -426 152.492 -426 -67.5078 -426 c 0,18,19
 -138.508 -426 -138.508 -426 -208.703 -409 c 128,-1,20
 -278.899 -392 -278.899 -392 -345.29 -358 c 1,0,-1
EndSplineSet
KernsSLIF: 59 -83 0 0 58 -83 0 0 46 -159 0 0 44 -120 0 0
EndChar
StartChar: K
Encoding: 75 75 46
Width: 1530
Flags: W
HStem: 0 106<-13 550 1265 1415> 1386 107<257 427 258 820 1131 1273 1132 1607>
Fore
-32.1045 0 m 1,0,-1
 -11.501 106 l 1,1,-1
 178.499 106 l 1,2,-1
 427.307 1386 l 1,3,-1
 237.307 1386 l 1,4,-1
 258.104 1493 l 1,5,-1
 841.104 1493 l 1,6,-1
 820.307 1386 l 1,7,-1
 630.307 1386 l 1,8,-1
 520.481 821 l 1,9,-1
 1273.31 1386 l 1,10,-1
 1111.31 1386 l 1,11,-1
 1132.1 1493 l 1,12,-1
 1628.1 1493 l 1,13,-1
 1607.31 1386 l 1,14,-1
 1439.31 1386 l 1,15,-1
 688.87 823 l 1,16,-1
 1266.5 106 l 1,17,-1
 1436.5 106 l 1,18,-1
 1415.9 0 l 1,19,-1
 1068.9 0 l 1,20,-1
 498.711 709 l 1,21,-1
 381.499 106 l 1,22,-1
 571.499 106 l 1,23,-1
 550.896 0 l 1,24,-1
 -32.1045 0 l 1,0,-1
EndSplineSet
KernsSLIF: 367 -45 0 0 366 -73 0 0 283 -55 0 0 268 -55 0 0 262 -55 0 0 253 -131 0 0 221 -55 0 0 217 -73 0 0 219 -73 0 0 218 -73 0 0 210 -55 0 0 212 -55 0 0 211 -55 0 0 193 -83 0 0 194 -83 0 0 376 -55 0 0 255 -131 0 0 339 -55 0 0 338 -55 0 0 213 -55 0 0 195 -83 0 0 192 -83 0 0 248 -36 0 0 216 -55 0 0 252 -45 0 0 251 -45 0 0 249 -45 0 0 250 -45 0 0 245 -55 0 0 246 -55 0 0 244 -55 0 0 242 -55 0 0 243 -55 0 0 235 -55 0 0 234 -55 0 0 232 -55 0 0 233 -55 0 0 220 -73 0 0 214 -55 0 0 199 -55 0 0 196 -83 0 0 121 -131 0 0 117 -45 0 0 111 -55 0 0 101 -55 0 0 89 -55 0 0 87 -73 0 0 85 -73 0 0 79 -55 0 0 67 -55 0 0 65 -83 0 0 45 -149 0 0
EndChar
StartChar: L
Encoding: 76 76 47
Width: 1360
Flags: W
HStem: 0 106<-13 1165> 0 123<384 1165> 1386 107<257 427 258 820>
Fore
-32.1045 0 m 1,0,-1
 -11.501 106 l 1,1,-1
 178.499 106 l 1,2,-1
 427.307 1386 l 1,3,-1
 237.307 1386 l 1,4,-1
 258.104 1493 l 1,5,-1
 841.104 1493 l 1,6,-1
 820.307 1386 l 1,7,-1
 630.307 1386 l 1,8,-1
 384.804 123 l 1,9,-1
 1066.8 123 l 1,10,-1
 1115.4 373 l 1,11,-1
 1238.4 373 l 1,12,-1
 1165.9 0 l 1,13,-1
 -32.1045 0 l 1,0,-1
EndSplineSet
KernsSLIF: 366 -112 0 0 356 -167 0 0 253 -36 0 0 221 -131 0 0 217 -112 0 0 219 -112 0 0 218 -112 0 0 376 -131 0 0 255 -36 0 0 8217 -491 0 0 8221 -491 0 0 220 -112 0 0 121 -36 0 0 89 -131 0 0 87 -178 0 0 86 -243 0 0 85 -112 0 0 84 -167 0 0
EndChar
StartChar: M
Encoding: 77 77 48
Width: 2097
Flags: W
HStem: 0 106<-13 470 1275 1839> 1386 107<246 427 1730 2117>
Fore
-32.1045 0 m 1,0,-1
 -11.501 106 l 1,1,-1
 178.499 106 l 1,2,-1
 427.307 1386 l 1,3,-1
 226.307 1386 l 1,4,-1
 247.104 1493 l 1,5,-1
 682.104 1493 l 1,6,-1
 999.479 430 l 1,7,-1
 1730.1 1493 l 1,8,-1
 2138.1 1493 l 1,9,-1
 2117.31 1386 l 1,10,-1
 1918.31 1386 l 1,11,-1
 1669.5 106 l 1,12,-1
 1860.5 106 l 1,13,-1
 1839.9 0 l 1,14,-1
 1255.9 0 l 1,15,-1
 1276.5 106 l 1,16,-1
 1466.5 106 l 1,17,-1
 1690.81 1260 l 1,18,-1
 976.465 219 l 1,19,-1
 835.465 219 l 1,20,-1
 525.814 1260 l 1,21,-1
 301.499 106 l 1,22,-1
 491.499 106 l 1,23,-1
 470.896 0 l 1,24,-1
 -32.1045 0 l 1,0,-1
EndSplineSet
EndChar
StartChar: N
Encoding: 78 78 49
Width: 1792
Flags: W
HStem: -29 21G<1232.08 1353.08> 0 106<-23 482> 1386 107<246 428 1324 1505 1325 1829>
Fore
-42.2861 0 m 1,0,-1
 -21.6816 106 l 1,1,-1
 179.318 106 l 1,2,-1
 428.125 1386 l 1,3,-1
 227.125 1386 l 1,4,-1
 247.924 1493 l 1,5,-1
 630.924 1493 l 1,6,-1
 1296.94 315 l 1,7,-1
 1505.12 1386 l 1,8,-1
 1305.12 1386 l 1,9,-1
 1325.92 1493 l 1,10,-1
 1849.92 1493 l 1,11,-1
 1829.12 1386 l 1,12,-1
 1628.12 1386 l 1,13,-1
 1353.08 -29 l 1,14,-1
 1232.08 -29 l 1,15,-1
 520.607 1229 l 1,16,-1
 302.318 106 l 1,17,-1
 503.318 106 l 1,18,-1
 482.714 0 l 1,19,-1
 -42.2861 0 l 1,0,-1
EndSplineSet
KernsSLIF: 59 -73 0 0 58 -73 0 0 46 -131 0 0 44 -131 0 0
EndChar
StartChar: O
Encoding: 79 79 50
Width: 1679
Flags: W
HStem: -29 107<685 719> 1413 107<957 1007>
Fore
710.251 78 m 0,0,1
 955.251 78 955.251 78 1113 246.5 c 128,-1,2
 1270.76 415 1270.76 415 1334.9 745 c 0,3,4
 1399.24 1076 1399.24 1076 1307 1244.5 c 128,-1,5
 1214.75 1413 1214.75 1413 969.749 1413 c 0,6,7
 723.749 1413 723.749 1413 565.996 1244.5 c 128,-1,8
 408.243 1076 408.243 1076 343.902 745 c 0,9,10
 279.757 415 279.757 415 372.004 246.5 c 128,-1,11
 464.251 78 464.251 78 710.251 78 c 0,0,1
689.452 -29 m 0,12,13
 537.452 -29 537.452 -29 419.672 21 c 128,-1,14
 301.891 71 301.891 71 223.745 168 c 0,15,16
 133.516 280 133.516 280 106.618 422 c 128,-1,17
 79.7197 564 79.7197 564 114.902 745 c 0,18,19
 150.086 926 150.086 926 232.285 1068.5 c 128,-1,20
 314.484 1211 314.484 1211 448.255 1323 c 0,21,22
 565.304 1421 565.304 1421 700.926 1470.5 c 128,-1,23
 836.548 1520 836.548 1520 990.548 1520 c 0,24,25
 1315.55 1520 1315.55 1520 1474.14 1307 c 128,-1,26
 1632.74 1094 1632.74 1094 1564.9 745 c 0,27,28
 1530.11 566 1530.11 566 1447.21 422.5 c 128,-1,29
 1364.32 279 1364.32 279 1230.75 168 c 0,30,31
 1113.7 70 1113.7 70 978.074 20.5 c 128,-1,32
 842.452 -29 842.452 -29 689.452 -29 c 0,12,13
EndSplineSet
KernsSLIF: 88 -36 0 0 86 -36 0 0 46 -120 0 0 45 75 0 0 44 -120 0 0
EndChar
StartChar: P
Encoding: 80 80 51
Width: 1378
Flags: W
HStem: 0 106<-13 591> 653 107<508 802> 1386 107<257 427 258 912>
Fore
508.624 760 m 1,0,-1
 772.624 760 l 2,1,2
 921.624 760 921.624 760 1015.27 840.5 c 128,-1,3
 1108.92 921 1108.92 921 1138.46 1073 c 0,4,5
 1168.21 1226 1168.21 1226 1105.76 1306 c 128,-1,6
 1043.31 1386 1043.31 1386 894.307 1386 c 2,7,-1
 630.307 1386 l 1,8,-1
 508.624 760 l 1,0,-1
-32.1045 0 m 1,9,-1
 -11.501 106 l 1,10,-1
 178.499 106 l 1,11,-1
 427.307 1386 l 1,12,-1
 237.307 1386 l 1,13,-1
 258.104 1493 l 1,14,-1
 964.104 1493 l 2,15,16
 1188.1 1493 1188.1 1493 1297.04 1379.5 c 128,-1,17
 1405.98 1266 1405.98 1266 1368.46 1073 c 0,18,19
 1331.14 881 1331.14 881 1177.98 767 c 128,-1,20
 1024.83 653 1024.83 653 800.825 653 c 2,21,-1
 487.825 653 l 1,22,-1
 381.499 106 l 1,23,-1
 612.499 106 l 1,24,-1
 591.896 0 l 1,25,-1
 -32.1045 0 l 1,9,-1
EndSplineSet
KernsSLIF: 366 -36 0 0 283 -92 0 0 351 -55 0 0 353 -55 0 0 217 -36 0 0 219 -36 0 0 218 -36 0 0 193 -188 0 0 194 -188 0 0 339 -83 0 0 195 -188 0 0 192 -188 0 0 248 -83 0 0 230 -92 0 0 245 -83 0 0 246 -83 0 0 244 -83 0 0 242 -83 0 0 243 -83 0 0 235 -92 0 0 234 -92 0 0 232 -92 0 0 233 -92 0 0 229 -92 0 0 227 -92 0 0 228 -92 0 0 226 -92 0 0 224 -92 0 0 225 -92 0 0 220 -36 0 0 196 -188 0 0 115 -55 0 0 111 -83 0 0 101 -92 0 0 97 -92 0 0 85 -36 0 0 65 -188 0 0 59 -73 0 0 58 -73 0 0 46 -415 0 0 45 -112 0 0 44 -415 0 0
EndChar
StartChar: Q
Encoding: 81 81 52
Width: 1679
Flags: W
HStem: -29 107<714 742> 1413 107<986 1036>
Fore
742.513 -29 m 1,0,1
 399.513 -29 399.513 -29 237.43 181.5 c 128,-1,2
 75.3467 392 75.3467 392 143.963 745 c 0,3,4
 179.146 926 179.146 926 261.345 1068.5 c 128,-1,5
 343.544 1211 343.544 1211 477.314 1323 c 0,6,7
 594.363 1421 594.363 1421 729.985 1470.5 c 128,-1,8
 865.607 1520 865.607 1520 1019.61 1520 c 0,9,10
 1344.61 1520 1344.61 1520 1503.2 1307 c 128,-1,11
 1661.8 1094 1661.8 1094 1593.96 745 c 0,12,13
 1536.43 449 1536.43 449 1347.26 247.5 c 128,-1,14
 1158.09 46 1158.09 46 882.816 -12 c 1,15,16
 923.793 -79 923.793 -79 995.073 -111 c 128,-1,17
 1066.35 -143 1066.35 -143 1175.35 -143 c 2,18,-1
 1206.35 -143 l 1,19,-1
 1170.39 -328 l 1,20,21
 1002.95 -320 1002.95 -320 896.929 -245.5 c 128,-1,22
 790.91 -171 790.91 -171 742.513 -29 c 1,0,1
739.311 78 m 0,23,24
 984.311 78 984.311 78 1142.06 246.5 c 128,-1,25
 1299.82 415 1299.82 415 1363.96 745 c 0,26,27
 1428.3 1076 1428.3 1076 1336.06 1244.5 c 128,-1,28
 1243.81 1413 1243.81 1413 998.809 1413 c 0,29,30
 752.809 1413 752.809 1413 595.056 1244.5 c 128,-1,31
 437.303 1076 437.303 1076 372.963 745 c 0,32,33
 308.817 415 308.817 415 401.064 246.5 c 128,-1,34
 493.311 78 493.311 78 739.311 78 c 0,23,24
EndSplineSet
KernsSLIF: 8217 38 0 0 8221 38 0 0 46 -102 0 0 45 75 0 0 44 -102 0 0
EndChar
StartChar: R
Encoding: 82 82 53
Width: 1542
Flags: W
HStem: 0 106<-13 571 1283 1445> 694 107<516 736> 1386 107<257 427 258 960>
Fore
979.931 741 m 1,0,1
 1046.24 722 1046.24 722 1087.89 676.5 c 128,-1,2
 1129.55 631 1129.55 631 1153.61 549 c 2,3,-1
 1284.5 106 l 1,4,-1
 1466.5 106 l 1,5,-1
 1445.9 0 l 1,6,-1
 1093.9 0 l 1,7,-1
 953.226 475 l 1,8,9
 913.05 613 913.05 613 864.923 653.5 c 128,-1,10
 816.795 694 816.795 694 718.795 694 c 2,11,-1
 495.795 694 l 1,12,-1
 381.499 106 l 1,13,-1
 592.499 106 l 1,14,-1
 571.896 0 l 1,15,-1
 -32.1045 0 l 1,16,-1
 -11.501 106 l 1,17,-1
 178.499 106 l 1,18,-1
 427.307 1386 l 1,19,-1
 237.307 1386 l 1,20,-1
 258.104 1493 l 1,21,-1
 1015.1 1493 l 2,22,23
 1233.1 1493 1233.1 1493 1331.39 1389 c 128,-1,24
 1429.67 1285 1429.67 1285 1392.55 1094 c 0,25,26
 1362.61 940 1362.61 940 1258.91 851.5 c 128,-1,27
 1155.21 763 1155.21 763 979.931 741 c 1,0,1
516.594 801 m 1,28,-1
 811.594 801 l 2,29,30
 962.594 801 962.594 801 1048.49 872.5 c 128,-1,31
 1134.39 944 1134.39 944 1163.55 1094 c 0,32,33
 1192.7 1244 1192.7 1244 1134.5 1315 c 128,-1,34
 1076.31 1386 1076.31 1386 925.307 1386 c 2,35,-1
 630.307 1386 l 1,36,-1
 516.594 801 l 1,28,-1
EndSplineSet
KernsSLIF: 356 -36 0 0 253 -36 0 0 221 -63 0 0 376 -63 0 0 255 -36 0 0 8217 -112 0 0 8221 -112 0 0 248 38 0 0 230 47 0 0 229 47 0 0 227 47 0 0 228 47 0 0 226 47 0 0 224 47 0 0 225 47 0 0 121 -36 0 0 97 47 0 0 89 -63 0 0 87 -45 0 0 86 -73 0 0 84 -36 0 0
EndChar
StartChar: S
Encoding: 83 83 54
Width: 1403
Flags: W
HStem: -29 107<522 588> 1413 107<794 860>
Fore
59.085 72 m 1,0,-1
 125.174 412 l 1,1,-1
 239.979 411 l 1,2,3
 211.936 241 211.936 241 289.593 159.5 c 128,-1,4
 367.251 78 367.251 78 558.251 78 c 0,5,6
 736.251 78 736.251 78 843.455 148.5 c 128,-1,7
 950.659 219 950.659 219 976.9 354 c 0,8,9
 997.894 462 997.894 462 952.667 520 c 128,-1,10
 907.441 578 907.441 578 736.132 633 c 2,11,-1
 550.601 692 l 2,12,13
 349.235 757 349.235 757 280.59 854 c 128,-1,14
 211.945 951 211.945 951 244.796 1120 c 0,15,16
 281.728 1310 281.728 1310 437.138 1415 c 128,-1,17
 592.548 1520 592.548 1520 836.548 1520 c 0,18,19
 940.548 1520 940.548 1520 1060.17 1497.5 c 128,-1,20
 1179.8 1475 1179.8 1475 1311.44 1432 c 1,21,-1
 1249.63 1114 l 1,22,-1
 1136.63 1114 l 1,23,24
 1150.34 1272 1150.34 1272 1075.54 1342.5 c 128,-1,25
 1000.75 1413 1000.75 1413 819.749 1413 c 0,26,27
 661.749 1413 661.749 1413 566.711 1348.5 c 128,-1,28
 471.674 1284 471.674 1284 447.765 1161 c 0,29,30
 426.967 1054 426.967 1054 477.109 993 c 128,-1,31
 527.252 932 527.252 932 716.589 872 c 2,32,-1
 890.898 817 l 2,33,34
 1082.04 756 1082.04 756 1150.17 661.5 c 128,-1,35
 1218.3 567 1218.3 567 1187.4 408 c 0,36,37
 1145.22 191 1145.22 191 984.834 81 c 128,-1,38
 824.452 -29 824.452 -29 549.452 -29 c 0,39,40
 426.452 -29 426.452 -29 303.812 -4 c 128,-1,41
 181.172 21 181.172 21 59.085 72 c 1,0,-1
EndSplineSet
KernsSLIF: 350 -36 0 0 352 -36 0 0 83 -36 0 0 46 -73 0 0 45 75 0 0 44 -73 0 0
EndChar
StartChar: T
Encoding: 84 84 55
Width: 1366
Flags: W
HStem: 0 106<265 829> 1374 119<165 703 165 1344>
Fore
245.896 0 m 1,0,-1
 266.499 106 l 1,1,-1
 457.499 106 l 1,2,-1
 703.974 1374 l 1,3,-1
 264.974 1374 l 1,4,-1
 219.683 1141 l 1,5,-1
 96.6826 1141 l 1,6,-1
 165.104 1493 l 1,7,-1
 1491.1 1493 l 1,8,-1
 1422.68 1141 l 1,9,-1
 1299.68 1141 l 1,10,-1
 1344.97 1374 l 1,11,-1
 905.974 1374 l 1,12,-1
 659.499 106 l 1,13,-1
 850.499 106 l 1,14,-1
 829.896 0 l 1,15,-1
 245.896 0 l 1,0,-1
EndSplineSet
KernsSLIF: 356 38 0 0 283 -159 0 0 269 -159 0 0 263 -159 0 0 351 -149 0 0 353 -149 0 0 193 -112 0 0 194 -112 0 0 339 -159 0 0 195 -112 0 0 192 -112 0 0 248 -159 0 0 230 -159 0 0 245 -159 0 0 246 -159 0 0 244 -159 0 0 242 -159 0 0 243 -159 0 0 235 -159 0 0 234 -159 0 0 232 -159 0 0 233 -159 0 0 231 -159 0 0 229 -159 0 0 227 -159 0 0 228 -159 0 0 226 -159 0 0 224 -159 0 0 225 -159 0 0 196 -112 0 0 119 -73 0 0 115 -149 0 0 111 -159 0 0 101 -159 0 0 99 -159 0 0 97 -159 0 0 84 38 0 0 65 -112 0 0 59 -73 0 0 58 -73 0 0 46 -301 0 0 45 -264 0 0 44 -301 0 0
EndChar
StartChar: U
Encoding: 85 85 56
Width: 1726
Flags: W
HStem: -29 131<720 782.54> 1386 107<242 414 243 807 1276 1448 1277 1761>
Fore
414.125 1386 m 1,0,-1
 223.125 1386 l 1,1,-1
 243.924 1493 l 1,2,-1
 827.924 1493 l 1,3,-1
 807.125 1386 l 1,4,-1
 616.125 1386 l 1,5,-1
 466.063 614 l 2,6,7
 410.471 328 410.471 328 482.006 215 c 128,-1,8
 553.54 102 553.54 102 782.54 102 c 0,9,10
 1011.54 102 1011.54 102 1127.01 215 c 128,-1,11
 1242.47 328 1242.47 328 1298.06 614 c 2,12,-1
 1448.12 1386 l 1,13,-1
 1257.12 1386 l 1,14,-1
 1277.92 1493 l 1,15,-1
 1781.92 1493 l 1,16,-1
 1761.12 1386 l 1,17,-1
 1571.12 1386 l 1,18,-1
 1417.18 594 l 2,19,20
 1350.89 253 1350.89 253 1192.48 112 c 128,-1,21
 1034.08 -29 1034.08 -29 720.076 -29 c 0,22,23
 406.076 -29 406.076 -29 300.179 113 c 128,-1,24
 194.28 255 194.28 255 260.176 594 c 2,25,-1
 414.125 1386 l 1,0,-1
EndSplineSet
KernsSLIF: 193 -63 0 0 194 -63 0 0 195 -63 0 0 192 -63 0 0 196 -63 0 0 74 -55 0 0 65 -63 0 0 59 -73 0 0 58 -73 0 0 46 -188 0 0 45 -36 0 0 44 -188 0 0
EndChar
StartChar: V
Encoding: 86 86 57
Width: 1479
Flags: W
HStem: 0 21G<513.896 685.896> 1386 107<124 253 125 648 1215 1363 1216 1633>
Fore
482.307 1386 m 1,0,-1
 700.546 240 l 1,1,-1
 1363.31 1386 l 1,2,-1
 1195.31 1386 l 1,3,-1
 1216.1 1493 l 1,4,-1
 1654.1 1493 l 1,5,-1
 1633.31 1386 l 1,6,-1
 1488.31 1386 l 1,7,-1
 685.896 0 l 1,8,-1
 513.896 0 l 1,9,-1
 253.307 1386 l 1,10,-1
 104.307 1386 l 1,11,-1
 125.104 1493 l 1,12,-1
 669.104 1493 l 1,13,-1
 648.307 1386 l 1,14,-1
 482.307 1386 l 1,0,-1
EndSplineSet
KernsSLIF: 367 -131 0 0 283 -188 0 0 253 -83 0 0 210 -36 0 0 212 -36 0 0 211 -36 0 0 193 -139 0 0 194 -139 0 0 255 -83 0 0 8217 75 0 0 8221 75 0 0 339 -188 0 0 338 -36 0 0 213 -36 0 0 195 -139 0 0 192 -139 0 0 248 -188 0 0 230 -188 0 0 216 -36 0 0 252 -131 0 0 251 -131 0 0 249 -131 0 0 250 -131 0 0 245 -188 0 0 246 -188 0 0 244 -188 0 0 242 -188 0 0 243 -188 0 0 235 -188 0 0 234 -188 0 0 232 -188 0 0 233 -188 0 0 229 -188 0 0 227 -188 0 0 228 -188 0 0 226 -188 0 0 224 -188 0 0 225 -188 0 0 214 -36 0 0 196 -139 0 0 121 -83 0 0 117 -131 0 0 111 -188 0 0 105 -36 0 0 101 -188 0 0 97 -188 0 0 79 -36 0 0 65 -139 0 0 59 -206 0 0 58 -206 0 0 46 -358 0 0 45 -188 0 0 44 -358 0 0
EndChar
StartChar: W
Encoding: 87 87 58
Width: 2105
Flags: W
HStem: 0 21G<403.896 567.896 1251.9 1415.9> 1386 107<154 282 155 679 1813 1965 1814 2223>
Fore
1415.9 0 m 1,0,-1
 1251.9 0 l 1,1,-1
 1145.87 1214 l 1,2,-1
 567.896 0 l 1,3,-1
 403.896 0 l 1,4,-1
 282.307 1386 l 1,5,-1
 134.307 1386 l 1,6,-1
 155.104 1493 l 1,7,-1
 700.104 1493 l 1,8,-1
 679.307 1386 l 1,9,-1
 493.307 1386 l 1,10,-1
 589.904 283 l 1,11,-1
 1165.1 1493 l 1,12,-1
 1327.1 1493 l 1,13,-1
 1435.38 270 l 1,14,-1
 1965.31 1386 l 1,15,-1
 1793.31 1386 l 1,16,-1
 1814.1 1493 l 1,17,-1
 2244.1 1493 l 1,18,-1
 2223.31 1386 l 1,19,-1
 2076.31 1386 l 1,20,-1
 1415.9 0 l 1,0,-1
EndSplineSet
KernsSLIF: 252 -83 0 0 229 -178 0 0 230 -139 0 0 59 -178 0 0 242 -139 0 0 45 -149 0 0 46 -358 0 0 367 -83 0 0 245 -139 0 0 235 -167 0 0 249 -83 0 0 44 -358 0 0 224 -178 0 0 195 -102 0 0 234 -167 0 0 341 -92 0 0 8221 38 0 0 232 -167 0 0 196 -102 0 0 193 -102 0 0 8217 38 0 0 251 -83 0 0 253 -45 0 0 227 -178 0 0 194 -102 0 0 248 -139 0 0 244 -139 0 0 65 -102 0 0 97 -178 0 0 228 -178 0 0 246 -139 0 0 250 -83 0 0 225 -178 0 0 345 -92 0 0 226 -178 0 0 233 -167 0 0 283 -167 0 0 101 -167 0 0 105 -36 0 0 339 -139 0 0 255 -45 0 0 111 -139 0 0 114 -92 0 0 117 -83 0 0 192 -102 0 0 121 -45 0 0 58 -178 0 0 243 -139 0 0
EndChar
StartChar: X
Encoding: 88 88 59
Width: 1458
Flags: W
HStem: 0 106<-114 360 730 1302> 1386 107<162 302 163 734 1035 1207 1036 1504>
Fore
657.104 639 m 1,0,-1
 188.499 106 l 1,1,-1
 381.499 106 l 1,2,-1
 360.896 0 l 1,3,-1
 -133.104 0 l 1,4,-1
 -112.501 106 l 1,5,-1
 59.499 106 l 1,6,-1
 611.376 733 l 1,7,-1
 302.307 1386 l 1,8,-1
 142.307 1386 l 1,9,-1
 163.104 1493 l 1,10,-1
 755.104 1493 l 1,11,-1
 734.307 1386 l 1,12,-1
 558.307 1386 l 1,13,-1
 784.81 905 l 1,14,-1
 1207.31 1386 l 1,15,-1
 1015.31 1386 l 1,16,-1
 1036.1 1493 l 1,17,-1
 1525.1 1493 l 1,18,-1
 1504.31 1386 l 1,19,-1
 1336.31 1386 l 1,20,-1
 829.537 811 l 1,21,-1
 1163.5 106 l 1,22,-1
 1323.5 106 l 1,23,-1
 1302.9 0 l 1,24,-1
 710.896 0 l 1,25,-1
 731.499 106 l 1,26,-1
 909.499 106 l 1,27,-1
 657.104 639 l 1,0,-1
EndSplineSet
KernsSLIF: 268 -36 0 0 262 -36 0 0 210 -36 0 0 212 -36 0 0 211 -36 0 0 193 -73 0 0 194 -73 0 0 338 -36 0 0 213 -36 0 0 195 -73 0 0 192 -73 0 0 216 -36 0 0 214 -36 0 0 199 -36 0 0 196 -73 0 0 79 -36 0 0 67 -36 0 0 65 -73 0 0 45 -73 0 0
EndChar
StartChar: Y
Encoding: 89 89 60
Width: 1352
Flags: W
HStem: 0 106<261 825> 1386 107<121 241 122 656 1080 1228 1081 1494>
Fore
241.896 0 m 1,0,-1
 262.499 106 l 1,1,-1
 453.499 106 l 1,2,-1
 557.882 643 l 1,3,-1
 241.307 1386 l 1,4,-1
 101.307 1386 l 1,5,-1
 122.104 1493 l 1,6,-1
 677.104 1493 l 1,7,-1
 656.307 1386 l 1,8,-1
 482.307 1386 l 1,9,-1
 737.9 782 l 1,10,-1
 1228.31 1386 l 1,11,-1
 1060.31 1386 l 1,12,-1
 1081.1 1493 l 1,13,-1
 1515.1 1493 l 1,14,-1
 1494.31 1386 l 1,15,-1
 1353.31 1386 l 1,16,-1
 763.575 662 l 1,17,-1
 655.499 106 l 1,18,-1
 846.499 106 l 1,19,-1
 825.896 0 l 1,20,-1
 241.896 0 l 1,0,-1
EndSplineSet
KernsSLIF: 367 -178 0 0 283 -178 0 0 268 -36 0 0 262 -36 0 0 193 -159 0 0 194 -159 0 0 339 -215 0 0 195 -159 0 0 192 -159 0 0 248 -178 0 0 230 -196 0 0 252 -178 0 0 251 -178 0 0 249 -178 0 0 250 -178 0 0 245 -178 0 0 246 -178 0 0 244 -178 0 0 242 -178 0 0 243 -178 0 0 235 -178 0 0 234 -178 0 0 232 -178 0 0 233 -178 0 0 229 -159 0 0 227 -159 0 0 228 -159 0 0 226 -159 0 0 224 -159 0 0 225 -159 0 0 199 -36 0 0 196 -159 0 0 117 -178 0 0 111 -178 0 0 105 -36 0 0 101 -178 0 0 97 -159 0 0 67 -36 0 0 65 -159 0 0 59 -253 0 0 58 -253 0 0 46 -264 0 0 45 -225 0 0 44 -264 0 0
EndChar
StartChar: Z
Encoding: 90 90 61
Width: 1423
Flags: W
HStem: 0 123<255 1197> 1370 123<272 1143>
Fore
-53.1045 0 m 1,0,-1
 -39.1094 72 l 1,1,-1
 1143.2 1370 l 1,2,-1
 371.196 1370 l 1,3,-1
 327.85 1147 l 1,4,-1
 204.85 1147 l 1,5,-1
 272.104 1493 l 1,6,-1
 1452.1 1493 l 1,7,-1
 1438.11 1421 l 1,8,-1
 255.804 123 l 1,9,-1
 1099.8 123 l 1,10,-1
 1140.43 332 l 1,11,-1
 1262.43 332 l 1,12,-1
 1197.9 0 l 1,13,-1
 -53.1045 0 l 1,0,-1
EndSplineSet
KernsSLIF: 46 -36 0 0 44 -36 0 0
EndChar
StartChar: bracketleft
Encoding: 91 91 62
Width: 799
Flags: W
HStem: -270 106<210 463> 1450 106<353 797>
Fore
353.469 1556 m 1,0,-1
 818.469 1556 l 1,1,-1
 797.865 1450 l 1,2,-1
 523.865 1450 l 1,3,-1
 210.135 -164 l 1,4,-1
 484.135 -164 l 1,5,-1
 463.531 -270 l 1,6,-1
 -1.46875 -270 l 1,7,-1
 353.469 1556 l 1,0,-1
EndSplineSet
EndChar
StartChar: backslash
Encoding: 92 92 63
Width: 690
Flags: W
HStem: 1473 20G<163.571 323.571>
Fore
323.571 1493 m 1,0,-1
 526.429 -190 l 1,1,-1
 366.429 -190 l 1,2,-1
 163.571 1493 l 1,3,-1
 323.571 1493 l 1,0,-1
EndSplineSet
EndChar
StartChar: bracketright
Encoding: 93 93 64
Width: 799
Flags: W
HStem: -270 106<1.13477 445.531> 1450 106<335.469 800.469>
Fore
800.469 1556 m 1,0,-1
 445.531 -270 l 1,1,-1
 -19.4688 -270 l 1,2,-1
 1.13477 -164 l 1,3,-1
 275.135 -164 l 1,4,-1
 588.865 1450 l 1,5,-1
 314.865 1450 l 1,6,-1
 335.469 1556 l 1,7,-1
 800.469 1556 l 1,0,-1
EndSplineSet
EndChar
StartChar: asciicircum
Encoding: 94 94 65
Width: 1716
Flags: W
HStem: 1473 20G<814.135 1010.13>
Fore
1010.13 1493 m 1,0,-1
 1444.87 936 l 1,1,-1
 1291.87 936 l 1,2,-1
 877.924 1317 l 1,3,-1
 316.865 936 l 1,4,-1
 162.865 936 l 1,5,-1
 814.135 1493 l 1,6,-1
 1010.13 1493 l 1,0,-1
EndSplineSet
EndChar
StartChar: underscore
Encoding: 95 95 66
Width: 1024
Flags: W
HStem: -483 80<6 1016>
Fore
1031.78 -403 m 1,0,-1
 1016.22 -483 l 1,1,-1
 -7.77539 -483 l 1,2,-1
 7.77539 -403 l 1,3,-1
 1031.78 -403 l 1,0,-1
EndSplineSet
EndChar
StartChar: grave
Encoding: 96 96 67
Width: 1024
Flags: HW
Fore
564 1636 m 1,0,-1
 750 1260 l 1,1,-1
 633 1260 l 1,2,-1
 367 1636 l 1,3,-1
 564 1636 l 1,0,-1
EndSplineSet
EndChar
StartChar: a
Encoding: 97 97 68
Width: 1221
Flags: W
HStem: -29 107<378.05 470.849> 0 106<916 1059> 559 107<583 820> 993 99<622 657>
Fore
776.61 334 m 2,0,-1
 820.346 559 l 1,1,-1
 583.346 559 l 2,2,3
 446.346 559 446.346 559 367.877 500 c 128,-1,4
 289.408 441 289.408 441 265.694 319 c 0,5,6
 244.118 208 244.118 208 299.483 143 c 128,-1,7
 354.849 78 354.849 78 470.849 78 c 0,8,9
 585.849 78 585.849 78 670.149 149 c 128,-1,10
 754.45 220 754.45 220 776.61 334 c 2,0,-1
1024.76 664 m 2,11,-1
 916.291 106 l 1,12,-1
 1080.29 106 l 1,13,-1
 1059.69 0 l 1,14,-1
 711.687 0 l 1,15,-1
 734.041 115 l 1,16,17
 658.656 41 658.656 41 571.854 6 c 128,-1,18
 485.05 -29 485.05 -29 378.05 -29 c 0,19,20
 201.05 -29 201.05 -29 115.321 65 c 128,-1,21
 29.5938 159 29.5938 159 60.6943 319 c 0,22,23
 92.7666 484 92.7666 484 229.455 575 c 128,-1,24
 366.145 666 366.145 666 583.145 666 c 2,25,-1
 841.145 666 l 1,26,-1
 855.334 739 l 2,27,28
 878.854 860 878.854 860 818.28 926.5 c 128,-1,29
 757.707 993 757.707 993 624.706 993 c 0,30,31
 514.707 993 514.707 993 439.987 943 c 128,-1,32
 365.269 893 365.269 893 330.219 795 c 1,33,-1
 235.219 795 l 1,34,-1
 277.011 1010 l 1,35,36
 380.98 1051 380.98 1051 475.466 1071.5 c 128,-1,37
 569.95 1092 569.95 1092 655.95 1092 c 0,38,39
 876.95 1092 876.95 1092 971.165 982.5 c 128,-1,40
 1065.38 873 1065.38 873 1024.76 664 c 2,11,-1
EndSplineSet
EndChar
StartChar: b
Encoding: 98 98 69
Width: 1311
Flags: W
HStem: -29 115<575 609.953> 0 106<-70 271> 977 115<748.5 827.854> 1450 106<212 369>
Fore
108.195 106 m 1,0,-1
 369.442 1450 l 1,1,-1
 192.442 1450 l 1,2,-1
 213.047 1556 l 1,3,-1
 574.047 1556 l 1,4,-1
 445.95 897 l 1,5,6
 519.388 997 519.388 997 612.121 1044.5 c 128,-1,7
 704.854 1092 704.854 1092 827.854 1092 c 0,8,9
 1023.85 1092 1023.85 1092 1117.72 937 c 128,-1,10
 1211.6 782 1211.6 782 1163 532 c 0,11,12
 1114.41 282 1114.41 282 960.18 126.5 c 128,-1,13
 805.953 -29 805.953 -29 609.953 -29 c 0,14,15
 486.953 -29 486.953 -29 412.687 18.5 c 128,-1,16
 338.42 66 338.42 66 303.857 166 c 1,17,-1
 271.591 0 l 1,18,-1
 -89.4092 0 l 1,19,-1
 -68.8047 106 l 1,20,-1
 108.195 106 l 1,0,-1
364.699 479 m 2,21,22
 327.378 287 327.378 287 381.343 186.5 c 128,-1,23
 435.308 86 435.308 86 575.308 86 c 0,24,25
 716.308 86 716.308 86 810.772 199 c 128,-1,26
 905.237 312 905.237 312 948.001 532 c 0,27,28
 990.959 753 990.959 753 940.229 865 c 128,-1,29
 889.5 977 889.5 977 748.5 977 c 0,30,31
 608.5 977 608.5 977 515.368 876 c 128,-1,32
 422.235 775 422.235 775 385.108 584 c 2,33,-1
 364.699 479 l 2,21,22
EndSplineSet
EndChar
StartChar: c
Encoding: 99 99 70
Width: 1147
Flags: W
HStem: -29 99<501 535> 993 99<693 732>
Fore
1011.69 319 m 1,0,1
 939.649 149 939.649 149 811.35 60 c 128,-1,2
 683.05 -29 683.05 -29 507.05 -29 c 0,3,4
 275.05 -29 275.05 -29 163.888 124.5 c 128,-1,5
 52.7246 278 52.7246 278 102.098 532 c 0,6,7
 151.664 787 151.664 787 322.308 939.5 c 128,-1,8
 492.95 1092 492.95 1092 724.95 1092 c 0,9,10
 825.95 1092 825.95 1092 921.382 1068.5 c 128,-1,11
 1016.81 1045 1016.81 1045 1108.48 997 c 1,12,-1
 1055.61 725 l 1,13,-1
 948.612 725 l 1,14,15
 954.826 865 954.826 865 896.767 929 c 128,-1,16
 838.707 993 838.707 993 707.706 993 c 0,17,18
 558.707 993 558.707 993 460.256 877.5 c 128,-1,19
 361.805 762 361.805 762 317.098 532 c 0,20,21
 272.39 302 272.39 302 325.342 186 c 128,-1,22
 378.294 70 378.294 70 528.294 70 c 0,23,24
 647.294 70 647.294 70 730.345 132 c 128,-1,25
 813.396 194 813.396 194 863.694 319 c 1,26,-1
 1011.69 319 l 1,0,1
EndSplineSet
EndChar
StartChar: d
Encoding: 100 100 71
Width: 1311
Flags: W
HStem: -29 115<392.953 472.308> 0 106<947 1102> 977 115<610 645> 1450 106<870 1024>
Fore
947.195 106 m 1,0,-1
 1123.2 106 l 1,1,-1
 1102.59 0 l 1,2,-1
 742.591 0 l 1,3,-1
 774.857 166 l 1,4,5
 701.42 66 701.42 66 608.687 18.5 c 128,-1,6
 515.953 -29 515.953 -29 392.953 -29 c 0,7,8
 196.953 -29 196.953 -29 102.68 126.5 c 128,-1,9
 8.40625 282 8.40625 282 57.001 532 c 0,10,11
 105.596 782 105.596 782 259.725 937 c 128,-1,12
 413.854 1092 413.854 1092 610.854 1092 c 0,13,14
 733.854 1092 733.854 1092 808.121 1044.5 c 128,-1,15
 882.388 997 882.388 997 916.95 897 c 1,16,-1
 1024.44 1450 l 1,17,-1
 850.442 1450 l 1,18,-1
 871.047 1556 l 1,19,-1
 1229.05 1556 l 1,20,-1
 947.195 106 l 1,0,-1
835.699 479 m 2,21,-1
 856.108 584 l 2,22,23
 893.235 775 893.235 775 839.368 876 c 128,-1,24
 785.5 977 785.5 977 645.5 977 c 0,25,26
 503.5 977 503.5 977 409.229 865 c 128,-1,27
 314.959 753 314.959 753 272.001 532 c 0,28,29
 229.237 312 229.237 312 279.772 199 c 128,-1,30
 330.308 86 330.308 86 472.308 86 c 0,31,32
 612.308 86 612.308 86 705.343 186.5 c 128,-1,33
 798.378 287 798.378 287 835.699 479 c 2,21,-1
EndSplineSet
EndChar
StartChar: e
Encoding: 101 101 72
Width: 1212
Flags: W
HStem: -29 99<509 549> 512 106<333 1106> 993 99<693 716>
Fore
1106.21 512 m 1,0,-1
 313.21 512 l 1,1,-1
 311.654 504 l 2,2,3
 269.862 289 269.862 289 329.578 179.5 c 128,-1,4
 389.294 70 389.294 70 547.294 70 c 0,5,6
 668.294 70 668.294 70 758.137 133.5 c 128,-1,7
 847.979 197 847.979 197 903.277 322 c 1,8,-1
 1051.28 322 l 1,9,10
 973.261 147 973.261 147 837.655 59 c 128,-1,11
 702.05 -29 702.05 -29 509.05 -29 c 0,12,13
 276.05 -29 276.05 -29 164.388 124.5 c 128,-1,14
 52.7246 278 52.7246 278 102.098 532 c 0,15,16
 151.081 784 151.081 784 320.016 938 c 128,-1,17
 488.95 1092 488.95 1092 714.95 1092 c 0,18,19
 955.95 1092 955.95 1092 1056.08 943.5 c 128,-1,20
 1156.22 795 1156.22 795 1106.21 512 c 1,0,-1
909.813 618 m 1,21,22
 939.969 804 939.969 804 885.838 898.5 c 128,-1,23
 831.707 993 831.707 993 695.706 993 c 0,24,25
 568.707 993 568.707 993 477.24 898 c 128,-1,26
 385.774 803 385.774 803 333.813 618 c 1,27,-1
 909.813 618 l 1,21,22
EndSplineSet
EndChar
StartChar: f
Encoding: 102 102 73
Width: 758
Flags: W
HStem: 0 106<-58 518> 956 107<128 284 489 765> 1458 98<737 771>
Fore
983.438 1305 m 1,0,-1
 886.438 1305 l 1,1,2
 900.017 1380 900.017 1380 866.098 1419 c 128,-1,3
 832.179 1458 832.179 1458 753.179 1458 c 0,4,5
 650.179 1458 650.179 1458 597.196 1401.5 c 128,-1,6
 544.214 1345 544.214 1345 516.028 1200 c 2,7,-1
 489.398 1063 l 1,8,-1
 786.398 1063 l 1,9,-1
 765.6 956 l 1,10,-1
 468.6 956 l 1,11,-1
 303.376 106 l 1,12,-1
 539.376 106 l 1,13,-1
 518.772 0 l 1,14,-1
 -77.2275 0 l 1,15,-1
 -56.624 106 l 1,16,-1
 119.376 106 l 1,17,-1
 284.6 956 l 1,18,-1
 108.6 956 l 1,19,-1
 129.398 1063 l 1,20,-1
 305.398 1063 l 1,21,-1
 331.251 1196 l 2,22,23
 365.851 1374 365.851 1374 476.039 1465 c 128,-1,24
 586.228 1556 586.228 1556 765.228 1556 c 0,25,26
 832.228 1556 832.228 1556 896.896 1544 c 128,-1,27
 961.562 1532 961.562 1532 1022.7 1507 c 1,28,-1
 983.438 1305 l 1,0,-1
EndSplineSet
KernsSLIF: 8217 151 0 0 8221 151 0 0 8220 38 0 0 46 -73 0 0 45 -73 0 0 44 -73 0 0
EndChar
StartChar: g
Encoding: 103 103 74
Width: 1311
Flags: W
HStem: -455 99<420 481> -29 115<479.453 558.807> 956 107<1035 1374> 977 115<697 733>
Fore
1198.92 956 m 1,0,-1
 1017.56 23 l 2,1,2
 973.048 -206 973.048 -206 822.848 -330.5 c 128,-1,3
 672.646 -455 672.646 -455 439.646 -455 c 0,4,5
 334.646 -455 334.646 -455 242.34 -436 c 128,-1,6
 150.033 -417 150.033 -417 69.4199 -379 c 1,7,-1
 112.767 -156 l 1,8,-1
 208.767 -156 l 1,9,10
 206.551 -260 206.551 -260 264.221 -308 c 128,-1,11
 321.891 -356 321.891 -356 446.891 -356 c 0,12,13
 608.891 -356 608.891 -356 702.177 -264.5 c 128,-1,14
 795.462 -173 795.462 -173 833.561 23 c 2,15,-1
 861.357 166 l 1,16,17
 787.919 66 787.919 66 695.186 18.5 c 128,-1,18
 602.453 -29 602.453 -29 479.453 -29 c 0,19,20
 283.453 -29 283.453 -29 189.179 126.5 c 128,-1,21
 94.9053 282 94.9053 282 143.5 532 c 0,22,23
 192.096 782 192.096 782 346.225 937 c 128,-1,24
 500.354 1092 500.354 1092 697.354 1092 c 0,25,26
 820.354 1092 820.354 1092 894.62 1044.5 c 128,-1,27
 968.887 997 968.887 997 1003.45 897 c 1,28,-1
 1035.72 1063 l 1,29,-1
 1395.72 1063 l 1,30,-1
 1374.92 956 l 1,31,-1
 1198.92 956 l 1,0,-1
942.608 584 m 2,32,33
 979.734 775 979.734 775 925.867 876 c 128,-1,34
 871.999 977 871.999 977 731.999 977 c 0,35,36
 589.999 977 589.999 977 495.729 865 c 128,-1,37
 401.458 753 401.458 753 358.5 532 c 0,38,39
 315.736 312 315.736 312 366.271 199 c 128,-1,40
 416.807 86 416.807 86 558.807 86 c 0,41,42
 698.807 86 698.807 86 791.842 186.5 c 128,-1,43
 884.877 287 884.877 287 922.198 479 c 2,44,-1
 942.608 584 l 2,32,33
EndSplineSet
EndChar
StartChar: h
Encoding: 104 104 75
Width: 1319
Flags: W
HStem: 0 106<-48 442 622 1110> 956 136<730.6 817.035> 1450 106<224 380>
Fore
-67.2275 0 m 1,0,-1
 -46.624 106 l 1,1,-1
 119.376 106 l 1,2,-1
 380.624 1450 l 1,3,-1
 204.624 1450 l 1,4,-1
 225.228 1556 l 1,5,-1
 585.228 1556 l 1,6,-1
 452.66 874 l 1,7,8
 524.653 982 524.653 982 616.845 1037 c 128,-1,9
 709.035 1092 709.035 1092 817.035 1092 c 0,10,11
 993.035 1092 993.035 1092 1056.4 991 c 128,-1,12
 1119.77 890 1119.77 890 1078.17 676 c 2,13,-1
 967.376 106 l 1,14,-1
 1131.38 106 l 1,15,-1
 1110.77 0 l 1,16,-1
 602.772 0 l 1,17,-1
 623.376 106 l 1,18,-1
 782.376 106 l 1,19,-1
 881.899 618 l 2,20,21
 919.804 813 919.804 813 886.201 884.5 c 128,-1,22
 852.6 956 852.6 956 730.6 956 c 0,23,24
 602.6 956 602.6 956 517.522 863 c 128,-1,25
 432.445 770 432.445 770 397.846 592 c 2,26,-1
 303.376 106 l 1,27,-1
 463.376 106 l 1,28,-1
 442.772 0 l 1,29,-1
 -67.2275 0 l 1,0,-1
EndSplineSet
EndChar
StartChar: i
Encoding: 105 105 76
Width: 655
Flags: W
HStem: 0 106<-53 461> 956 107<133 289> 1280 227<415.341 459.466>
Fore
323.307 1393 m 0,0,1
 332.248 1439 332.248 1439 372.356 1473 c 128,-1,2
 412.466 1507 412.466 1507 459.466 1507 c 0,3,4
 505.466 1507 505.466 1507 532.356 1473 c 128,-1,5
 559.248 1439 559.248 1439 550.307 1393 c 0,6,7
 541.17 1346 541.17 1346 501.756 1313 c 128,-1,8
 462.341 1280 462.341 1280 415.341 1280 c 0,9,10
 368.341 1280 368.341 1280 341.256 1313 c 128,-1,11
 314.17 1346 314.17 1346 323.307 1393 c 0,0,1
308.139 106 m 1,12,-1
 482.139 106 l 1,13,-1
 461.534 0 l 1,14,-1
 -72.4658 0 l 1,15,-1
 -51.8613 106 l 1,16,-1
 124.139 106 l 1,17,-1
 289.362 956 l 1,18,-1
 113.362 956 l 1,19,-1
 134.161 1063 l 1,20,-1
 494.161 1063 l 1,21,-1
 308.139 106 l 1,12,-1
EndSplineSet
EndChar
StartChar: j
Encoding: 106 106 77
Width: 635
Flags: W
HStem: -455 99<-123 -97> 956 107<179 333> 1280 227<465.562 509.688>
Fore
373.527 1393 m 0,0,1
 382.469 1439 382.469 1439 422.578 1473 c 128,-1,2
 462.688 1507 462.688 1507 509.688 1507 c 0,3,4
 555.688 1507 555.688 1507 582.578 1473 c 128,-1,5
 609.469 1439 609.469 1439 600.527 1393 c 0,6,7
 591.392 1346 591.392 1346 552.478 1313 c 128,-1,8
 513.562 1280 513.562 1280 465.562 1280 c 0,9,10
 418.562 1280 418.562 1280 391.478 1313 c 128,-1,11
 364.392 1346 364.392 1346 373.527 1393 c 0,0,1
333.584 956 m 1,12,-1
 159.584 956 l 1,13,-1
 180.382 1063 l 1,14,-1
 538.382 1063 l 1,15,-1
 311.54 -104 l 2,16,17
 279.662 -268 279.662 -268 163.987 -361.5 c 128,-1,18
 48.3125 -455 48.3125 -455 -122.688 -455 c 0,19,20
 -194.688 -455 -194.688 -455 -256.979 -438.5 c 128,-1,21
 -319.272 -422 -319.272 -422 -374.858 -389 c 1,22,-1
 -332.289 -170 l 1,23,-1
 -237.289 -170 l 1,24,25
 -248.949 -266 -248.949 -266 -215.196 -311 c 128,-1,26
 -181.443 -356 -181.443 -356 -99.4434 -356 c 0,27,28
 -8.44336 -356 -8.44336 -356 47.0107 -294.5 c 128,-1,29
 102.466 -233 102.466 -233 127.54 -104 c 2,30,-1
 333.584 956 l 1,12,-1
EndSplineSet
EndChar
StartChar: k
Encoding: 107 107 78
Width: 1241
Flags: W
HStem: 0 106<-62 434 599 1103> 956 107<769 902 770 1230> 1450 106<209 366>
Fore
434.772 0 m 1,0,-1
 -81.2275 0 l 1,1,-1
 -60.624 106 l 1,2,-1
 105.376 106 l 1,3,-1
 366.624 1450 l 1,4,-1
 189.624 1450 l 1,5,-1
 210.228 1556 l 1,6,-1
 571.228 1556 l 1,7,-1
 374.32 543 l 1,8,-1
 902.6 956 l 1,9,-1
 749.6 956 l 1,10,-1
 770.398 1063 l 1,11,-1
 1251.4 1063 l 1,12,-1
 1230.6 956 l 1,13,-1
 1048.6 956 l 1,14,-1
 675.841 664 l 1,15,-1
 971.376 106 l 1,16,-1
 1124.38 106 l 1,17,-1
 1103.77 0 l 1,18,-1
 579.772 0 l 1,19,-1
 600.376 106 l 1,20,-1
 752.376 106 l 1,21,-1
 519.32 543 l 1,22,-1
 348.079 408 l 1,23,-1
 289.376 106 l 1,24,-1
 455.376 106 l 1,25,-1
 434.772 0 l 1,0,-1
EndSplineSet
KernsSLIF: 45 -36 0 0
EndChar
StartChar: l
Encoding: 108 108 79
Width: 655
Flags: W
HStem: 0 106<-73 442> 1450 106<209 366>
Fore
289.376 106 m 1,0,-1
 463.376 106 l 1,1,-1
 442.772 0 l 1,2,-1
 -92.2275 0 l 1,3,-1
 -71.624 106 l 1,4,-1
 105.376 106 l 1,5,-1
 366.624 1450 l 1,6,-1
 189.624 1450 l 1,7,-1
 210.228 1556 l 1,8,-1
 571.228 1556 l 1,9,-1
 289.376 106 l 1,0,-1
EndSplineSet
EndChar
StartChar: m
Encoding: 109 109 80
Width: 1942
Flags: W
HStem: 0 106<-3 487 646 1130 1289 1779> 956 136<765.696 849.132 1408.7 1495.13> 958 105<173 330>
Fore
1121.26 856 m 1,0,1
 1197 973 1197 973 1291.07 1032.5 c 128,-1,2
 1385.13 1092 1385.13 1092 1495.13 1092 c 0,3,4
 1662.13 1092 1662.13 1092 1724.01 988.5 c 128,-1,5
 1785.89 885 1785.89 885 1745.27 676 c 2,6,-1
 1634.47 106 l 1,7,-1
 1800.47 106 l 1,8,-1
 1779.87 0 l 1,9,-1
 1269.87 0 l 1,10,-1
 1290.47 106 l 1,11,-1
 1450.47 106 l 1,12,-1
 1557.19 655 l 2,13,14
 1588.87 818 1588.87 818 1554.28 887 c 128,-1,15
 1519.7 956 1519.7 956 1408.7 956 c 0,16,17
 1285.7 956 1285.7 956 1203.12 863 c 128,-1,18
 1120.54 770 1120.54 770 1085.94 592 c 2,19,-1
 991.473 106 l 1,20,-1
 1151.47 106 l 1,21,-1
 1130.87 0 l 1,22,-1
 626.868 0 l 1,23,-1
 647.473 106 l 1,24,-1
 807.473 106 l 1,25,-1
 915.548 662 l 2,26,27
 946.455 821 946.455 821 911.575 888.5 c 128,-1,28
 876.696 956 876.696 956 765.696 956 c 0,29,30
 642.696 956 642.696 956 560.118 863 c 128,-1,31
 477.541 770 477.541 770 442.941 592 c 2,32,-1
 348.473 106 l 1,33,-1
 508.473 106 l 1,34,-1
 487.868 0 l 1,35,-1
 -22.1318 0 l 1,36,-1
 -1.52734 106 l 1,37,-1
 164.473 106 l 1,38,-1
 330.085 958 l 1,39,-1
 154.085 958 l 1,40,-1
 174.494 1063 l 1,41,-1
 534.494 1063 l 1,42,-1
 497.757 874 l 1,43,44
 569.361 980 569.361 980 659.246 1036 c 128,-1,45
 749.132 1092 749.132 1092 849.132 1092 c 0,46,47
 973.132 1092 973.132 1092 1044.18 1030.5 c 128,-1,48
 1115.22 969 1115.22 969 1121.26 856 c 1,0,1
EndSplineSet
EndChar
StartChar: n
Encoding: 110 110 81
Width: 1319
Flags: W
HStem: 0 106<-3 487 667 1155> 956 107<173 329> 958 134<776.085 862.132>
Fore
-22.1318 0 m 1,0,-1
 -1.52734 106 l 1,1,-1
 164.473 106 l 1,2,-1
 329.696 956 l 1,3,-1
 153.696 956 l 1,4,-1
 174.494 1063 l 1,5,-1
 534.494 1063 l 1,6,-1
 497.757 874 l 1,7,8
 569.75 982 569.75 982 661.94 1037 c 128,-1,9
 754.132 1092 754.132 1092 862.132 1092 c 0,10,11
 1038.13 1092 1038.13 1092 1101.5 991 c 128,-1,12
 1164.87 890 1164.87 890 1123.27 676 c 2,13,-1
 1012.47 106 l 1,14,-1
 1176.47 106 l 1,15,-1
 1155.87 0 l 1,16,-1
 647.868 0 l 1,17,-1
 668.473 106 l 1,18,-1
 827.473 106 l 1,19,-1
 926.995 618 l 2,20,21
 964.899 813 964.899 813 930.992 885.5 c 128,-1,22
 897.085 958 897.085 958 776.085 958 c 0,23,24
 648.085 958 648.085 958 562.91 864.5 c 128,-1,25
 477.735 771 477.735 771 442.941 592 c 2,26,-1
 348.473 106 l 1,27,-1
 508.473 106 l 1,28,-1
 487.868 0 l 1,29,-1
 -22.1318 0 l 1,0,-1
EndSplineSet
EndChar
StartChar: o
Encoding: 111 111 82
Width: 1233
Flags: W
HStem: -29 99<501 535> 993 99<693 726>
Fore
526.294 70 m 0,0,1
 674.294 70 674.294 70 772.536 187 c 128,-1,2
 870.778 304 870.778 304 915.098 532 c 0,3,4
 959.416 760 959.416 760 906.562 876.5 c 128,-1,5
 853.707 993 853.707 993 705.706 993 c 0,6,7
 557.707 993 557.707 993 459.562 876.5 c 128,-1,8
 361.416 760 361.416 760 317.098 532 c 0,9,10
 272.778 304 272.778 304 326.036 187 c 128,-1,11
 379.294 70 379.294 70 526.294 70 c 0,0,1
507.05 -29 m 0,12,13
 275.05 -29 275.05 -29 163.888 124.5 c 128,-1,14
 52.7246 278 52.7246 278 102.098 532 c 0,15,16
 151.47 786 151.47 786 321.71 939 c 128,-1,17
 491.95 1092 491.95 1092 724.95 1092 c 0,18,19
 957.95 1092 957.95 1092 1068.71 939 c 128,-1,20
 1179.47 786 1179.47 786 1130.1 532 c 0,21,22
 1080.72 278 1080.72 278 910.388 124.5 c 128,-1,23
 740.05 -29 740.05 -29 507.05 -29 c 0,12,13
EndSplineSet
KernsSLIF: 46 -36 0 0
EndChar
StartChar: p
Encoding: 112 112 83
Width: 1311
Flags: W
HStem: -426 107<-69 446> -29 115<658 693.635> 956 107<199 357> 977 115<832.181 911.534>
Fore
468.789 584 m 2,0,-1
 448.38 479 l 2,1,2
 411.059 287 411.059 287 465.023 186.5 c 128,-1,3
 518.988 86 518.988 86 658.988 86 c 0,4,5
 799.988 86 799.988 86 894.453 199 c 128,-1,6
 988.918 312 988.918 312 1031.68 532 c 0,7,8
 1074.64 753 1074.64 753 1023.91 865 c 128,-1,9
 973.181 977 973.181 977 832.181 977 c 0,10,11
 692.181 977 692.181 977 599.049 876 c 128,-1,12
 505.916 775 505.916 775 468.789 584 c 2,0,-1
357.099 956 m 1,13,-1
 180.099 956 l 1,14,-1
 200.897 1063 l 1,15,-1
 561.897 1063 l 1,16,-1
 529.631 897 l 1,17,18
 603.068 997 603.068 997 695.802 1044.5 c 128,-1,19
 788.535 1092 788.535 1092 911.534 1092 c 0,20,21
 1107.53 1092 1107.53 1092 1201.41 937 c 128,-1,22
 1295.28 782 1295.28 782 1246.68 532 c 0,23,24
 1198.09 282 1198.09 282 1043.86 126.5 c 128,-1,25
 889.635 -29 889.635 -29 693.635 -29 c 0,26,27
 570.635 -29 570.635 -29 496.367 18.5 c 128,-1,28
 422.101 66 422.101 66 387.538 166 c 1,29,-1
 293.264 -319 l 1,30,-1
 467.264 -319 l 1,31,-1
 446.466 -426 l 1,32,-1
 -88.5342 -426 l 1,33,-1
 -67.7363 -319 l 1,34,-1
 109.264 -319 l 1,35,-1
 357.099 956 l 1,13,-1
EndSplineSet
EndChar
StartChar: q
Encoding: 113 113 84
Width: 1311
Flags: W
HStem: -426 107<589 1103> -29 115<476.635 555.988> 956 107<1032 1372> 977 115<694 729>
Fore
1196.1 956 m 1,0,-1
 948.264 -319 l 1,1,-1
 1124.26 -319 l 1,2,-1
 1103.47 -426 l 1,3,-1
 569.466 -426 l 1,4,-1
 590.264 -319 l 1,5,-1
 764.264 -319 l 1,6,-1
 858.538 166 l 1,7,8
 785.101 66 785.101 66 692.367 18.5 c 128,-1,9
 599.635 -29 599.635 -29 476.635 -29 c 0,10,11
 280.635 -29 280.635 -29 186.36 126.5 c 128,-1,12
 92.0869 282 92.0869 282 140.682 532 c 0,13,14
 189.276 782 189.276 782 343.405 937 c 128,-1,15
 497.535 1092 497.535 1092 694.534 1092 c 0,16,17
 817.535 1092 817.535 1092 891.802 1044.5 c 128,-1,18
 966.068 997 966.068 997 1000.63 897 c 1,19,-1
 1032.9 1063 l 1,20,-1
 1392.9 1063 l 1,21,-1
 1372.1 956 l 1,22,-1
 1196.1 956 l 1,0,-1
939.789 584 m 2,23,24
 976.916 775 976.916 775 923.049 876 c 128,-1,25
 869.181 977 869.181 977 729.181 977 c 0,26,27
 587.181 977 587.181 977 492.91 865 c 128,-1,28
 398.64 753 398.64 753 355.682 532 c 0,29,30
 312.918 312 312.918 312 363.453 199 c 128,-1,31
 413.988 86 413.988 86 555.988 86 c 0,32,33
 695.988 86 695.988 86 789.023 186.5 c 128,-1,34
 882.059 287 882.059 287 919.38 479 c 2,35,-1
 939.789 584 l 2,23,24
EndSplineSet
EndChar
StartChar: r
Encoding: 114 114 85
Width: 979
Flags: W
HStem: 0 106<-3 540> 956 136<794.696 886.132> 958 105<173 330>
Fore
1079.88 1065 m 1,0,-1
 1028.18 799 l 1,1,-1
 922.178 799 l 1,2,3
 932.534 878 932.534 878 901.115 917 c 128,-1,4
 869.696 956 869.696 956 794.696 956 c 0,5,6
 658.696 956 658.696 956 567.924 862 c 128,-1,7
 477.152 768 477.152 768 442.941 592 c 2,8,-1
 348.473 106 l 1,9,-1
 561.473 106 l 1,10,-1
 540.868 0 l 1,11,-1
 -22.1318 0 l 1,12,-1
 -1.52734 106 l 1,13,-1
 164.473 106 l 1,14,-1
 330.085 958 l 1,15,-1
 154.085 958 l 1,16,-1
 174.494 1063 l 1,17,-1
 534.494 1063 l 1,18,-1
 497.757 874 l 1,19,20
 573.333 985 573.333 985 668.732 1038.5 c 128,-1,21
 764.132 1092 764.132 1092 886.132 1092 c 0,22,23
 931.132 1092 931.132 1092 979.271 1085 c 128,-1,24
 1027.41 1078 1027.41 1078 1079.88 1065 c 1,0,-1
EndSplineSet
KernsSLIF: 46 -225 0 0 44 -225 0 0
EndChar
StartChar: s
Encoding: 115 115 86
Width: 1051
Flags: W
HStem: -29 99<390 440> 993 99<598 632>
Fore
23.1553 59 m 1,0,-1
 71.3613 307 l 1,1,-1
 177.361 307 l 1,2,3
 158.23 188 158.23 188 217.262 129 c 128,-1,4
 276.294 70 276.294 70 414.294 70 c 0,5,6
 538.294 70 538.294 70 612.332 116.5 c 128,-1,7
 686.371 163 686.371 163 703.671 252 c 0,8,9
 717.277 322 717.277 322 678.136 365 c 128,-1,10
 638.994 408 638.994 408 495.519 457 c 1,11,-1
 371.266 502 l 1,12,13
 242.818 546 242.818 546 194.147 612 c 128,-1,14
 145.477 678 145.477 678 165.304 780 c 0,15,16
 193.683 926 193.683 926 316.816 1009 c 128,-1,17
 439.95 1092 439.95 1092 628.95 1092 c 0,18,19
 712.95 1092 712.95 1092 801.674 1070 c 128,-1,20
 890.397 1048 890.397 1048 981.233 1006 c 1,21,-1
 936.138 774 l 1,22,-1
 830.138 774 l 1,23,24
 846.158 877 846.158 877 789.433 935 c 128,-1,25
 732.707 993 732.707 993 615.706 993 c 0,26,27
 499.706 993 499.706 993 432.237 952 c 128,-1,28
 364.768 911 364.768 911 348.828 829 c 0,29,30
 335.805 762 335.805 762 372.933 721.5 c 128,-1,31
 410.06 681 410.06 681 536.896 639 c 2,32,-1
 674.148 594 l 2,33,34
 816.013 547 816.013 547 868.81 476.5 c 128,-1,35
 921.605 406 921.605 406 900.029 295 c 0,36,37
 870.678 144 870.678 144 738.363 57.5 c 128,-1,38
 606.05 -29 606.05 -29 403.05 -29 c 0,39,40
 300.05 -29 300.05 -29 206.326 -7 c 128,-1,41
 112.603 15 112.603 15 23.1553 59 c 1,0,-1
EndSplineSet
EndChar
StartChar: t
Encoding: 116 116 87
Width: 823
Flags: W
HStem: -29 99<373 409.039> 956 107<132 274 480 805> 956 437<359 805>
Fore
274.26 956 m 1,0,-1
 112.26 956 l 1,1,-1
 133.059 1063 l 1,2,-1
 295.059 1063 l 1,3,-1
 359.204 1393 l 1,4,-1
 544.204 1393 l 1,5,-1
 480.059 1063 l 1,6,-1
 826.059 1063 l 1,7,-1
 805.26 956 l 1,8,-1
 459.26 956 l 1,9,-1
 328.054 281 l 2,10,11
 301.812 146 301.812 146 320.426 108 c 128,-1,12
 339.039 70 339.039 70 409.039 70 c 0,13,14
 481.039 70 481.039 70 522.301 112.5 c 128,-1,15
 563.562 155 563.562 155 584.027 250 c 1,16,-1
 723.027 250 l 1,17,18
 686.843 105 686.843 105 602.819 38 c 128,-1,19
 518.796 -29 518.796 -29 373.796 -29 c 0,20,21
 214.796 -29 214.796 -29 162.499 41.5 c 128,-1,22
 110.203 112 110.203 112 143.054 281 c 2,23,-1
 274.26 956 l 1,0,-1
EndSplineSet
EndChar
StartChar: u
Encoding: 117 117 88
Width: 1319
Flags: W
HStem: -29 21G<370.368 512.368> 0 106<989 1142> 956 107<160 306 830 970>
Fore
831.132 1063 m 1,0,-1
 1175.13 1063 l 1,1,-1
 989.109 106 l 1,2,-1
 1163.11 106 l 1,3,-1
 1142.51 0 l 1,4,-1
 784.506 0 l 1,5,-1
 821.049 188 l 1,6,7
 749.444 82 749.444 82 657.656 26.5 c 128,-1,8
 565.868 -29 565.868 -29 458.868 -29 c 0,9,10
 281.868 -29 281.868 -29 217.903 71.5 c 128,-1,11
 153.938 172 153.938 172 195.73 387 c 2,12,-1
 306.333 956 l 1,13,-1
 140.333 956 l 1,14,-1
 161.132 1063 l 1,15,-1
 512.132 1063 l 1,16,-1
 391.811 444 l 2,17,18
 354.101 250 354.101 250 387.605 178 c 128,-1,19
 421.109 106 421.109 106 543.109 106 c 0,20,21
 671.109 106 671.109 106 756.382 200 c 128,-1,22
 841.653 294 841.653 294 876.447 473 c 2,23,-1
 970.333 956 l 1,24,-1
 810.333 956 l 1,25,-1
 831.132 1063 l 1,0,-1
EndSplineSet
EndChar
StartChar: v
Encoding: 118 118 89
Width: 1157
Flags: W
HStem: 0 21G<402.687 537.687> 956 107<96 197 97 565 854 993 855 1233>
Fore
402.687 0 m 1,0,-1
 197.515 956 l 1,1,-1
 76.5146 956 l 1,2,-1
 97.3135 1063 l 1,3,-1
 586.313 1063 l 1,4,-1
 565.515 956 l 1,5,-1
 395.515 956 l 1,6,-1
 552.423 225 l 1,7,-1
 993.515 956 l 1,8,-1
 834.515 956 l 1,9,-1
 855.313 1063 l 1,10,-1
 1254.31 1063 l 1,11,-1
 1233.51 956 l 1,12,-1
 1114.51 956 l 1,13,-1
 537.687 0 l 1,14,-1
 402.687 0 l 1,0,-1
EndSplineSet
KernsSLIF: 46 -243 0 0 44 -243 0 0
EndChar
StartChar: w
Encoding: 119 119 90
Width: 1753
Flags: W
HStem: 0 21G<363.687 510.687 1035.69 1188.69> 956 107<135 234 136 596 1443 1577 1444 1808>
Fore
1086.31 1063 m 1,0,-1
 1196.98 233 l 1,1,-1
 1577.51 956 l 1,2,-1
 1423.51 956 l 1,3,-1
 1444.31 1063 l 1,4,-1
 1829.31 1063 l 1,5,-1
 1808.51 956 l 1,6,-1
 1690.51 956 l 1,7,-1
 1188.69 0 l 1,8,-1
 1035.69 0 l 1,9,-1
 928.219 795 l 1,10,-1
 510.687 0 l 1,11,-1
 363.687 0 l 1,12,-1
 234.515 956 l 1,13,-1
 115.515 956 l 1,14,-1
 136.313 1063 l 1,15,-1
 617.313 1063 l 1,16,-1
 596.515 956 l 1,17,-1
 424.515 956 l 1,18,-1
 521.978 233 l 1,19,-1
 957.313 1063 l 1,20,-1
 1086.31 1063 l 1,0,-1
EndSplineSet
KernsSLIF: 46 -243 0 0 44 -243 0 0
EndChar
StartChar: x
Encoding: 120 120 91
Width: 1155
Flags: W
HStem: 0 106<-39 345 555 1026> 956 107<127 238 128 582 778 901 779 1167>
Fore
618.84 649 m 1,0,-1
 901.515 956 l 1,1,-1
 758.515 956 l 1,2,-1
 779.313 1063 l 1,3,-1
 1188.31 1063 l 1,4,-1
 1167.51 956 l 1,5,-1
 1026.51 956 l 1,6,-1
 665.123 563 l 1,7,-1
 908.291 106 l 1,8,-1
 1047.29 106 l 1,9,-1
 1026.69 0 l 1,10,-1
 535.687 0 l 1,11,-1
 556.291 106 l 1,12,-1
 691.291 106 l 1,13,-1
 522.104 424 l 1,14,-1
 228.291 106 l 1,15,-1
 366.291 106 l 1,16,-1
 345.687 0 l 1,17,-1
 -58.3135 0 l 1,18,-1
 -37.709 106 l 1,19,-1
 103.291 106 l 1,20,-1
 474.821 510 l 1,21,-1
 238.515 956 l 1,22,-1
 107.515 956 l 1,23,-1
 128.313 1063 l 1,24,-1
 603.313 1063 l 1,25,-1
 582.515 956 l 1,26,-1
 455.515 956 l 1,27,-1
 618.84 649 l 1,0,-1
EndSplineSet
KernsSLIF: 45 -36 0 0
EndChar
StartChar: y
Encoding: 121 121 92
Width: 1157
Flags: W
HStem: -455 107<114 156.264> 956 107<140 241 141 609 898 1037 899 1277>
Fore
345.004 -195 m 1,0,-1
 449.409 -18 l 1,1,-1
 241.736 956 l 1,2,-1
 120.736 956 l 1,3,-1
 141.534 1063 l 1,4,-1
 630.534 1063 l 1,5,-1
 609.736 956 l 1,6,-1
 439.736 956 l 1,7,-1
 596.644 225 l 1,8,-1
 1037.74 956 l 1,9,-1
 878.736 956 l 1,10,-1
 899.534 1063 l 1,11,-1
 1298.53 1063 l 1,12,-1
 1277.74 956 l 1,13,-1
 1158.74 956 l 1,14,-1
 439.257 -240 l 1,15,16
 365.154 -364 365.154 -364 295.31 -409.5 c 128,-1,17
 225.466 -455 225.466 -455 114.466 -455 c 0,18,19
 67.4658 -455 67.4658 -455 19.5205 -447 c 128,-1,20
 -28.4248 -439 -28.4248 -439 -75.5088 -424 c 1,21,-1
 -36.0498 -221 l 1,22,-1
 57.9502 -221 l 1,23,24
 50.7324 -289 50.7324 -289 73.498 -318.5 c 128,-1,25
 96.2637 -348 96.2637 -348 156.264 -348 c 0,26,27
 211.264 -348 211.264 -348 250.692 -317.5 c 128,-1,28
 290.121 -287 290.121 -287 345.004 -195 c 1,0,-1
EndSplineSet
KernsSLIF: 46 -272 0 0 44 -272 0 0
EndChar
StartChar: z
Encoding: 122 122 93
Width: 1079
Flags: W
HStem: 0 106<236 900> 956 107<218 830>
Fore
-21.3135 0 m 1,0,-1
 -4.59668 86 l 1,1,-1
 830.515 956 l 1,2,-1
 303.515 956 l 1,3,-1
 267.748 772 l 1,4,-1
 161.748 772 l 1,5,-1
 218.313 1063 l 1,6,-1
 1088.31 1063 l 1,7,-1
 1071.6 977 l 1,8,-1
 236.291 106 l 1,9,-1
 814.291 106 l 1,10,-1
 851.807 299 l 1,11,-1
 958.807 299 l 1,12,-1
 900.687 0 l 1,13,-1
 -21.3135 0 l 1,0,-1
EndSplineSet
EndChar
StartChar: braceleft
Encoding: 123 123 94
Width: 1303
Flags: W
HStem: -334 105<788 863> 1452 104<1124 1210>
Fore
883.721 -229 m 1,0,-1
 863.311 -334 l 1,1,-1
 801.311 -334 l 2,2,3
 552.311 -334 552.311 -334 482.194 -260 c 128,-1,4
 412.079 -186 412.079 -186 455.037 35 c 2,5,-1
 505.188 293 l 2,6,7
 534.344 443 534.344 443 491.618 501 c 128,-1,8
 448.893 559 448.893 559 306.893 559 c 2,9,-1
 245.893 559 l 1,10,-1
 266.302 664 l 1,11,-1
 327.302 664 l 2,12,13
 469.302 664 469.302 664 534.576 722 c 128,-1,14
 599.851 780 599.851 780 629.007 930 c 2,15,-1
 679.157 1188 l 2,16,17
 722.115 1409 722.115 1409 820.902 1482.5 c 128,-1,18
 919.689 1556 919.689 1556 1168.69 1556 c 2,19,-1
 1230.69 1556 l 1,20,-1
 1210.47 1452 l 1,21,-1
 1142.47 1452 l 2,22,23
 1001.47 1452 1001.47 1452 949.921 1408 c 128,-1,24
 898.368 1364 898.368 1364 870.961 1223 c 2,25,-1
 815.174 936 l 2,26,27
 784.462 778 784.462 778 721.243 710 c 128,-1,28
 658.025 642 658.025 642 522.194 612 c 1,29,30
 647.585 578 647.585 578 683.562 511 c 128,-1,31
 719.538 444 719.538 444 689.021 287 c 2,32,-1
 633.233 0 l 2,33,34
 605.826 -141 605.826 -141 640.273 -185 c 128,-1,35
 674.721 -229 674.721 -229 815.721 -229 c 2,36,-1
 883.721 -229 l 1,0,-1
EndSplineSet
EndChar
StartChar: bar
Encoding: 124 124 95
Width: 690
Flags: W
Fore
625.046 1565 m 1,0,-1
 226.954 -483 l 1,1,-1
 64.9541 -483 l 1,2,-1
 463.046 1565 l 1,3,-1
 625.046 1565 l 1,0,-1
EndSplineSet
EndChar
StartChar: braceright
Encoding: 125 125 96
Width: 1303
Flags: W
HStem: 559 105<967 1036> 1536 20G<439.689 502.689>
Fore
92.7207 -229 m 1,0,-1
 162.721 -229 l 2,1,2
 302.721 -229 302.721 -229 353.676 -185.5 c 128,-1,3
 404.632 -142 404.632 -142 432.233 0 c 2,4,-1
 488.021 287 l 2,5,6
 518.538 444 518.538 444 580.562 511 c 128,-1,7
 642.585 578 642.585 578 780.194 612 c 1,8,9
 656.025 642 656.025 642 619.743 710 c 128,-1,10
 583.462 778 583.462 778 614.174 936 c 2,11,-1
 669.961 1223 l 2,12,13
 697.562 1365 697.562 1365 663.519 1408.5 c 128,-1,14
 629.474 1452 629.474 1452 489.474 1452 c 2,15,-1
 419.474 1452 l 1,16,-1
 439.689 1556 l 1,17,-1
 502.689 1556 l 2,18,19
 751.689 1556 751.689 1556 820.902 1482.5 c 128,-1,20
 890.115 1409 890.115 1409 847.157 1188 c 2,21,-1
 797.007 930 l 2,22,23
 767.851 780 767.851 780 810.576 722 c 128,-1,24
 853.302 664 853.302 664 995.302 664 c 2,25,-1
 1057.3 664 l 1,26,-1
 1036.89 559 l 1,27,-1
 974.893 559 l 2,28,29
 832.893 559 832.893 559 767.618 501 c 128,-1,30
 702.344 443 702.344 443 673.188 293 c 2,31,-1
 623.037 35 l 2,32,33
 580.079 -186 580.079 -186 482.194 -260 c 128,-1,34
 384.311 -334 384.311 -334 135.311 -334 c 2,35,-1
 72.3105 -334 l 1,36,-1
 92.7207 -229 l 1,0,-1
EndSplineSet
EndChar
StartChar: asciitilde
Encoding: 126 126 97
Width: 1716
Flags: W
Fore
1531.07 807 m 1,0,-1
 1502.3 659 l 1,1,2
 1385.2 571 1385.2 571 1287.04 529 c 128,-1,3
 1188.87 487 1188.87 487 1095.87 487 c 0,4,5
 999.871 487 999.871 487 838.7 553 c 2,6,-1
 829.478 557 l 2,7,8
 819.255 561 819.255 561 799.005 570 c 0,9,10
 663.084 627 663.084 627 568.084 627 c 0,11,12
 476.084 627 476.084 627 382.489 590.5 c 128,-1,13
 288.895 554 288.895 554 184.928 477 c 1,14,-1
 214.473 629 l 1,15,16
 331.384 716 331.384 716 428.757 756.5 c 128,-1,17
 526.129 797 526.129 797 620.129 797 c 0,18,19
 716.129 797 716.129 797 877.3 731 c 2,20,-1
 886.522 727 l 2,21,22
 896.745 723 896.745 723 915.189 715 c 0,23,24
 1048.92 657 1048.92 657 1145.92 657 c 0,25,26
 1237.92 657 1237.92 657 1333.11 694 c 128,-1,27
 1428.3 731 1428.3 731 1531.07 807 c 1,0,-1
EndSplineSet
EndChar
StartChar: exclamdown
Encoding: 161 161 163
Width: 823
Flags: W
HStem: 0 21G<135.076 393.076> 1053 20G<410.646 533.646> 1255 267<508.023 559.924>
Fore
401.071 1389 m 0,0,1
 411.956 1445 411.956 1445 457.439 1483.5 c 128,-1,2
 502.924 1522 502.924 1522 559.924 1522 c 0,3,4
 614.924 1522 614.924 1522 646.343 1483 c 128,-1,5
 677.762 1444 677.762 1444 667.071 1389 c 0,6,7
 656.186 1333 656.186 1333 609.604 1294 c 128,-1,8
 563.023 1255 563.023 1255 508.023 1255 c 0,9,10
 451.023 1255 451.023 1255 420.604 1294 c 128,-1,11
 390.186 1333 390.186 1333 401.071 1389 c 0,0,1
135.076 0 m 1,12,-1
 361.663 821 l 1,13,-1
 410.646 1073 l 1,14,-1
 533.646 1073 l 1,15,-1
 484.663 821 l 1,16,-1
 393.076 0 l 1,17,-1
 135.076 0 l 1,12,-1
EndSplineSet
EndChar
StartChar: cent
Encoding: 162 162 132
Width: 1303
Flags: W
Fore
718.706 991 m 1,0,1
 586.791 976 586.791 976 499.938 861 c 128,-1,2
 413.083 746 413.083 746 371.486 532 c 0,3,4
 329.694 317 329.694 317 371.841 202 c 128,-1,5
 413.986 87 413.986 87 540.071 72 c 1,6,-1
 718.706 991 l 1,0,1
1063.08 319 m 1,7,8
 998.148 165 998.148 165 887.335 78.5 c 128,-1,9
 776.521 -8 776.521 -8 620.827 -27 c 1,10,-1
 568.345 -297 l 1,11,-1
 468.345 -297 l 1,12,-1
 520.827 -27 l 1,13,14
 304.521 -8 304.521 -8 206.178 142 c 128,-1,15
 107.835 292 107.835 292 154.486 532 c 0,16,17
 201.526 774 201.526 774 358.086 923.5 c 128,-1,18
 514.646 1073 514.646 1073 737.95 1090 c 1,19,-1
 789.655 1356 l 1,20,-1
 889.655 1356 l 1,21,-1
 837.95 1090 l 1,22,23
 928.396 1082 928.396 1082 1007.92 1059 c 128,-1,24
 1087.45 1036 1087.45 1036 1159.87 997 c 1,25,-1
 1107 725 l 1,26,-1
 1001 725 l 1,27,28
 1005.91 848 1005.91 848 961.142 913.5 c 128,-1,29
 916.374 979 916.374 979 818.706 991 c 1,30,-1
 640.071 72 l 1,31,32
 732.403 84 732.403 84 802.747 147.5 c 128,-1,33
 873.09 211 873.09 211 915.083 319 c 1,34,-1
 1063.08 319 l 1,7,8
EndSplineSet
EndChar
StartChar: sterling
Encoding: 163 163 133
Width: 1303
Flags: W
HStem: 0 106<8 976> 0 121<405 976> 700 107<145 318 539 930> 1421 99<900 933>
Fore
1192.39 1225 m 1,0,-1
 1087.39 1225 l 1,1,2
 1095.85 1320 1095.85 1320 1049.17 1370.5 c 128,-1,3
 1002.49 1421 1002.49 1421 906.485 1421 c 0,4,5
 779.485 1421 779.485 1421 703.921 1343.5 c 128,-1,6
 628.356 1266 628.356 1266 596.479 1102 c 2,7,-1
 539.136 807 l 1,8,-1
 951.136 807 l 1,9,-1
 930.337 700 l 1,10,-1
 518.337 700 l 1,11,-1
 405.791 121 l 1,12,-1
 883.791 121 l 1,13,-1
 927.915 348 l 1,14,-1
 1043.92 348 l 1,15,-1
 976.271 0 l 1,16,-1
 -10.7295 0 l 1,17,-1
 9.875 106 l 1,18,-1
 202.875 106 l 1,19,-1
 318.337 700 l 1,20,-1
 125.337 700 l 1,21,-1
 146.136 807 l 1,22,-1
 339.136 807 l 1,23,-1
 396.479 1102 l 2,24,25
 436.326 1307 436.326 1307 571.527 1413.5 c 128,-1,26
 706.729 1520 706.729 1520 927.729 1520 c 0,27,28
 1012.73 1520 1012.73 1520 1091.3 1507.5 c 128,-1,29
 1169.87 1495 1169.87 1495 1240.01 1470 c 1,30,-1
 1192.39 1225 l 1,0,-1
EndSplineSet
EndChar
StartChar: currency
Encoding: 164 164 189
Width: 1303
Flags: W
HStem: 215 158<570 600> 909 158<704 735.611>
Fore
967.673 985 m 1,0,-1
 1216.91 1192 l 1,1,-1
 1292.64 1098 l 1,2,-1
 1043.01 889 l 1,3,4
 1074.35 829 1074.35 829 1082.99 768 c 128,-1,5
 1091.63 707 1091.63 707 1078.81 641 c 0,6,7
 1065.39 572 1065.39 572 1033.42 513 c 128,-1,8
 1001.46 454 1001.46 454 945.377 397 c 1,9,-1
 1112.14 190 l 1,10,-1
 997.868 96 l 1,11,-1
 830.717 301 l 1,12,13
 766.164 257 766.164 257 702.582 236 c 128,-1,14
 639 215 639 215 570 215 c 0,15,16
 506 215 506 215 447.484 235.5 c 128,-1,17
 388.969 256 388.969 256 335.938 297 c 1,18,-1
 92.0908 92 l 1,19,-1
 15.3623 186 l 1,20,-1
 260.6 393 l 1,21,22
 231.651 455 231.651 455 223.008 516 c 128,-1,23
 214.365 577 214.365 577 226.806 641 c 0,24,25
 240.412 711 240.412 711 272.978 770.5 c 128,-1,26
 305.544 830 305.544 830 360.623 887 c 1,27,-1
 193.86 1094 l 1,28,-1
 307.132 1188 l 1,29,-1
 473.895 981 l 1,30,31
 538.447 1025 538.447 1025 602.529 1046 c 128,-1,32
 666.611 1067 666.611 1067 735.611 1067 c 0,33,34
 801.611 1067 801.611 1067 858.724 1047 c 128,-1,35
 915.836 1027 915.836 1027 967.673 985 c 1,0,-1
922.194 643 m 0,36,37
 943.965 755 943.965 755 881.433 832 c 128,-1,38
 818.899 909 818.899 909 704.899 909 c 0,39,40
 592.899 909 592.899 909 499.933 832 c 128,-1,41
 406.965 755 406.965 755 385.194 643 c 0,42,43
 363.035 529 363.035 529 425.373 451 c 128,-1,44
 487.712 373 487.712 373 600.712 373 c 0,45,46
 713.712 373 713.712 373 806.971 451.5 c 128,-1,47
 900.229 530 900.229 530 922.194 643 c 0,36,37
EndSplineSet
EndChar
StartChar: yen
Encoding: 165 165 150
Width: 1303
Flags: W
HStem: 0 106<234 796> 473 105<113 497 719 1101> 784 105<173 476 910 1162> 1386 107<128 247 129 661 1021 1168 1022 1433>
Fore
214.896 0 m 1,0,-1
 235.499 106 l 1,1,-1
 426.499 106 l 1,2,-1
 497.837 473 l 1,3,-1
 93.8369 473 l 1,4,-1
 114.247 578 l 1,5,-1
 518.247 578 l 1,6,-1
 530.882 643 l 1,7,-1
 476.289 784 l 1,8,-1
 154.289 784 l 1,9,-1
 174.699 889 l 1,10,-1
 437.699 889 l 1,11,-1
 247.307 1386 l 1,12,-1
 108.307 1386 l 1,13,-1
 129.104 1493 l 1,14,-1
 682.104 1493 l 1,15,-1
 661.307 1386 l 1,16,-1
 486.307 1386 l 1,17,-1
 711.9 782 l 1,18,-1
 1168.31 1386 l 1,19,-1
 1001.31 1386 l 1,20,-1
 1022.1 1493 l 1,21,-1
 1454.1 1493 l 1,22,-1
 1433.31 1386 l 1,23,-1
 1291.31 1386 l 1,24,-1
 910.699 889 l 1,25,-1
 1182.7 889 l 1,26,-1
 1162.29 784 l 1,27,-1
 830.289 784 l 1,28,-1
 735.575 662 l 1,29,-1
 719.247 578 l 1,30,-1
 1122.25 578 l 1,31,-1
 1101.84 473 l 1,32,-1
 698.837 473 l 1,33,-1
 627.499 106 l 1,34,-1
 817.499 106 l 1,35,-1
 796.896 0 l 1,36,-1
 214.896 0 l 1,0,-1
EndSplineSet
EndChar
StartChar: brokenbar
Encoding: 166 166 231
Width: 690
Flags: W
Fore
400.147 408 m 1,0,-1
 252.808 -350 l 1,1,-1
 90.8076 -350 l 1,2,-1
 238.147 408 l 1,3,-1
 400.147 408 l 1,0,-1
599.192 1432 m 1,4,-1
 451.853 674 l 1,5,-1
 289.853 674 l 1,6,-1
 437.192 1432 l 1,7,-1
 599.192 1432 l 1,4,-1
EndSplineSet
EndChar
StartChar: section
Encoding: 167 167 134
Width: 1024
Flags: W
HStem: -195 103<291 341> 1417 103<671 714>
Fore
432.163 936 m 1,0,1
 355.222 890 355.222 890 319.654 848.5 c 128,-1,2
 284.088 807 284.088 807 273.786 754 c 0,3,4
 248.128 622 248.128 622 571.668 419 c 2,5,-1
 600.17 401 l 1,6,7
 665.556 439 665.556 439 704.387 487 c 128,-1,8
 743.217 535 743.217 535 754.296 592 c 0,9,10
 768.875 667 768.875 667 712.398 734 c 128,-1,11
 655.922 801 655.922 801 432.163 936 c 1,0,1
984.796 1464 m 1,12,-1
 945.531 1262 l 1,13,-1
 853.531 1262 l 1,14,15
 865.526 1334 865.526 1334 821.593 1375.5 c 128,-1,16
 777.66 1417 777.66 1417 689.66 1417 c 0,17,18
 589.66 1417 589.66 1417 522.732 1368.5 c 128,-1,19
 455.805 1320 455.805 1320 439.672 1237 c 0,20,21
 420.816 1140 420.816 1140 640.187 1003 c 0,22,23
 663.271 988 663.271 988 673.91 981 c 0,24,25
 847.723 872 847.723 872 895.645 797 c 128,-1,26
 943.565 722 943.565 722 924.322 623 c 0,27,28
 905.855 528 905.855 528 841.11 465 c 128,-1,29
 776.364 402 776.364 402 653.812 358 c 1,30,31
 722.676 311 722.676 311 746.93 248 c 128,-1,32
 771.184 185 771.184 185 753.495 94 c 0,33,34
 728.031 -37 728.031 -37 610.675 -116 c 128,-1,35
 493.319 -195 493.319 -195 320.319 -195 c 0,36,37
 230.319 -195 230.319 -195 152.943 -181.5 c 128,-1,38
 75.5674 -168 75.5674 -168 4.2041 -139 c 1,39,-1
 44.8301 70 l 1,40,-1
 136.636 69 l 1,41,42
 123.085 -11 123.085 -11 169.213 -51.5 c 128,-1,43
 215.34 -92 215.34 -92 322.34 -92 c 0,44,45
 426.34 -92 426.34 -92 496.364 -43 c 128,-1,46
 566.39 6 566.39 6 582.717 90 c 0,47,48
 604.683 203 604.683 203 401.368 330 c 0,49,50
 382.701 342 382.701 342 372.867 348 c 0,51,52
 180.582 470 180.582 470 132.16 545 c 128,-1,53
 83.7393 620 83.7393 620 102.982 719 c 0,54,55
 121.254 813 121.254 813 193.181 879.5 c 128,-1,56
 265.106 946 265.106 946 380.133 977 c 1,57,58
 307.657 1026 307.657 1026 280.403 1089 c 128,-1,59
 253.149 1152 253.149 1152 268.505 1231 c 0,60,61
 293.774 1361 293.774 1361 409.228 1440.5 c 128,-1,62
 524.681 1520 524.681 1520 690.681 1520 c 0,63,64
 768.681 1520 768.681 1520 841.96 1506 c 128,-1,65
 915.238 1492 915.238 1492 984.796 1464 c 1,12,-1
EndSplineSet
EndChar
StartChar: dieresis
Encoding: 168 168 142
Width: 1024
Flags: HW
Fore
534 1569 m 0,0,1
 582 1569 582 1569 610 1534 c 128,-1,2
 637 1500 637 1500 628 1452 c 0,3,4
 618 1401 618 1401 579 1368 c 128,-1,5
 539 1335 539 1335 488 1335 c 0,6,7
 438 1335 438 1335 412 1368 c 128,-1,8
 385 1401 385 1401 395 1452 c 0,9,10
 404 1500 404 1500 446 1534 c 128,-1,11
 487 1569 487 1569 534 1569 c 0,0,1
924 1569 m 0,12,13
 971 1569 971 1569 999 1534 c 128,-1,14
 1026 1500 1026 1500 1017 1452 c 0,15,16
 1007 1401 1007 1401 968 1368 c 128,-1,17
 928 1335 928 1335 878 1335 c 0,18,19
 827 1335 827 1335 801 1368 c 128,-1,20
 774 1401 774 1401 784 1452 c 0,21,22
 793 1500 793 1500 835 1534 c 128,-1,23
 876 1569 876 1569 924 1569 c 0,12,13
EndSplineSet
LCarets: 0 65535 '    ' 1 0 
Ligature: 0 1 'liga' space uni0308
EndChar
StartChar: copyright
Encoding: 169 169 139
Width: 2048
Flags: W
HStem: 0 102<872 908> 301 78<938 972> 1106 78<1082 1120> 1382 103<1130 1186>
Fore
1343.05 573 m 1,0,1
 1290.59 442 1290.59 442 1186.38 371.5 c 128,-1,2
 1082.18 301 1082.18 301 940.181 301 c 0,3,4
 753.181 301 753.181 301 665.007 421 c 128,-1,5
 576.832 541 576.832 541 615.708 741 c 0,6,7
 654.779 942 654.779 942 790.799 1063 c 128,-1,8
 926.819 1184 926.819 1184 1111.82 1184 c 0,9,10
 1191.82 1184 1191.82 1184 1265.72 1165.5 c 128,-1,11
 1339.63 1147 1339.63 1147 1419.05 1108 c 1,12,-1
 1377.64 895 l 1,13,-1
 1293.64 895 l 1,14,15
 1297.83 1004 1297.83 1004 1250.74 1055 c 128,-1,16
 1203.66 1106 1203.66 1106 1098.66 1106 c 0,17,18
 979.657 1106 979.657 1106 901.371 1014.5 c 128,-1,19
 823.086 923 823.086 923 787.708 741 c 0,20,21
 752.525 560 752.525 560 794.935 469.5 c 128,-1,22
 837.343 379 837.343 379 955.343 379 c 0,23,24
 1052.34 379 1052.34 379 1118.08 426.5 c 128,-1,25
 1183.81 474 1183.81 474 1224.05 573 c 1,26,-1
 1343.05 573 l 1,0,1
1168.33 1485 m 0,27,28
 1320.33 1485 1320.33 1485 1441.14 1430 c 128,-1,29
 1561.95 1375 1561.95 1375 1649.76 1266 c 0,30,31
 1737.57 1157 1737.57 1157 1766.11 1026 c 128,-1,32
 1794.64 895 1794.64 895 1764.71 741 c 0,33,34
 1735.16 589 1735.16 589 1655.8 458.5 c 128,-1,35
 1576.43 328 1576.43 328 1446.24 219 c 0,36,37
 1316.05 110 1316.05 110 1173.86 55 c 128,-1,38
 1031.67 0 1031.67 0 879.673 0 c 0,39,40
 727.673 0 727.673 0 606.863 55 c 128,-1,41
 486.055 110 486.055 110 398.242 219 c 0,42,43
 310.43 328 310.43 328 281.796 458.5 c 128,-1,44
 253.163 589 253.163 589 282.708 741 c 0,45,46
 312.643 895 312.643 895 392.106 1026 c 128,-1,47
 471.57 1157 471.57 1157 601.758 1266 c 0,48,49
 731.945 1375 731.945 1375 874.137 1430 c 128,-1,50
 1016.33 1485 1016.33 1485 1168.33 1485 c 0,27,28
1148.31 1382 m 0,51,52
 1017.31 1382 1017.31 1382 895.17 1335 c 128,-1,53
 773.034 1288 773.034 1288 660.763 1194 c 0,54,55
 549.686 1101 549.686 1101 479.929 986.5 c 128,-1,56
 410.172 872 410.172 872 384.708 741 c 0,57,58
 359.439 611 359.439 611 384.974 498 c 128,-1,59
 410.509 385 410.509 385 485.237 291 c 0,60,61
 560.966 197 560.966 197 664.732 149.5 c 128,-1,62
 768.499 102 768.499 102 899.499 102 c 0,63,64
 1031.5 102 1031.5 102 1154.23 149.5 c 128,-1,65
 1276.97 197 1276.97 197 1389.24 291 c 0,66,67
 1500.31 384 1500.31 384 1568.78 497 c 128,-1,68
 1637.24 610 1637.24 610 1662.71 741 c 0,69,70
 1688.56 874 1688.56 874 1663.62 987.5 c 128,-1,71
 1638.69 1101 1638.69 1101 1564.76 1194 c 0,72,73
 1489.03 1288 1489.03 1288 1384.67 1335 c 128,-1,74
 1280.31 1382 1280.31 1382 1148.31 1382 c 0,51,52
EndSplineSet
EndChar
StartChar: ordfeminine
Encoding: 170 170 157
Width: 973
Flags: W
HStem: 535 104<89 768> 737 84<373.532 446.86> 1145 76<501 711> 1444 76<547 574>
Fore
875.224 1219 m 2,0,-1
 801.554 840 l 1,1,-1
 881.554 840 l 1,2,-1
 865.226 756 l 1,3,-1
 637.226 756 l 1,4,-1
 652.776 836 l 1,5,6
 594.863 785 594.863 785 527.697 761 c 128,-1,7
 460.532 737 460.532 737 373.532 737 c 0,8,9
 232.532 737 232.532 737 163.167 802 c 128,-1,10
 93.8018 867 93.8018 867 115.572 979 c 0,11,12
 137.731 1093 137.731 1093 245.172 1157 c 128,-1,13
 352.612 1221 352.612 1221 522.612 1221 c 2,14,-1
 727.612 1221 l 1,15,-1
 736.359 1266 l 2,16,17
 752.688 1350 752.688 1350 703.823 1397 c 128,-1,18
 654.959 1444 654.959 1444 549.959 1444 c 0,19,20
 462.959 1444 462.959 1444 405.156 1409 c 128,-1,21
 347.353 1374 347.353 1374 319.94 1305 c 1,22,-1
 243.94 1305 l 1,23,-1
 274.458 1462 l 1,24,25
 357.096 1491 357.096 1491 431.914 1505.5 c 128,-1,26
 506.732 1520 506.732 1520 572.732 1520 c 0,27,28
 749.732 1520 749.732 1520 826.765 1443 c 128,-1,29
 903.798 1366 903.798 1366 875.224 1219 c 2,0,-1
684.071 997 m 2,30,-1
 712.84 1145 l 1,31,-1
 524.84 1145 l 2,32,33
 419.84 1145 419.84 1145 358.064 1105 c 128,-1,34
 296.289 1065 296.289 1065 281.128 987 c 0,35,36
 265.383 906 265.383 906 307.622 863.5 c 128,-1,37
 349.86 821 349.86 821 446.86 821 c 0,38,39
 538.86 821 538.86 821 603.788 869.5 c 128,-1,40
 668.715 918 668.715 918 684.071 997 c 2,30,-1
90.4834 639 m 1,41,-1
 788.483 639 l 1,42,-1
 768.268 535 l 1,43,-1
 70.2676 535 l 1,44,-1
 90.4834 639 l 1,41,-1
EndSplineSet
EndChar
StartChar: guillemotleft
Encoding: 171 171 169
Width: 1253
Flags: W
Fore
1150.22 1059 m 1,0,-1
 1127.87 944 l 1,1,-1
 764 600 l 1,2,-1
 994.133 256 l 1,3,-1
 971.779 141 l 1,4,-1
 584.03 559 l 1,5,-1
 599.97 641 l 1,6,-1
 1150.22 1059 l 1,0,-1
716.221 1059 m 1,7,-1
 693.867 944 l 1,8,-1
 330 600 l 1,9,-1
 560.133 256 l 1,10,-1
 537.779 141 l 1,11,-1
 150.03 559 l 1,12,-1
 165.97 641 l 1,13,-1
 716.221 1059 l 1,7,-1
EndSplineSet
EndChar
StartChar: logicalnot
Encoding: 172 172 164
Width: 1716
Flags: W
HStem: 700 162<271 1363>
Fore
272.885 862 m 1,0,-1
 1554.88 862 l 1,1,-1
 1443.12 287 l 1,2,-1
 1283.12 287 l 1,3,-1
 1363.39 700 l 1,4,-1
 241.395 700 l 1,5,-1
 272.885 862 l 1,0,-1
EndSplineSet
EndChar
StartChar: sfthyphen
Encoding: 173 173 256
Width: 692
Flags: W
HStem: 471 156<104 586>
Fore
105.162 627 m 1,0,-1
 617.162 627 l 1,1,-1
 586.838 471 l 1,2,-1
 74.8379 471 l 1,3,-1
 105.162 627 l 1,0,-1
EndSplineSet
EndChar
StartChar: registered
Encoding: 174 174 138
Width: 2048
Flags: W
HStem: 0 102<872 919> 352 68<598 903 1314 1378> 723 68<904 988> 1092 67<741 812 742 1108> 1382 103<1130 1180>
Fore
904.428 791 m 1,0,-1
 1029.43 791 l 2,1,2
 1112.43 791 1112.43 791 1161.31 829 c 128,-1,3
 1210.2 867 1210.2 867 1224.78 942 c 0,4,5
 1239.16 1016 1239.16 1016 1204.55 1054 c 128,-1,6
 1169.94 1092 1169.94 1092 1087.94 1092 c 2,7,-1
 962.936 1092 l 1,8,-1
 904.428 791 l 1,0,-1
1143.24 754 m 1,9,10
 1182.51 740 1182.51 740 1207.06 714.5 c 128,-1,11
 1231.6 689 1231.6 689 1243.83 649 c 2,12,-1
 1315.31 420 l 1,13,-1
 1391.31 420 l 1,14,-1
 1378.09 352 l 1,15,-1
 1188.09 352 l 1,16,-1
 1106.47 606 l 1,17,18
 1085.07 676 1085.07 676 1058.64 699.5 c 128,-1,19
 1032.21 723 1032.21 723 983.21 723 c 2,20,-1
 891.21 723 l 1,21,-1
 832.312 420 l 1,22,-1
 916.312 420 l 1,23,-1
 903.095 352 l 1,24,-1
 586.095 352 l 1,25,-1
 599.312 420 l 1,26,-1
 682.312 420 l 1,27,-1
 812.936 1092 l 1,28,-1
 729.936 1092 l 1,29,-1
 742.959 1159 l 1,30,-1
 1157.96 1159 l 2,31,32
 1285.96 1159 1285.96 1159 1340.07 1103 c 128,-1,33
 1394.19 1047 1394.19 1047 1373 938 c 0,34,35
 1356.87 855 1356.87 855 1300.02 809.5 c 128,-1,36
 1243.18 764 1243.18 764 1143.24 754 c 1,9,10
1148.31 1382 m 0,37,38
 1017.31 1382 1017.31 1382 895.17 1335 c 128,-1,39
 773.034 1288 773.034 1288 660.763 1194 c 0,40,41
 549.686 1101 549.686 1101 479.929 986.5 c 128,-1,42
 410.172 872 410.172 872 384.708 741 c 0,43,44
 359.439 611 359.439 611 384.974 498 c 128,-1,45
 410.509 385 410.509 385 485.237 291 c 0,46,47
 560.966 197 560.966 197 664.732 149.5 c 128,-1,48
 768.499 102 768.499 102 899.499 102 c 0,49,50
 1031.5 102 1031.5 102 1154.23 149.5 c 128,-1,51
 1276.97 197 1276.97 197 1389.24 291 c 0,52,53
 1500.31 384 1500.31 384 1568.78 497 c 128,-1,54
 1637.24 610 1637.24 610 1662.71 741 c 0,55,56
 1688.56 874 1688.56 874 1663.62 987.5 c 128,-1,57
 1638.69 1101 1638.69 1101 1564.76 1194 c 0,58,59
 1489.03 1288 1489.03 1288 1384.67 1335 c 128,-1,60
 1280.31 1382 1280.31 1382 1148.31 1382 c 0,37,38
1168.33 1485 m 0,61,62
 1320.33 1485 1320.33 1485 1441.14 1430 c 128,-1,63
 1561.95 1375 1561.95 1375 1649.76 1266 c 0,64,65
 1737.57 1157 1737.57 1157 1766.11 1026 c 128,-1,66
 1794.64 895 1794.64 895 1764.71 741 c 0,67,68
 1735.16 589 1735.16 589 1655.8 458.5 c 128,-1,69
 1576.43 328 1576.43 328 1446.24 219 c 0,70,71
 1316.05 110 1316.05 110 1173.86 55 c 128,-1,72
 1031.67 0 1031.67 0 879.673 0 c 0,73,74
 727.673 0 727.673 0 606.863 55 c 128,-1,75
 486.055 110 486.055 110 398.242 219 c 0,76,77
 310.43 328 310.43 328 281.796 458.5 c 128,-1,78
 253.163 589 253.163 589 282.708 741 c 0,79,80
 312.643 895 312.643 895 392.106 1026 c 128,-1,81
 471.57 1157 471.57 1157 601.758 1266 c 0,82,83
 731.945 1375 731.945 1375 874.137 1430 c 128,-1,84
 1016.33 1485 1016.33 1485 1168.33 1485 c 0,61,62
EndSplineSet
EndChar
StartChar: macron
Encoding: 175 175 217
Width: 1024
Flags: HW
HStem: 1378 148<395 965>
Fore
396 1526 m 1,0,-1
 994 1526 l 1,1,-1
 966 1378 l 1,2,-1
 368 1378 l 1,3,-1
 396 1526 l 1,0,-1
EndSplineSet
LCarets: 0 65535 '    ' 1 0 
Ligature: 0 1 'liga' space uni0304
EndChar
StartChar: degree
Encoding: 176 176 131
Width: 1024
Flags: W
HStem: 885 137<448 476> 1382 138<546 573>
Fore
546.892 1382 m 0,0,1
 470.892 1382 470.892 1382 408.687 1329.5 c 128,-1,2
 346.481 1277 346.481 1277 331.514 1200 c 0,3,4
 316.741 1124 316.741 1124 358.328 1073 c 128,-1,5
 399.914 1022 399.914 1022 476.914 1022 c 0,6,7
 552.914 1022 552.914 1022 614.925 1073.5 c 128,-1,8
 676.936 1125 676.936 1125 691.514 1200 c 0,9,10
 706.093 1275 706.093 1275 663.492 1328.5 c 128,-1,11
 620.892 1382 620.892 1382 546.892 1382 c 0,0,1
573.716 1520 m 0,12,13
 637.716 1520 637.716 1520 691.953 1495.5 c 128,-1,14
 746.191 1471 746.191 1471 780.25 1425 c 1,15,16
 817.503 1380 817.503 1380 829.423 1323 c 128,-1,17
 841.343 1266 841.343 1266 828.514 1200 c 0,18,19
 802.855 1068 802.855 1068 692.57 976.5 c 128,-1,20
 582.284 885 582.284 885 448.284 885 c 0,21,22
 313.284 885 313.284 885 240.778 975 c 128,-1,23
 168.272 1065 168.272 1065 194.514 1200 c 0,24,25
 220.561 1334 220.561 1334 330.639 1427 c 128,-1,26
 440.716 1520 440.716 1520 573.716 1520 c 0,12,13
EndSplineSet
EndChar
StartChar: plusminus
Encoding: 177 177 147
Width: 1716
Flags: W
HStem: 0 160<122 1374> 731 162<264 795 986 1516>
Fore
1062.79 1284 m 1,0,-1
 986.789 893 l 1,1,-1
 1547.79 893 l 1,2,-1
 1516.3 731 l 1,3,-1
 955.3 731 l 1,4,-1
 879.297 340 l 1,5,-1
 719.297 340 l 1,6,-1
 795.3 731 l 1,7,-1
 234.3 731 l 1,8,-1
 265.789 893 l 1,9,-1
 826.789 893 l 1,10,-1
 902.792 1284 l 1,11,-1
 1062.79 1284 l 1,0,-1
123.309 160 m 1,12,-1
 1405.31 160 l 1,13,-1
 1374.21 0 l 1,14,-1
 92.208 0 l 1,15,-1
 123.309 160 l 1,12,-1
EndSplineSet
EndChar
StartChar: twosuperior
Encoding: 178 178 241
Width: 821
Flags: W
HStem: 668 88<167 609> 1446 74<422 457.806>
Fore
209.265 1296 m 1,0,-1
 139.265 1296 l 1,1,-1
 169.977 1454 l 1,2,3
 242.197 1486 242.197 1486 315.502 1503 c 128,-1,4
 388.806 1520 388.806 1520 457.806 1520 c 0,5,6
 595.806 1520 595.806 1520 668.477 1454 c 128,-1,7
 741.147 1388 741.147 1388 720.933 1284 c 0,8,9
 697.218 1162 697.218 1162 469.396 988 c 2,10,-1
 447.091 971 l 1,11,-1
 167.3 756 l 1,12,-1
 552.3 756 l 1,13,-1
 573.293 864 l 1,14,-1
 647.293 864 l 1,15,-1
 609.194 668 l 1,16,-1
 7.19434 668 l 1,17,-1
 21.7725 743 l 1,18,-1
 356.146 997 l 2,19,20
 457.112 1074 457.112 1074 505.97 1135 c 128,-1,21
 554.827 1196 554.827 1196 567.656 1262 c 0,22,23
 584.178 1347 584.178 1347 545.3 1396.5 c 128,-1,24
 506.422 1446 506.422 1446 422.422 1446 c 0,25,26
 344.422 1446 344.422 1446 290.035 1408 c 128,-1,27
 235.649 1370 235.649 1370 209.265 1296 c 1,0,-1
EndSplineSet
EndChar
StartChar: threesuperior
Encoding: 179 179 242
Width: 821
Flags: W
HStem: 653 74<281 321> 1065 20G<304.708 357.708> 1446 74<440 475.264>
Fore
199.156 1468 m 1,0,1
 277.21 1494 277.21 1494 346.737 1507 c 128,-1,2
 416.264 1520 416.264 1520 475.264 1520 c 0,3,4
 613.264 1520 613.264 1520 677.268 1466 c 128,-1,5
 741.271 1412 741.271 1412 722.027 1313 c 0,6,7
 708.032 1241 708.032 1241 645.312 1191 c 128,-1,8
 582.594 1141 582.594 1141 484.289 1124 c 1,9,10
 600.179 1108 600.179 1108 649.113 1048.5 c 128,-1,11
 698.048 989 698.048 989 678.61 889 c 0,12,13
 656.45 775 656.45 775 557.094 714 c 128,-1,14
 457.736 653 457.736 653 294.736 653 c 0,15,16
 222.736 653 222.736 653 155.957 667 c 128,-1,17
 89.1787 681 89.1787 681 26.6211 709 c 1,18,-1
 59.666 879 l 1,19,-1
 129.472 878 l 1,20,21
 120.088 804 120.088 804 161.604 765.5 c 128,-1,22
 203.12 727 203.12 727 295.12 727 c 0,23,24
 389.12 727 389.12 727 448.673 771 c 128,-1,25
 508.226 815 508.226 815 524.165 897 c 0,26,27
 542.242 990 542.242 990 500.476 1037.5 c 128,-1,28
 458.708 1085 458.708 1085 357.708 1085 c 2,29,-1
 304.708 1085 l 1,30,-1
 319.093 1159 l 1,31,-1
 346.093 1159 l 2,32,33
 443.093 1159 443.093 1159 499.784 1196 c 128,-1,34
 556.477 1233 556.477 1233 570.861 1307 c 0,35,36
 583.885 1374 583.885 1374 550.382 1410 c 128,-1,37
 516.88 1446 516.88 1446 440.88 1446 c 0,38,39
 358.88 1446 358.88 1446 309.159 1414 c 128,-1,40
 259.439 1382 259.439 1382 239.805 1317 c 1,41,-1
 169.805 1317 l 1,42,-1
 199.156 1468 l 1,0,1
EndSplineSet
EndChar
StartChar: acute
Encoding: 180 180 141
Width: 1024
Flags: HW
Fore
858 1638 m 1,0,-1
 1057 1638 l 1,1,-1
 643 1262 l 1,2,-1
 526 1262 l 1,3,-1
 858 1638 l 1,0,-1
EndSplineSet
LCarets: 0 65535 '    ' 1 0 
Ligature: 0 1 'liga' space acutecomb
EndChar
StartChar: mu
Encoding: 181 181 151
Width: 1331
Flags: W
HStem: -426 107<-66 449> -29 135<542.453 595.694> 0 104<1041 1195> 956 107<213 359 882 1022>
Fore
883.716 1063 m 1,0,-1
 1227.72 1063 l 1,1,-1
 1041.31 104 l 1,2,-1
 1215.31 104 l 1,3,-1
 1195.09 0 l 1,4,-1
 837.09 0 l 1,5,-1
 873.634 188 l 1,6,7
 801.029 82 801.029 82 716.741 26.5 c 128,-1,8
 632.453 -29 632.453 -29 542.453 -29 c 0,9,10
 485.453 -29 485.453 -29 441.952 -11 c 128,-1,11
 398.45 7 398.45 7 366.448 43 c 1,12,-1
 296.083 -319 l 1,13,-1
 470.083 -319 l 1,14,-1
 449.284 -426 l 1,15,-1
 -85.7158 -426 l 1,16,-1
 -64.917 -319 l 1,17,-1
 112.083 -319 l 1,18,-1
 359.917 956 l 1,19,-1
 193.917 956 l 1,20,-1
 214.716 1063 l 1,21,-1
 564.716 1063 l 1,22,-1
 444.395 444 l 2,23,24
 406.685 250 406.685 250 440.689 178 c 128,-1,25
 474.694 106 474.694 106 595.694 106 c 0,26,27
 723.694 106 723.694 106 808.966 200 c 128,-1,28
 894.237 294 894.237 294 929.032 473 c 2,29,-1
 1022.92 956 l 1,30,-1
 862.917 956 l 1,31,-1
 883.716 1063 l 1,0,-1
EndSplineSet
EndChar
StartChar: paragraph
Encoding: 182 182 136
Width: 1303
Flags: W
HStem: 1386 107<797 1089 797 1314>
Fore
797.251 1493 m 2,0,-1
 1335.25 1493 l 1,1,-1
 1314.45 1386 l 1,2,-1
 1196.45 1386 l 1,3,-1
 888.749 -197 l 1,4,-1
 781.749 -197 l 1,5,-1
 1089.45 1386 l 1,6,-1
 858.453 1386 l 1,7,-1
 550.749 -197 l 1,8,-1
 443.749 -197 l 1,9,-1
 608.194 649 l 1,10,11
 396.499 666 396.499 666 300.478 776.5 c 128,-1,12
 204.457 887 204.457 887 240.223 1071 c 0,13,14
 277.155 1261 277.155 1261 429.703 1377 c 128,-1,15
 582.251 1493 582.251 1493 797.251 1493 c 2,0,-1
EndSplineSet
EndChar
StartChar: periodcentered
Encoding: 183 183 195
Width: 651
Flags: W
Fore
190 711 m 0,0,1
 200.886 767 200.886 767 246.869 805.5 c 128,-1,2
 292.853 844 292.853 844 349.853 844 c 0,3,4
 404.853 844 404.853 844 436.271 805 c 128,-1,5
 467.691 766 467.691 766 457 711 c 0,6,7
 446.114 655 446.114 655 399.631 616.5 c 128,-1,8
 353.147 578 353.147 578 298.147 578 c 0,9,10
 241.147 578 241.147 578 210.034 616 c 128,-1,11
 178.92 654 178.92 654 190 711 c 0,0,1
EndSplineSet
EndChar
StartChar: cedilla
Encoding: 184 184 221
Width: 1024
Flags: W
HStem: -395 121<416 450> -20 20G<519.39 616.39>
Fore
616.39 0 m 1,0,1
 667.95 -64 667.95 -64 688.564 -120 c 128,-1,2
 709.179 -176 709.179 -176 699.654 -225 c 0,3,4
 683.91 -306 683.91 -306 612.26 -350.5 c 128,-1,5
 540.61 -395 540.61 -395 428.61 -395 c 0,6,7
 386.61 -395 386.61 -395 343.776 -389 c 128,-1,8
 300.942 -383 300.942 -383 257.275 -371 c 1,9,-1
 282.739 -240 l 1,10,11
 320.435 -257 320.435 -257 358.282 -265.5 c 128,-1,12
 396.13 -274 396.13 -274 431.13 -274 c 0,13,14
 488.13 -274 488.13 -274 526.281 -247.5 c 128,-1,15
 564.432 -221 564.432 -221 573.179 -176 c 0,16,17
 578.622 -148 578.622 -148 565.175 -104 c 128,-1,18
 551.728 -60 551.728 -60 519.39 0 c 1,19,-1
 616.39 0 l 1,0,1
EndSplineSet
Ligature: 0 1 'liga' space uni0327
EndChar
StartChar: onesuperior
Encoding: 185 185 240
Width: 821
Flags: W
HStem: 668 84<110 580> 1483 20G<468.153 570.153>
Fore
94.8467 668 m 1,0,-1
 111.174 752 l 1,1,-1
 283.174 752 l 1,2,-1
 406.411 1386 l 1,3,-1
 184.807 1280 l 1,4,-1
 203.079 1374 l 1,5,-1
 468.153 1503 l 1,6,-1
 570.153 1503 l 1,7,-1
 424.174 752 l 1,8,-1
 597.174 752 l 1,9,-1
 580.847 668 l 1,10,-1
 94.8467 668 l 1,0,-1
EndSplineSet
EndChar
StartChar: ordmasculine
Encoding: 186 186 158
Width: 963
Flags: W
HStem: 535 104<60 729> 737 76<422 458> 1444 76<552 578>
Fore
439.306 813 m 0,0,1
 545.306 813 545.306 813 614.259 892.5 c 128,-1,2
 683.212 972 683.212 972 713.535 1128 c 0,3,4
 743.858 1284 743.858 1284 705.409 1364 c 128,-1,5
 666.959 1444 666.959 1444 561.959 1444 c 0,6,7
 457.959 1444 457.959 1444 387.715 1363 c 128,-1,8
 317.47 1282 317.47 1282 287.535 1128 c 0,9,10
 257.406 973 257.406 973 295.855 893 c 128,-1,11
 334.306 813 334.306 813 439.306 813 c 0,0,1
424.532 737 m 0,12,13
 249.532 737 249.532 737 164.429 844.5 c 128,-1,14
 79.3242 952 79.3242 952 113.535 1128 c 0,15,16
 147.94 1305 147.94 1305 274.836 1412.5 c 128,-1,17
 401.732 1520 401.732 1520 576.732 1520 c 0,18,19
 751.732 1520 751.732 1520 836.836 1412.5 c 128,-1,20
 921.94 1305 921.94 1305 887.535 1128 c 0,21,22
 853.13 951 853.13 951 726.831 844 c 128,-1,23
 600.532 737 600.532 737 424.532 737 c 0,12,13
61.4834 639 m 1,24,-1
 749.483 639 l 1,25,-1
 729.268 535 l 1,26,-1
 41.2676 535 l 1,27,-1
 61.4834 639 l 1,24,-1
EndSplineSet
EndChar
StartChar: guillemotright
Encoding: 187 187 170
Width: 1253
Flags: W
Fore
716.221 1059 m 1,0,-1
 1103.97 641 l 1,1,-1
 1088.03 559 l 1,2,-1
 537.779 141 l 1,3,-1
 560.133 256 l 1,4,-1
 924 600 l 1,5,-1
 693.867 944 l 1,6,-1
 716.221 1059 l 1,0,-1
282.221 1059 m 1,7,-1
 669.97 641 l 1,8,-1
 654.03 559 l 1,9,-1
 103.779 141 l 1,10,-1
 126.133 256 l 1,11,-1
 489 600 l 1,12,-1
 259.867 944 l 1,13,-1
 282.221 1059 l 1,7,-1
EndSplineSet
EndChar
StartChar: questiondown
Encoding: 191 191 162
Width: 1098
Flags: W
HStem: -27 99<465 493> 1255 267<743.648 795.548>
Fore
902.695 1389 m 0,0,1
 891.81 1333 891.81 1333 845.729 1294 c 128,-1,2
 799.648 1255 799.648 1255 743.648 1255 c 0,3,4
 688.648 1255 688.648 1255 657.229 1294 c 128,-1,5
 625.81 1333 625.81 1333 636.695 1389 c 0,6,7
 647.386 1444 647.386 1444 693.967 1483 c 128,-1,8
 740.548 1522 740.548 1522 795.548 1522 c 0,9,10
 852.548 1522 852.548 1522 883.063 1483.5 c 128,-1,11
 913.58 1445 913.58 1445 902.695 1389 c 0,0,1
866.53 66 m 1,12,13
 751.394 19 751.394 19 651.923 -4 c 128,-1,14
 552.452 -27 552.452 -27 467.452 -27 c 0,15,16
 246.452 -27 246.452 -27 138.251 80 c 128,-1,17
 30.0498 187 30.0498 187 65.4268 369 c 0,18,19
 101.582 555 101.582 555 235.519 673 c 128,-1,20
 369.455 791 369.455 791 602.369 842 c 1,21,-1
 651.741 1096 l 1,22,-1
 774.741 1096 l 1,23,-1
 710.984 768 l 1,24,25
 525.626 725 525.626 725 415.994 624 c 128,-1,26
 306.361 523 306.361 523 276.038 367 c 0,27,28
 249.408 230 249.408 230 307.552 151 c 128,-1,29
 365.696 72 365.696 72 491.696 72 c 0,30,31
 604.696 72 604.696 72 690.428 137.5 c 128,-1,32
 776.16 203 776.16 203 821.068 326 c 1,33,-1
 917.068 326 l 1,34,-1
 866.53 66 l 1,12,13
EndSplineSet
EndChar
StartChar: Aring
Encoding: 197 197 99
Width: 1479
Flags: W
HStem: 0 106<-178 223 790 1314> 434 107<330 896> 1778 123<894 919>
Fore
1018.3 1626 m 0,0,1
 1030.55 1689 1030.55 1689 994.7 1733.5 c 128,-1,2
 958.85 1778 958.85 1778 895.85 1778 c 0,3,4
 831.85 1778 831.85 1778 779.895 1734.5 c 128,-1,5
 727.938 1691 727.938 1691 715.304 1626 c 0,6,7
 703.058 1563 703.058 1563 738.005 1519 c 128,-1,8
 772.952 1475 772.952 1475 836.952 1475 c 0,9,10
 899.952 1475 899.952 1475 953.005 1519 c 128,-1,11
 1006.06 1563 1006.06 1563 1018.3 1626 c 0,0,1
330.401 541 m 1,12,-1
 876.401 541 l 1,13,-1
 742.411 1251 l 1,14,-1
 330.401 541 l 1,12,-1
-196.759 0 m 1,15,-1
 -176.154 106 l 1,16,-1
 -45.1543 106 l 1,17,-1
 692.264 1384 l 1,18,19
 627.456 1421 627.456 1421 601.813 1482 c 128,-1,20
 576.17 1543 576.17 1543 592.304 1626 c 0,21,22
 614.463 1740 614.463 1740 710.111 1820.5 c 128,-1,23
 805.759 1901 805.759 1901 919.759 1901 c 0,24,25
 1033.76 1901 1033.76 1901 1098.61 1820.5 c 128,-1,26
 1163.46 1740 1163.46 1740 1141.3 1626 c 0,27,28
 1125.75 1546 1125.75 1546 1074.41 1482.5 c 128,-1,29
 1023.07 1419 1023.07 1419 944.264 1384 c 1,30,-1
 1187.85 106 l 1,31,-1
 1334.85 106 l 1,32,-1
 1314.24 0 l 1,33,-1
 771.241 0 l 1,34,-1
 791.846 106 l 1,35,-1
 957.846 106 l 1,36,-1
 896.603 434 l 1,37,-1
 268.603 434 l 1,38,-1
 79.8457 106 l 1,39,-1
 243.846 106 l 1,40,-1
 223.241 0 l 1,41,-1
 -196.759 0 l 1,15,-1
EndSplineSet
LCarets: 0 65535 '    ' 1 0 
Ligature: 0 0 'liga' A uni030A
EndChar
StartChar: AE
Encoding: 198 198 144
Width: 2050
Flags: W
HStem: 0 106<-161 243 599 1798> 0 123<994 1798> 0 541<386 1798> 434 107<386 854> 561 309<1140 1694> 748 122<1140 1608> 1161 332<616 2007> 1370 123<616 1925> 1386 107<615 810 616 1039>
Fore
386.055 541 m 1,0,-1
 875.055 541 l 1,1,-1
 1039.31 1386 l 1,2,-1
 939.307 1386 l 1,3,-1
 386.055 541 l 1,0,-1
579.896 0 m 1,4,-1
 600.499 106 l 1,5,-1
 790.499 106 l 1,6,-1
 854.256 434 l 1,7,-1
 316.256 434 l 1,8,-1
 100.499 106 l 1,9,-1
 264.499 106 l 1,10,-1
 243.896 0 l 1,11,-1
 -180.104 0 l 1,12,-1
 -159.501 106 l 1,13,-1
 -28.501 106 l 1,14,-1
 810.307 1386 l 1,15,-1
 595.307 1386 l 1,16,-1
 616.104 1493 l 1,17,-1
 2072.1 1493 l 1,18,-1
 2007.57 1161 l 1,19,-1
 1884.57 1161 l 1,20,-1
 1925.2 1370 l 1,21,-1
 1237.2 1370 l 1,22,-1
 1140.01 870 l 1,23,-1
 1632.01 870 l 1,24,-1
 1668.36 1057 l 1,25,-1
 1791.36 1057 l 1,26,-1
 1694.94 561 l 1,27,-1
 1571.94 561 l 1,28,-1
 1608.29 748 l 1,29,-1
 1116.29 748 l 1,30,-1
 994.804 123 l 1,31,-1
 1699.8 123 l 1,32,-1
 1740.43 332 l 1,33,-1
 1863.43 332 l 1,34,-1
 1798.9 0 l 1,35,-1
 579.896 0 l 1,4,-1
EndSplineSet
KernsSLIF: 45 38 0 0
EndChar
StartChar: Eth
Encoding: 208 208 232
Width: 1653
Flags: W
HStem: 0 106<-3 618> 719 125<130 307 532 844> 1386 107<267 437 268 871>
Fore
389.499 106 m 1,0,-1
 577.499 106 l 2,1,2
 868.499 106 868.499 106 1056.77 272 c 128,-1,3
 1245.03 438 1245.03 438 1305.29 748 c 0,4,5
 1365.55 1058 1365.55 1058 1241.93 1222 c 128,-1,6
 1118.31 1386 1118.31 1386 826.307 1386 c 2,7,-1
 638.307 1386 l 1,8,-1
 532.952 844 l 1,9,-1
 868.952 844 l 1,10,-1
 844.654 719 l 1,11,-1
 508.654 719 l 1,12,-1
 389.499 106 l 1,0,-1
-22.1045 0 m 1,13,-1
 -1.50098 106 l 1,14,-1
 188.499 106 l 1,15,-1
 307.654 719 l 1,16,-1
 107.654 719 l 1,17,-1
 131.952 844 l 1,18,-1
 331.952 844 l 1,19,-1
 437.307 1386 l 1,20,-1
 247.307 1386 l 1,21,-1
 268.104 1493 l 1,22,-1
 862.104 1493 l 2,23,24
 1248.1 1493 1248.1 1493 1425.31 1296 c 128,-1,25
 1602.52 1099 1602.52 1099 1534.29 748 c 0,26,27
 1465.87 396 1465.87 396 1211.38 198 c 128,-1,28
 956.896 0 956.896 0 571.896 0 c 2,29,-1
 -22.1045 0 l 1,13,-1
EndSplineSet
KernsSLIF: 221 -36 0 0 193 -36 0 0 194 -36 0 0 376 -36 0 0 195 -36 0 0 192 -36 0 0 196 -36 0 0 89 -36 0 0 86 -36 0 0 65 -36 0 0 46 -73 0 0 45 75 0 0 44 -73 0 0
EndChar
StartChar: multiply
Encoding: 215 215 239
Width: 1716
Flags: W
Fore
1523.71 1104 m 1,0,-1
 970.708 641 l 1,1,-1
 1344.1 180 l 1,2,-1
 1207.33 68 l 1,3,-1
 835.743 528 l 1,4,-1
 285.328 68 l 1,5,-1
 193.099 180 l 1,6,-1
 742.708 641 l 1,7,-1
 372.706 1104 l 1,8,-1
 508.672 1217 l 1,9,-1
 880.062 756 l 1,10,-1
 1430.67 1217 l 1,11,-1
 1523.71 1104 l 1,0,-1
EndSplineSet
EndChar
StartChar: Oslash
Encoding: 216 216 145
Width: 1679
Flags: W
HStem: -29 107<676 726> 1413 107<948 998>
Fore
1309.73 1239 m 1,0,1
 1261.84 1327 1261.84 1327 1177.7 1370 c 128,-1,2
 1093.55 1413 1093.55 1413 969.555 1413 c 0,3,4
 723.555 1413 723.555 1413 565.802 1244.5 c 128,-1,5
 408.048 1076 408.048 1076 343.708 745 c 0,6,7
 320.577 626 320.577 626 317.819 529.5 c 128,-1,8
 315.062 433 315.062 433 333.317 352 c 1,9,-1
 1309.73 1239 l 1,0,1
367.656 256 m 1,10,11
 414.356 167 414.356 167 499.707 122.5 c 128,-1,12
 585.057 78 585.057 78 710.057 78 c 0,13,14
 955.057 78 955.057 78 1112.81 246.5 c 128,-1,15
 1270.56 415 1270.56 415 1334.71 745 c 0,16,17
 1357.45 862 1357.45 862 1360.1 960.5 c 128,-1,18
 1362.74 1059 1362.74 1059 1344.68 1141 c 1,19,-1
 367.656 256 l 1,10,11
1493.92 1276 m 1,20,21
 1559.93 1168 1559.93 1168 1577.87 1036.5 c 128,-1,22
 1595.81 905 1595.81 905 1564.71 745 c 0,23,24
 1497.65 400 1497.65 400 1255.45 185.5 c 128,-1,25
 1013.26 -29 1013.26 -29 689.258 -29 c 0,26,27
 548.258 -29 548.258 -29 437.616 14 c 128,-1,28
 326.975 57 326.975 57 242.691 143 c 1,29,-1
 21.8154 -57 l 1,30,-1
 -42.7725 12 l 1,31,-1
 184.465 219 l 1,32,33
 117.874 324 117.874 324 100.741 454.5 c 128,-1,34
 83.6074 585 83.6074 585 114.708 745 c 0,35,36
 181.964 1091 181.964 1091 424.658 1305.5 c 128,-1,37
 667.354 1520 667.354 1520 990.354 1520 c 0,38,39
 1131.35 1520 1131.35 1520 1243.09 1477.5 c 128,-1,40
 1354.83 1435 1354.83 1435 1434.7 1352 c 1,41,-1
 1651.18 1550 l 1,42,-1
 1717.38 1479 l 1,43,-1
 1493.92 1276 l 1,20,21
EndSplineSet
KernsSLIF: 88 -36 0 0 86 -36 0 0 46 -120 0 0 45 75 0 0 44 -120 0 0
EndChar
StartChar: Thorn
Encoding: 222 222 236
Width: 1384
Flags: W
HStem: 0 106<-13 591> 326 108<445 739> 1061 106<587 863> 1386 107<257 427 258 861>
Fore
445.256 434 m 1,0,-1
 709.256 434 l 2,1,2
 858.256 434 858.256 434 951.903 514.5 c 128,-1,3
 1045.55 595 1045.55 595 1075.29 748 c 0,4,5
 1104.84 900 1104.84 900 1042.49 980.5 c 128,-1,6
 980.133 1061 980.133 1061 831.133 1061 c 2,7,-1
 567.133 1061 l 1,8,-1
 445.256 434 l 1,0,-1
-32.1045 0 m 1,9,-1
 -11.501 106 l 1,10,-1
 178.499 106 l 1,11,-1
 427.307 1386 l 1,12,-1
 237.307 1386 l 1,13,-1
 258.104 1493 l 1,14,-1
 882.104 1493 l 1,15,-1
 861.307 1386 l 1,16,-1
 630.307 1386 l 1,17,-1
 587.737 1167 l 1,18,-1
 900.737 1167 l 2,19,20
 1124.74 1167 1124.74 1167 1233.67 1053.5 c 128,-1,21
 1342.61 940 1342.61 940 1305.29 748 c 0,22,23
 1267.58 554 1267.58 554 1113.92 440 c 128,-1,24
 960.263 326 960.263 326 737.263 326 c 2,25,-1
 424.263 326 l 1,26,-1
 381.499 106 l 1,27,-1
 612.499 106 l 1,28,-1
 591.896 0 l 1,29,-1
 -32.1045 0 l 1,9,-1
EndSplineSet
KernsSLIF: 46 -339 0 0 45 38 0 0 44 -339 0 0
EndChar
StartChar: germandbls
Encoding: 223 223 137
Width: 1368
Flags: W
HStem: -29 99<705 743> 0 106<-70 271> 1458 98<789 832>
Fore
1026.79 1210 m 1,0,1
 1041.92 1329 1041.92 1329 984.96 1393.5 c 128,-1,2
 927.997 1458 927.997 1458 808.997 1458 c 0,3,4
 676.997 1458 676.997 1458 603.46 1393.5 c 128,-1,5
 529.922 1329 529.922 1329 502.903 1190 c 2,6,-1
 271.591 0 l 1,7,-1
 -89.4092 0 l 1,8,-1
 -68.8047 106 l 1,9,-1
 108.195 106 l 1,10,-1
 318.126 1186 l 2,11,12
 352.337 1362 352.337 1362 485.691 1459 c 128,-1,13
 619.047 1556 619.047 1556 828.047 1556 c 0,14,15
 1041.05 1556 1041.05 1556 1132.33 1452 c 128,-1,16
 1223.62 1348 1223.62 1348 1194.6 1137 c 1,17,-1
 1172.6 1137 l 2,18,19
 1027.6 1137 1027.6 1137 933.604 1083 c 128,-1,20
 839.608 1029 839.608 1029 821.53 936 c 0,21,22
 811.423 884 811.423 884 830.939 845.5 c 128,-1,23
 850.455 807 850.455 807 914.319 760 c 1,24,-1
 992.629 705 l 1,25,26
 1128.38 606 1128.38 606 1171.36 521 c 128,-1,27
 1214.34 436 1214.34 436 1192.18 322 c 0,28,29
 1162.05 167 1162.05 167 1027.5 69 c 128,-1,30
 892.953 -29 892.953 -29 707.953 -29 c 0,31,32
 622.953 -29 622.953 -29 542.55 -10.5 c 128,-1,33
 462.146 8 462.146 8 389.949 43 c 1,34,-1
 435.239 276 l 1,35,-1
 544.239 276 l 1,36,37
 528.607 175 528.607 175 573.902 122.5 c 128,-1,38
 619.197 70 619.197 70 721.197 70 c 0,39,40
 832.197 70 832.197 70 907.457 130.5 c 128,-1,41
 982.717 191 982.717 191 1002.93 295 c 0,42,43
 1019.26 379 1019.26 379 990.632 437.5 c 128,-1,44
 962.003 496 962.003 496 859.193 569 c 2,45,-1
 783.689 623 l 2,46,47
 692.324 688 692.324 688 660.362 752.5 c 128,-1,48
 628.399 817 628.399 817 644.339 899 c 0,49,50
 668.053 1021 668.053 1021 768.492 1103 c 128,-1,51
 868.932 1185 868.932 1185 1026.79 1210 c 1,0,1
EndSplineSet
EndChar
StartChar: ae
Encoding: 230 230 160
Width: 1925
Flags: W
HStem: -29 99<1222 1262> 512 106<1046 1818> 559 107<583 819> 993 99<627 661 1395 1429>
Fore
776.61 334 m 2,0,-1
 820.346 559 l 1,1,-1
 583.346 559 l 2,2,3
 446.346 559 446.346 559 367.877 500 c 128,-1,4
 289.408 441 289.408 441 265.694 319 c 0,5,6
 244.118 208 244.118 208 299.483 143 c 128,-1,7
 354.849 78 354.849 78 470.849 78 c 0,8,9
 585.849 78 585.849 78 670.149 149 c 128,-1,10
 754.45 220 754.45 220 776.61 334 c 2,0,-1
849.844 150 m 1,11,12
 749.155 59 749.155 59 639.603 15 c 128,-1,13
 530.05 -29 530.05 -29 405.05 -29 c 0,14,15
 208.05 -29 208.05 -29 118.238 62 c 128,-1,16
 28.4268 153 28.4268 153 60.6943 319 c 0,17,18
 92.7666 484 92.7666 484 229.955 575 c 128,-1,19
 367.145 666 367.145 666 583.145 666 c 2,20,-1
 841.145 666 l 1,21,-1
 855.334 739 l 2,22,23
 878.659 859 878.659 859 819.683 926 c 128,-1,24
 760.707 993 760.707 993 632.706 993 c 0,25,26
 516.707 993 516.707 993 441.085 943.5 c 128,-1,27
 365.463 894 365.463 894 330.219 795 c 1,28,-1
 235.219 795 l 1,29,-1
 277.011 1010 l 1,30,31
 380.98 1051 380.98 1051 475.466 1071.5 c 128,-1,32
 569.95 1092 569.95 1092 655.95 1092 c 0,33,34
 796.95 1092 796.95 1092 884.994 1048.5 c 128,-1,35
 973.039 1005 973.039 1005 1010.54 915 c 1,36,37
 1101.65 1003 1101.65 1003 1206.3 1047.5 c 128,-1,38
 1310.95 1092 1310.95 1092 1427.95 1092 c 0,39,40
 1668.95 1092 1668.95 1092 1768.99 943 c 128,-1,41
 1869.02 794 1869.02 794 1818.21 512 c 1,42,-1
 1026.21 512 l 1,43,-1
 1024.65 504 l 2,44,45
 982.863 289 982.863 289 1042.08 179.5 c 128,-1,46
 1101.29 70 1101.29 70 1260.29 70 c 0,47,48
 1381.29 70 1381.29 70 1471.14 133.5 c 128,-1,49
 1560.98 197 1560.98 197 1616.28 322 c 1,50,-1
 1763.28 322 l 1,51,52
 1686.26 147 1686.26 147 1550.16 59 c 128,-1,53
 1414.05 -29 1414.05 -29 1222.05 -29 c 0,54,55
 1100.05 -29 1100.05 -29 1005.39 16.5 c 128,-1,56
 910.738 62 910.738 62 849.844 150 c 1,11,12
1622.81 618 m 1,57,58
 1652.97 804 1652.97 804 1598.84 898.5 c 128,-1,59
 1544.71 993 1544.71 993 1408.71 993 c 0,60,61
 1281.71 993 1281.71 993 1189.74 898 c 128,-1,62
 1097.77 803 1097.77 803 1046.81 618 c 1,63,-1
 1622.81 618 l 1,57,58
EndSplineSet
EndChar
StartChar: eth
Encoding: 240 240 233
Width: 1233
Flags: W
HStem: -29 99<455 489> 946 98<663 697>
Fore
852.976 928 m 1,0,1
 809.725 937 809.725 937 770.1 941.5 c 128,-1,2
 730.475 946 730.475 946 690.475 946 c 0,3,4
 517.475 946 517.475 946 414.176 839 c 128,-1,5
 310.877 732 310.877 732 267.336 508 c 0,6,7
 226.516 298 226.516 298 282.856 184 c 128,-1,8
 339.197 70 339.197 70 481.197 70 c 0,9,10
 625.197 70 625.197 70 724.954 184.5 c 128,-1,11
 824.71 299 824.71 299 866.113 512 c 0,12,13
 887.884 624 887.884 624 884.891 729.5 c 128,-1,14
 881.898 835 881.898 835 852.976 928 c 1,0,1
865.646 1307 m 1,15,16
 1016.18 1140 1016.18 1140 1071.68 944.5 c 128,-1,17
 1127.18 749 1127.18 749 1085 532 c 0,18,19
 1035.63 278 1035.63 278 865.291 124.5 c 128,-1,20
 694.953 -29 694.953 -29 461.953 -29 c 0,21,22
 232.953 -29 232.953 -29 119.902 122.5 c 128,-1,23
 6.85059 274 6.85059 274 54.2793 518 c 0,24,25
 100.153 754 100.153 754 269.339 899 c 128,-1,26
 438.523 1044 438.523 1044 666.523 1044 c 0,27,28
 701.523 1044 701.523 1044 738.44 1041 c 128,-1,29
 775.357 1038 775.357 1038 825.803 1030 c 1,30,31
 814.104 1083 814.104 1083 788.004 1136.5 c 128,-1,32
 761.903 1190 761.903 1190 722.594 1245 c 1,33,-1
 371.632 1096 l 1,34,-1
 349.793 1174 l 1,35,-1
 669.034 1309 l 1,36,37
 619.309 1367 619.309 1367 548.681 1407.5 c 128,-1,38
 478.054 1448 478.054 1448 387.33 1470 c 1,39,-1
 422.047 1556 l 1,40,41
 535.992 1530 535.992 1530 631.356 1483 c 128,-1,42
 726.721 1436 726.721 1436 805.503 1368 c 1,43,-1
 1156.66 1518 l 1,44,-1
 1178.5 1440 l 1,45,-1
 865.646 1307 l 1,15,16
EndSplineSet
KernsSLIF: 46 -36 0 0
EndChar
StartChar: divide
Encoding: 247 247 184
Width: 1716
Flags: W
HStem: 139 267<760.227 812.126> 561 162<231 1483> 879 266<904.068 955.773>
Fore
796.921 1012 m 0,0,1
 807.806 1068 807.806 1068 853.79 1106.5 c 128,-1,2
 899.773 1145 899.773 1145 955.773 1145 c 0,3,4
 1010.77 1145 1010.77 1145 1042.19 1106 c 128,-1,5
 1073.61 1067 1073.61 1067 1062.92 1012 c 0,6,7
 1052.04 956 1052.04 956 1005.55 917.5 c 128,-1,8
 959.068 879 959.068 879 904.068 879 c 0,9,10
 847.068 879 847.068 879 816.454 917 c 128,-1,11
 785.841 955 785.841 955 796.921 1012 c 0,0,1
653.079 272 m 0,12,13
 663.965 328 663.965 328 710.046 367 c 128,-1,14
 756.126 406 756.126 406 812.126 406 c 0,15,16
 867.126 406 867.126 406 898.546 367 c 128,-1,17
 929.965 328 929.965 328 919.079 272 c 0,18,19
 908.389 217 908.389 217 861.808 178 c 128,-1,20
 815.227 139 815.227 139 760.227 139 c 0,21,22
 703.227 139 703.227 139 672.71 177.5 c 128,-1,23
 642.194 216 642.194 216 653.079 272 c 0,12,13
232.745 723 m 1,24,-1
 1514.75 723 l 1,25,-1
 1483.25 561 l 1,26,-1
 201.255 561 l 1,27,-1
 232.745 723 l 1,24,-1
EndSplineSet
EndChar
StartChar: oslash
Encoding: 248 248 161
Width: 1233
Flags: W
HStem: -29 99<505 543> 993 99<701 726>
Fore
907.547 879 m 1,0,1
 880.627 936 880.627 936 830.167 964.5 c 128,-1,2
 779.707 993 779.707 993 705.706 993 c 0,3,4
 558.707 993 558.707 993 459.964 876 c 128,-1,5
 361.222 759 361.222 759 317.098 532 c 0,6,7
 303.102 460 303.102 460 299.134 401 c 128,-1,8
 295.165 342 295.165 342 299.641 293 c 1,9,-1
 907.547 879 l 1,0,1
324.619 190 m 1,10,11
 352.762 129 352.762 129 402.527 99.5 c 128,-1,12
 452.294 70 452.294 70 526.294 70 c 0,13,14
 673.294 70 673.294 70 772.133 187.5 c 128,-1,15
 870.973 305 870.973 305 915.098 532 c 0,16,17
 929.87 608 929.87 608 934.13 668.5 c 128,-1,18
 938.39 729 938.39 729 933.304 780 c 1,19,-1
 324.619 190 l 1,10,11
1079.91 922 m 1,20,21
 1127.52 848 1127.52 848 1140.28 749 c 128,-1,22
 1153.03 650 1153.03 650 1130.1 532 c 0,23,24
 1080.72 278 1080.72 278 910.388 124.5 c 128,-1,25
 740.05 -29 740.05 -29 507.05 -29 c 0,26,27
 413.05 -29 413.05 -29 338.201 -2.5 c 128,-1,28
 263.352 24 263.352 24 206.849 78 c 1,29,-1
 30.415 -94 l 1,30,-1
 -33.3389 -31 l 1,31,-1
 150.261 147 l 1,32,33
 104.229 224 104.229 224 91.9854 320.5 c 128,-1,34
 79.7432 417 79.7432 417 102.098 532 c 0,35,36
 151.47 786 151.47 786 321.71 939 c 128,-1,37
 491.95 1092 491.95 1092 724.95 1092 c 0,38,39
 818.95 1092 818.95 1092 893.993 1066.5 c 128,-1,40
 969.037 1041 969.037 1041 1023.32 991 c 1,41,-1
 1194.58 1157 l 1,42,-1
 1258.34 1094 l 1,43,-1
 1079.91 922 l 1,20,21
EndSplineSet
KernsSLIF: 46 -36 0 0
EndChar
StartChar: thorn
Encoding: 254 254 237
Width: 1311
Flags: W
HStem: -426 107<-114 401> -29 115<613 648.538> 977 115<787.085 866.438> 1450 106<250 408>
Fore
423.693 584 m 2,0,-1
 403.283 479 l 2,1,2
 365.962 287 365.962 287 419.927 186.5 c 128,-1,3
 473.892 86 473.892 86 613.892 86 c 0,4,5
 754.892 86 754.892 86 849.356 199 c 128,-1,6
 943.822 312 943.822 312 986.586 532 c 0,7,8
 1029.54 753 1029.54 753 978.814 865 c 128,-1,9
 928.085 977 928.085 977 787.085 977 c 0,10,11
 647.085 977 647.085 977 553.952 876 c 128,-1,12
 460.82 775 460.82 775 423.693 584 c 2,0,-1
408.026 1450 m 1,13,-1
 231.026 1450 l 1,14,-1
 251.631 1556 l 1,15,-1
 612.631 1556 l 1,16,-1
 484.534 897 l 1,17,18
 557.973 997 557.973 997 650.705 1044.5 c 128,-1,19
 743.438 1092 743.438 1092 866.438 1092 c 0,20,21
 1062.44 1092 1062.44 1092 1156.31 937 c 128,-1,22
 1250.18 782 1250.18 782 1201.59 532 c 0,23,24
 1152.99 282 1152.99 282 998.765 126.5 c 128,-1,25
 844.538 -29 844.538 -29 648.538 -29 c 0,26,27
 525.538 -29 525.538 -29 451.271 18.5 c 128,-1,28
 377.004 66 377.004 66 342.442 166 c 1,29,-1
 248.168 -319 l 1,30,-1
 422.168 -319 l 1,31,-1
 401.369 -426 l 1,32,-1
 -133.631 -426 l 1,33,-1
 -112.832 -319 l 1,34,-1
 64.168 -319 l 1,35,-1
 408.026 1450 l 1,13,-1
EndSplineSet
KernsSLIF: 46 -102 0 0 44 -36 0 0
EndChar
StartChar: Dcroat
Encoding: 272 272 257
Width: 1653
Flags: W
HStem: 0 106<-3 618> 719 125<130 307 532 844> 1386 107<267 437 268 871>
Fore
389.499 106 m 1,0,-1
 577.499 106 l 2,1,2
 868.499 106 868.499 106 1056.77 272 c 128,-1,3
 1245.03 438 1245.03 438 1305.29 748 c 0,4,5
 1365.55 1058 1365.55 1058 1241.93 1222 c 128,-1,6
 1118.31 1386 1118.31 1386 826.307 1386 c 2,7,-1
 638.307 1386 l 1,8,-1
 532.952 844 l 1,9,-1
 868.952 844 l 1,10,-1
 844.654 719 l 1,11,-1
 508.654 719 l 1,12,-1
 389.499 106 l 1,0,-1
-22.1045 0 m 1,13,-1
 -1.50098 106 l 1,14,-1
 188.499 106 l 1,15,-1
 307.654 719 l 1,16,-1
 107.654 719 l 1,17,-1
 131.952 844 l 1,18,-1
 331.952 844 l 1,19,-1
 437.307 1386 l 1,20,-1
 247.307 1386 l 1,21,-1
 268.104 1493 l 1,22,-1
 862.104 1493 l 2,23,24
 1248.1 1493 1248.1 1493 1425.31 1296 c 128,-1,25
 1602.52 1099 1602.52 1099 1534.29 748 c 0,26,27
 1465.87 396 1465.87 396 1211.38 198 c 128,-1,28
 956.896 0 956.896 0 571.896 0 c 2,29,-1
 -22.1045 0 l 1,13,-1
EndSplineSet
EndChar
StartChar: dcroat
Encoding: 273 273 255
Width: 1311
Flags: W
HStem: -29 115<392.953 472.308> 0 106<947 1102> 977 115<610 645> 1227 106<674 981 1185 1341> 1227 329<871 1341> 1450 106<870 1024>
Fore
947.195 106 m 1,0,-1
 1123.2 106 l 1,1,-1
 1102.59 0 l 1,2,-1
 742.591 0 l 1,3,-1
 774.857 166 l 1,4,5
 701.42 66 701.42 66 608.687 18.5 c 128,-1,6
 515.953 -29 515.953 -29 392.953 -29 c 0,7,8
 196.953 -29 196.953 -29 102.68 126.5 c 128,-1,9
 8.40625 282 8.40625 282 57.001 532 c 0,10,11
 105.596 782 105.596 782 259.725 937 c 128,-1,12
 413.854 1092 413.854 1092 610.854 1092 c 0,13,14
 733.854 1092 733.854 1092 808.121 1044.5 c 128,-1,15
 882.388 997 882.388 997 916.95 897 c 1,16,-1
 981.096 1227 l 1,17,-1
 655.096 1227 l 1,18,-1
 675.699 1333 l 1,19,-1
 1001.7 1333 l 1,20,-1
 1024.44 1450 l 1,21,-1
 850.442 1450 l 1,22,-1
 871.047 1556 l 1,23,-1
 1229.05 1556 l 1,24,-1
 1185.7 1333 l 1,25,-1
 1361.7 1333 l 1,26,-1
 1341.1 1227 l 1,27,-1
 1165.1 1227 l 1,28,-1
 947.195 106 l 1,0,-1
835.699 479 m 2,29,-1
 856.108 584 l 2,30,31
 893.235 775 893.235 775 839.368 876 c 128,-1,32
 785.5 977 785.5 977 645.5 977 c 0,33,34
 503.5 977 503.5 977 409.229 865 c 128,-1,35
 314.959 753 314.959 753 272.001 532 c 0,36,37
 229.237 312 229.237 312 279.772 199 c 128,-1,38
 330.308 86 330.308 86 472.308 86 c 0,39,40
 612.308 86 612.308 86 705.343 186.5 c 128,-1,41
 798.378 287 798.378 287 835.699 479 c 2,29,-1
EndSplineSet
EndChar
StartChar: dotlessi
Encoding: 305 305 214
Width: 655
Flags: W
HStem: 0 106<-10 504> 956 107<176 332>
Fore
351.291 106 m 1,0,-1
 525.291 106 l 1,1,-1
 504.687 0 l 1,2,-1
 -29.3135 0 l 1,3,-1
 -8.70898 106 l 1,4,-1
 167.291 106 l 1,5,-1
 332.515 956 l 1,6,-1
 156.515 956 l 1,7,-1
 177.313 1063 l 1,8,-1
 537.313 1063 l 1,9,-1
 351.291 106 l 1,0,-1
EndSplineSet
EndChar
StartChar: IJ
Encoding: 306 306 215
Width: 1699
Flags: HW
HStem: -432 107<754.409 899.909> 0 106<9.88086 592.881> 1380 107<1145.92 1770.92>
Fore
512.127 -364 m 1,0,-1
 557.807 -129 l 1,1,-1
 671.807 -129 l 1,2,3
 655.562 -228 655.562 -228 690.135 -276.5 c 0,4,5
 724.708 -325 724.708 -325 812.708 -325 c 0,6,7
 931.708 -325 931.708 -325 993.286 -250 c 0,8,9
 1054.86 -175 1054.86 -175 1097.24 43 c 2,10,-1
 1357.13 1380 l 1,11,-1
 1125.13 1380 l 1,12,-1
 1145.92 1487 l 1,13,-1
 1770.92 1487 l 1,14,-1
 1750.13 1380 l 1,15,-1
 1560.13 1380 l 1,16,-1
 1298.68 35 l 2,17,18
 1250.67 -212 1250.67 -212 1130.29 -322 c 128,-1,19
 1009.91 -432 1009.91 -432 789.909 -432 c 0,20,21
 718.909 -432 718.909 -432 648.714 -415 c 0,22,23
 578.518 -398 578.518 -398 512.127 -364 c 1,0,-1
423.485 106 m 1,24,-1
 613.485 106 l 1,25,-1
 592.881 0 l 1,26,-1
 9.88086 0 l 1,27,-1
 30.4854 106 l 1,28,-1
 220.485 106 l 1,29,-1
 469.292 1386 l 1,30,-1
 279.292 1386 l 1,31,-1
 300.091 1493 l 1,32,-1
 883.091 1493 l 1,33,-1
 862.292 1386 l 1,34,-1
 672.292 1386 l 1,35,-1
 423.485 106 l 1,24,-1
EndSplineSet
Ligature: 0 0 'liga' I J
EndChar
StartChar: ij
Encoding: 307 307 216
Width: 1380
Flags: HW
HStem: -448.5 99<649.812 771.312> 0 106<-29.5078 504.492> 956 107<177.119 332.32> 1487 20G<478.924 525.424>
Fore
1182.03 1399.5 m 0,0,1
 1190.97 1445.5 1190.97 1445.5 1231.08 1479.5 c 128,-1,2
 1271.19 1513.5 1271.19 1513.5 1318.19 1513.5 c 0,3,4
 1364.19 1513.5 1364.19 1513.5 1391.08 1479.5 c 128,-1,5
 1417.97 1445.5 1417.97 1445.5 1409.03 1399.5 c 0,6,7
 1399.89 1352.5 1399.89 1352.5 1360.98 1319.5 c 0,8,9
 1322.06 1286.5 1322.06 1286.5 1274.06 1286.5 c 0,10,11
 1227.06 1286.5 1227.06 1286.5 1199.98 1319.5 c 0,12,13
 1172.89 1352.5 1172.89 1352.5 1182.03 1399.5 c 0,0,1
1142.08 962.5 m 1,14,-1
 968.084 962.5 l 1,15,-1
 988.882 1069.5 l 1,16,-1
 1346.88 1069.5 l 1,17,-1
 1120.04 -97.5 l 2,18,19
 1088.16 -261.5 1088.16 -261.5 972.487 -355 c 128,-1,20
 856.812 -448.5 856.812 -448.5 685.812 -448.5 c 0,21,22
 613.812 -448.5 613.812 -448.5 551.521 -432 c 0,23,24
 489.228 -415.5 489.228 -415.5 433.642 -382.5 c 1,25,-1
 476.211 -163.5 l 1,26,-1
 571.211 -163.5 l 1,27,28
 559.551 -259.5 559.551 -259.5 593.304 -304.5 c 128,-1,29
 627.057 -349.5 627.057 -349.5 709.057 -349.5 c 0,30,31
 800.057 -349.5 800.057 -349.5 855.511 -288 c 0,32,33
 910.965 -226.5 910.965 -226.5 936.04 -97.5 c 2,34,-1
 1142.08 962.5 l 1,14,-1
366.265 1393 m 0,35,36
 375.206 1439 375.206 1439 415.314 1473 c 0,37,38
 455.424 1507 455.424 1507 502.424 1507 c 0,39,40
 548.424 1507 548.424 1507 575.314 1473 c 0,41,42
 602.206 1439 602.206 1439 593.265 1393 c 0,43,44
 584.128 1346 584.128 1346 544.714 1313 c 0,45,46
 505.299 1280 505.299 1280 458.299 1280 c 128,-1,47
 411.299 1280 411.299 1280 384.214 1313 c 0,48,49
 357.128 1346 357.128 1346 366.265 1393 c 0,35,36
351.097 106 m 1,50,-1
 525.097 106 l 1,51,-1
 504.492 0 l 1,52,-1
 -29.5078 0 l 1,53,-1
 -8.90332 106 l 1,54,-1
 167.097 106 l 1,55,-1
 332.32 956 l 1,56,-1
 156.32 956 l 1,57,-1
 177.119 1063 l 1,58,-1
 537.119 1063 l 1,59,-1
 351.097 106 l 1,50,-1
EndSplineSet
Ligature: 0 0 'liga' i j
EndChar
StartChar: Lslash
Encoding: 321 321 225
Width: 1370
Flags: W
HStem: 0 106<-3 1175> 0 123<392 1175> 1386 107<267 437 268 829>
Fore
-22.1045 0 m 1,0,-1
 -1.50098 106 l 1,1,-1
 188.499 106 l 1,2,-1
 281.802 586 l 1,3,-1
 102.837 473 l 1,4,-1
 50.7197 565 l 1,5,-1
 309.21 727 l 1,6,-1
 437.307 1386 l 1,7,-1
 247.307 1386 l 1,8,-1
 268.104 1493 l 1,9,-1
 850.104 1493 l 1,10,-1
 829.307 1386 l 1,11,-1
 638.307 1386 l 1,12,-1
 538.006 870 l 1,13,-1
 888.936 1096 l 1,14,-1
 941.053 1004 l 1,15,-1
 510.599 729 l 1,16,-1
 392.804 123 l 1,17,-1
 1076.8 123 l 1,18,-1
 1125.4 373 l 1,19,-1
 1248.4 373 l 1,20,-1
 1175.9 0 l 1,21,-1
 -22.1045 0 l 1,0,-1
EndSplineSet
KernsSLIF: 366 -36 0 0 356 -167 0 0 253 -36 0 0 221 -206 0 0 217 -36 0 0 219 -36 0 0 218 -36 0 0 376 -206 0 0 255 -36 0 0 8217 -491 0 0 8221 -491 0 0 220 -36 0 0 121 -36 0 0 89 -206 0 0 87 -178 0 0 86 -243 0 0 85 -36 0 0 84 -167 0 0
EndChar
StartChar: lslash
Encoding: 322 322 226
Width: 664
Flags: W
HStem: 0 106<-62 452> 1450 106<220 374>
Fore
297.376 106 m 1,0,-1
 473.376 106 l 1,1,-1
 452.772 0 l 1,2,-1
 -81.2275 0 l 1,3,-1
 -60.624 106 l 1,4,-1
 113.376 106 l 1,5,-1
 224.951 680 l 1,6,-1
 68.29 584 l 1,7,-1
 24.0068 670 l 1,8,-1
 250.414 811 l 1,9,-1
 374.624 1450 l 1,10,-1
 200.624 1450 l 1,11,-1
 221.228 1556 l 1,12,-1
 579.228 1556 l 1,13,-1
 459.489 940 l 1,14,-1
 625.539 1038 l 1,15,-1
 668.822 952 l 1,16,-1
 434.414 811 l 1,17,-1
 297.376 106 l 1,0,-1
EndSplineSet
EndChar
StartChar: OE
Encoding: 338 338 176
Width: 2329
Flags: W
HStem: 0 106<787 1012> 0 123<1217 2019> 561 309<1363 1915> 748 122<1363 1831> 1161 332<1081 2228> 1370 123<1081 2146> 1386 107<1043 1253>
Fore
1012.5 106 m 1,0,-1
 1261.31 1386 l 1,1,-1
 1074.31 1386 l 2,2,3
 782.307 1386 782.307 1386 595.428 1222 c 128,-1,4
 408.55 1058 408.55 1058 348.681 750 c 0,5,6
 288.229 439 288.229 439 411.363 272.5 c 128,-1,7
 534.499 106 534.499 106 825.499 106 c 2,8,-1
 1012.5 106 l 1,0,-1
2019.9 0 m 1,9,-1
 790.896 0 l 2,10,11
 405.896 0 405.896 0 228.383 198 c 128,-1,12
 50.8701 396 50.8701 396 119.681 750 c 0,13,14
 187.908 1101 187.908 1101 441.507 1297 c 128,-1,15
 695.104 1493 695.104 1493 1081.1 1493 c 2,16,-1
 2293.1 1493 l 1,17,-1
 2228.57 1161 l 1,18,-1
 2105.57 1161 l 1,19,-1
 2146.2 1370 l 1,20,-1
 1460.2 1370 l 1,21,-1
 1363.01 870 l 1,22,-1
 1855.01 870 l 1,23,-1
 1891.36 1057 l 1,24,-1
 2012.36 1057 l 1,25,-1
 1915.94 561 l 1,26,-1
 1794.94 561 l 1,27,-1
 1831.29 748 l 1,28,-1
 1339.29 748 l 1,29,-1
 1217.8 123 l 1,30,-1
 1920.8 123 l 1,31,-1
 1961.43 332 l 1,32,-1
 2084.43 332 l 1,33,-1
 2019.9 0 l 1,9,-1
EndSplineSet
KernsSLIF: 45 38 0 0
EndChar
StartChar: oe
Encoding: 339 339 177
Width: 2025
Flags: W
HStem: -29 99<501 535 1323 1362> 512 106<1146 1919> 993 99<693 726 1493 1529>
Fore
526.294 70 m 0,0,1
 674.294 70 674.294 70 772.536 187 c 128,-1,2
 870.778 304 870.778 304 915.098 532 c 0,3,4
 959.416 760 959.416 760 906.562 876.5 c 128,-1,5
 853.707 993 853.707 993 705.706 993 c 0,6,7
 557.707 993 557.707 993 459.562 876.5 c 128,-1,8
 361.416 760 361.416 760 317.098 532 c 0,9,10
 272.778 304 272.778 304 326.036 187 c 128,-1,11
 379.294 70 379.294 70 526.294 70 c 0,0,1
1919.21 512 m 1,12,-1
 1126.21 512 l 1,13,-1
 1124.65 504 l 2,14,15
 1082.86 289 1082.86 289 1142.58 179.5 c 128,-1,16
 1202.29 70 1202.29 70 1360.29 70 c 0,17,18
 1481.29 70 1481.29 70 1571.14 133.5 c 128,-1,19
 1660.98 197 1660.98 197 1716.28 322 c 1,20,-1
 1864.28 322 l 1,21,22
 1786.26 147 1786.26 147 1650.66 59 c 128,-1,23
 1515.05 -29 1515.05 -29 1323.05 -29 c 0,24,25
 1193.05 -29 1193.05 -29 1099.07 20 c 128,-1,26
 1005.1 69 1005.1 69 950.954 166 c 1,27,28
 863.294 70 863.294 70 750.172 20.5 c 128,-1,29
 637.05 -29 637.05 -29 507.05 -29 c 0,30,31
 275.05 -29 275.05 -29 163.888 124.5 c 128,-1,32
 52.7246 278 52.7246 278 102.098 532 c 0,33,34
 151.47 786 151.47 786 321.71 939 c 128,-1,35
 491.95 1092 491.95 1092 724.95 1092 c 0,36,37
 856.95 1092 856.95 1092 950.328 1042.5 c 128,-1,38
 1043.71 993 1043.71 993 1095.05 897 c 1,39,40
 1186.71 993 1186.71 993 1296.33 1042.5 c 128,-1,41
 1405.95 1092 1405.95 1092 1527.95 1092 c 0,42,43
 1769.95 1092 1769.95 1092 1869.58 943.5 c 128,-1,44
 1969.22 795 1969.22 795 1919.21 512 c 1,12,-1
1722.81 618 m 1,45,46
 1752.97 804 1752.97 804 1698.84 898.5 c 128,-1,47
 1644.71 993 1644.71 993 1508.71 993 c 0,48,49
 1381.71 993 1381.71 993 1290.24 898 c 128,-1,50
 1198.77 803 1198.77 803 1146.81 618 c 1,51,-1
 1722.81 618 l 1,45,46
EndSplineSet
EndChar
StartChar: longs
Encoding: 383 383 65535
Width: 758
Flags: HW
TeX: 0 0 0 0
HStem: 0 106<-58 518> 956 107<128 284 489 765> 1458 98<737 771>
Fore
303.376 106 m 1,12,-1
 539.376 106 l 1,13,-1
 518.772 0 l 1,14,-1
 -77.2275 0 l 1,15,-1
 -56.624 106 l 1,16,-1
 119.376 106 l 1,17,-1
 284.6 956 l 1,18,-1
 108.6 956 l 1,19,-1
 129.398 1063 l 1,20,-1
 305.398 1063 l 1,21,-1
 331.251 1196 l 2,22,23
 365.851 1374 365.851 1374 476.039 1465 c 128,-1,24
 586.228 1556 586.228 1556 765.228 1556 c 0,25,26
 832.228 1556 832.228 1556 896.896 1544 c 128,-1,27
 961.562 1532 961.562 1532 1022.7 1507 c 1,28,-1
 983.438 1305 l 1,0,-1
 886.438 1305 l 1,1,2
 900.017 1380 900.017 1380 866.098 1419 c 128,-1,3
 832.179 1458 832.179 1458 753.179 1458 c 0,4,5
 650.179 1458 650.179 1458 597.196 1401.5 c 128,-1,6
 544.213 1345 544.213 1345 516.028 1200 c 2,7,-1
 303.376 106 l 1,8,-1
EndSplineSet
EndChar
StartChar: florin
Encoding: 402 402 166
Width: 1303
Flags: W
HStem: -432 98<82 116> 715 106<365 598 823 1108> 1421 99<1162 1195>
Fore
730.879 1135 m 1,0,1
 790.033 1321 790.033 1321 909.874 1420.5 c 128,-1,2
 1029.71 1520 1029.71 1520 1195.71 1520 c 0,3,4
 1246.71 1520 1246.71 1520 1303.48 1508.5 c 128,-1,5
 1360.24 1497 1360.24 1497 1425.97 1475 c 1,6,-1
 1382.82 1253 l 1,7,-1
 1284.82 1253 l 1,8,9
 1295.53 1339 1295.53 1339 1266 1380 c 128,-1,10
 1236.47 1421 1236.47 1421 1163.47 1421 c 0,11,12
 1083.47 1421 1083.47 1421 1026.46 1351.5 c 128,-1,13
 969.453 1282 969.453 1282 915.408 1112 c 1,14,-1
 823.844 821 l 1,15,-1
 1128.84 821 l 1,16,-1
 1108.24 715 l 1,17,-1
 789.239 715 l 1,18,-1
 549.121 -47 l 1,19,20
 489.967 -233 489.967 -233 369.126 -332.5 c 128,-1,21
 248.285 -432 248.285 -432 82.2852 -432 c 0,22,23
 32.2852 -432 32.2852 -432 -23.5771 -421 c 128,-1,24
 -79.4385 -410 -79.4385 -410 -145.968 -387 c 1,25,-1
 -103.01 -166 l 1,26,-1
 -5.00977 -166 l 1,27,28
 -15.7266 -252 -15.7266 -252 13.3037 -293 c 128,-1,29
 42.334 -334 42.334 -334 114.334 -334 c 0,30,31
 194.334 -334 194.334 -334 251.44 -264 c 128,-1,32
 308.547 -194 308.547 -194 362.397 -25 c 2,33,-1
 598.239 715 l 1,34,-1
 346.239 715 l 1,35,-1
 366.844 821 l 1,36,-1
 631.844 821 l 1,37,-1
 730.879 1135 l 1,0,1
EndSplineSet
EndChar
StartChar: uni0237
Encoding: 567 567 173
Width: 635
Flags: W
HStem: -455 99<-80 -54> 956 107<222 376>
Fore
376.736 956 m 1,0,-1
 202.736 956 l 1,1,-1
 223.534 1063 l 1,2,-1
 581.534 1063 l 1,3,-1
 354.692 -104 l 2,4,5
 322.814 -268 322.814 -268 207.14 -361.5 c 128,-1,6
 91.4658 -455 91.4658 -455 -79.5342 -455 c 0,7,8
 -151.534 -455 -151.534 -455 -213.827 -438.5 c 128,-1,9
 -276.12 -422 -276.12 -422 -331.705 -389 c 1,10,-1
 -289.137 -170 l 1,11,-1
 -194.137 -170 l 1,12,13
 -205.797 -266 -205.797 -266 -172.044 -311 c 128,-1,14
 -138.291 -356 -138.291 -356 -56.291 -356 c 0,15,16
 34.709 -356 34.709 -356 90.1631 -294.5 c 128,-1,17
 145.618 -233 145.618 -233 170.692 -104 c 2,18,-1
 376.736 956 l 1,0,-1
EndSplineSet
EndChar
StartChar: uni02BB
Encoding: 699 699 173
Width: 651
Flags: W
Fore
582.628 1440 m 1,0,1
 493.188 1376 493.188 1376 442.165 1291 c 128,-1,2
 391.143 1206 391.143 1206 366.067 1077 c 2,3,-1
 353.821 1014 l 1,4,-1
 159.821 1014 l 1,5,6
 194.644 1188 194.644 1188 280.566 1308.5 c 128,-1,7
 366.489 1429 366.489 1429 520.178 1520 c 1,8,-1
 582.628 1440 l 1,0,1
EndSplineSet
KernsSLIF: 193 -264 0 0 194 -264 0 0 195 -264 0 0 192 -264 0 0 198 -225 0 0 196 -264 0 0 74 47 0 0 65 -264 0 0
EndChar
StartChar: circumflex
Encoding: 710 710 215
Width: 1024
Flags: HW
Fore
657 1638 m 1,0,-1
 825 1638 l 1,1,-1
 986 1262 l 1,2,-1
 870 1262 l 1,3,-1
 718 1522 l 1,4,-1
 464 1262 l 1,5,-1
 348 1262 l 1,6,-1
 657 1638 l 1,0,-1
EndSplineSet
EndChar
StartChar: caron
Encoding: 711 711 224
Width: 1024
Flags: HW
Fore
581 1262 m 1,0,-1
 420 1638 l 1,1,-1
 536 1638 l 1,2,-1
 688 1378 l 1,3,-1
 942 1638 l 1,4,-1
 1058 1638 l 1,5,-1
 749 1262 l 1,6,-1
 581 1262 l 1,0,-1
EndSplineSet
EndChar
StartChar: breve
Encoding: 728 728 218
Width: 1024
Flags: HW
Fore
409 1608 m 1,0,-1
 505 1608 l 1,1,2
 503 1529 503 1529 548 1494 c 128,-1,3
 593 1458 593 1458 693 1458 c 0,4,5
 793 1458 793 1458 852 1494 c 128,-1,6
 911 1529 911 1529 939 1608 c 1,7,-1
 1035 1608 l 1,8,9
 997 1465 997 1465 904 1393 c 128,-1,10
 811 1321 811 1321 666 1321 c 0,11,12
 521 1321 521 1321 456 1393 c 128,-1,13
 391 1465 391 1465 409 1608 c 1,0,-1
EndSplineSet
LCarets: 0 65535 '    ' 1 0 
Ligature: 0 1 'liga' space uni0306
EndChar
StartChar: dotaccent
Encoding: 729 729 219
Width: 1024
Flags: HW
Fore
725 1569 m 0,0,1
 773 1569 773 1569 801 1534 c 128,-1,2
 828 1500 828 1500 819 1452 c 0,3,4
 809 1401 809 1401 770 1368 c 128,-1,5
 730 1335 730 1335 679 1335 c 0,6,7
 628 1335 628 1335 602 1368 c 128,-1,8
 575 1401 575 1401 585 1452 c 0,9,10
 594 1500 594 1500 636 1534 c 128,-1,11
 677 1569 677 1569 725 1569 c 0,0,1
EndSplineSet
LCarets: 0 65535 '    ' 1 0 
Ligature: 0 1 'liga' space uni0307
EndChar
StartChar: ring
Encoding: 730 730 220
Width: 1024
Flags: HW
HStem: 1249 123<648 674> 1675 123<729 755>
Fore
976 1524 m 0,0,1
 954 1409 954 1409 859 1329 c 128,-1,2
 764 1249 764 1249 649 1249 c 0,3,4
 534 1249 534 1249 470 1329 c 128,-1,5
 406 1409 406 1409 428 1524 c 0,6,7
 450 1639 450 1639 545 1718 c 128,-1,8
 640 1798 640 1798 755 1798 c 0,9,10
 870 1798 870 1798 934 1718 c 128,-1,11
 998 1639 998 1639 976 1524 c 0,0,1
854 1524 m 0,12,13
 866 1587 866 1587 831 1631 c 128,-1,14
 795 1675 795 1675 731 1675 c 0,15,16
 666 1675 666 1675 614 1632 c 128,-1,17
 563 1588 563 1588 550 1524 c 0,18,19
 537 1459 537 1459 573 1416 c 128,-1,20
 608 1372 608 1372 673 1372 c 0,21,22
 737 1372 737 1372 789 1416 c 128,-1,23
 842 1460 842 1460 854 1524 c 0,12,13
EndSplineSet
LCarets: 0 65535 '    ' 1 0 
Ligature: 0 1 'liga' space uni030A
EndChar
StartChar: ogonek
Encoding: 731 731 223
Width: 1024
Flags: W
HStem: -393 119<530.805 574.936> -20 20G<499.195 593.195>
Fore
499.195 0 m 1,0,-1
 593.195 0 l 1,1,-1
 591.807 -2 l 2,2,3
 480.898 -125 480.898 -125 471.763 -172 c 0,4,5
 462.821 -218 462.821 -218 490.878 -246 c 128,-1,6
 518.936 -274 518.936 -274 574.936 -274 c 0,7,8
 601.936 -274 601.936 -274 632.199 -267.5 c 128,-1,9
 662.463 -261 662.463 -261 694.989 -248 c 1,10,-1
 669.303 -375 l 1,11,12
 631.554 -384 631.554 -384 597.179 -388.5 c 128,-1,13
 562.805 -393 562.805 -393 530.805 -393 c 0,14,15
 417.805 -393 417.805 -393 364.454 -348.5 c 128,-1,16
 311.104 -304 311.104 -304 326.849 -223 c 0,17,18
 336.374 -174 336.374 -174 376.578 -121.5 c 128,-1,19
 416.783 -69 416.783 -69 499.195 0 c 1,0,-1
EndSplineSet
Ligature: 0 1 'liga' space uni0328
EndChar
StartChar: tilde
Encoding: 732 732 216
Width: 1024
Flags: HW
Fore
703 1370 m 1,0,-1
 657 1425 l 2,1,2
 636 1449 636 1449 621 1456 c 128,-1,3
 606 1464 606 1464 587 1464 c 0,4,5
 545 1464 545 1464 513 1424 c 128,-1,6
 481 1385 481 1385 462 1309 c 1,7,-1
 366 1309 l 1,8,9
 394 1444 394 1444 459 1518 c 128,-1,10
 524 1591 524 1591 615 1591 c 0,11,12
 653 1591 653 1591 683 1577 c 128,-1,13
 712 1563 712 1563 743 1530 c 1,14,-1
 789 1475 l 2,15,16
 807 1452 807 1452 823 1444 c 128,-1,17
 838 1436 838 1436 859 1436 c 0,18,19
 902 1436 902 1436 934 1476 c 128,-1,20
 966 1516 966 1516 984 1591 c 1,21,-1
 1080 1591 l 1,22,23
 1052 1456 1052 1456 987 1382 c 128,-1,24
 922 1309 922 1309 831 1309 c 0,25,26
 793 1309 793 1309 763 1323 c 128,-1,27
 734 1337 734 1337 703 1370 c 1,0,-1
EndSplineSet
LCarets: 0 65535 '    ' 1 0 
Ligature: 0 1 'liga' space tildecomb
EndChar
StartChar: hungarumlaut
Encoding: 733 733 222
Width: 1024
Flags: HW
Fore
649 1638 m 1,0,-1
 819 1638 l 1,1,-1
 501 1262 l 1,2,-1
 387 1262 l 1,3,-1
 649 1638 l 1,0,-1
979 1638 m 1,4,-1
 1157 1638 l 1,5,-1
 796 1262 l 1,6,-1
 680 1262 l 1,7,-1
 979 1638 l 1,4,-1
EndSplineSet
LCarets: 0 65535 '    ' 1 0 
Ligature: 0 1 'liga' space uni030B
EndChar
StartChar: uni0312
Encoding: 786 786 223
Width: 651
Flags: HW
TeX: 0 0 0 0
Fore
582.628 1440 m 1,0,1
 493.188 1376 493.188 1376 442.165 1291 c 128,-1,2
 391.143 1206 391.143 1206 366.067 1077 c 2,3,-1
 353.821 1014 l 1,4,-1
 159.821 1014 l 1,5,6
 194.644 1188 194.644 1188 280.566 1308.5 c 128,-1,7
 366.489 1429 366.489 1429 520.178 1520 c 1,8,-1
 582.628 1440 l 1,0,1
EndSplineSet
EndChar
StartChar: uni0326
Encoding: 806 806 223
Width: 1024
Flags: HW
Fore
121 -409 m 1,0,1
 205 -367 205 -367 251 -311 c 128,-1,2
 297 -255 297 -255 312 -175 c 2,3,-1
 317 -153 l 1,4,-1
 475 -153 l 1,5,6
 448 -256 448 -256 375 -329 c 128,-1,7
 303 -403 303 -403 175 -457 c 1,8,-1
 121 -409 l 1,0,1
EndSplineSet
EndChar
StartChar: Omega
Encoding: 937 937 159
Width: 1698
Flags: W
HStem: 0 164<128 569 1004 1425> 0 301<36 569 1365 1425> 1413 107<970 1006>
Fore
1004.15 164 m 1,0,-1
 1340.15 164 l 1,1,-1
 1366.78 301 l 1,2,-1
 1483.78 301 l 1,3,-1
 1425.27 0 l 1,4,-1
 833.271 0 l 1,5,-1
 868.648 182 l 1,6,7
 1062.25 252 1062.25 252 1184.98 407.5 c 128,-1,8
 1307.71 563 1307.71 563 1352.8 795 c 0,9,10
 1407.04 1074 1407.04 1074 1302.98 1243.5 c 128,-1,11
 1198.93 1413 1198.93 1413 976.931 1413 c 0,12,13
 754.931 1413 754.931 1413 584.982 1243.5 c 128,-1,14
 415.035 1074 415.035 1074 360.804 795 c 0,15,16
 315.513 562 315.513 562 377.384 407 c 128,-1,17
 439.255 252 439.255 252 604.648 182 c 1,18,-1
 569.271 0 l 1,19,-1
 -20.7295 0 l 1,20,-1
 37.7793 301 l 1,21,-1
 154.779 301 l 1,22,-1
 128.149 164 l 1,23,-1
 462.149 164 l 1,24,25
 270.061 251 270.061 251 182.271 427 c 128,-1,26
 94.4824 603 94.4824 603 136.08 817 c 0,27,28
 165.431 968 165.431 968 248.395 1099 c 128,-1,29
 331.358 1230 331.358 1230 461.38 1333 c 0,30,31
 578.068 1424 578.068 1424 715.398 1472 c 128,-1,32
 852.729 1520 852.729 1520 997.729 1520 c 0,33,34
 1142.73 1520 1142.73 1520 1260.5 1472.5 c 128,-1,35
 1378.26 1425 1378.26 1425 1459.38 1333 c 0,36,37
 1550.36 1230 1550.36 1230 1582.8 1098.5 c 128,-1,38
 1615.24 967 1615.24 967 1586.08 817 c 0,39,40
 1544.68 604 1544.68 604 1387.87 427.5 c 128,-1,41
 1231.06 251 1231.06 251 1004.15 164 c 1,0,-1
EndSplineSet
EndChar
StartChar: pi
Encoding: 960 960 155
Width: 1346
Flags: W
HStem: 0 106<0 490 670 1158> 956 107<176 332 177 995 177 1354>
Fore
-19.3135 0 m 1,0,-1
 1.29102 106 l 1,1,-1
 167.291 106 l 1,2,-1
 332.515 956 l 1,3,-1
 156.515 956 l 1,4,-1
 177.313 1063 l 1,5,-1
 1375.31 1063 l 1,6,-1
 1354.51 956 l 1,7,-1
 1180.51 956 l 1,8,-1
 1015.29 106 l 1,9,-1
 1179.29 106 l 1,10,-1
 1158.69 0 l 1,11,-1
 650.687 0 l 1,12,-1
 671.291 106 l 1,13,-1
 830.291 106 l 1,14,-1
 995.515 956 l 1,15,-1
 516.515 956 l 1,16,-1
 351.291 106 l 1,17,-1
 511.291 106 l 1,18,-1
 490.687 0 l 1,19,-1
 -19.3135 0 l 1,0,-1
EndSplineSet
EndChar
StartChar: afii10051
Encoding: 1026 1026 158
Width: 1636
Flags: W
HStem: -443 107<878 921> 0 107<135 696> 1374 119<109 573 109 1306>
Fore
1270.95 463 m 2,0,1
 1305.94 643 1305.94 643 1238.24 696 c 0,2,3
 1133.98 777 1133.98 777 942.318 753 c 0,4,5
 827.598 739 827.598 739 719.909 648 c 0,6,7
 618.192 562 618.192 562 596.616 451 c 2,8,-1
 529.749 107 l 1,9,-1
 717.749 107 l 1,10,-1
 696.95 0 l 1,11,-1
 115.95 0 l 1,12,-1
 136.749 107 l 1,13,-1
 326.749 107 l 1,14,-1
 573.029 1374 l 1,15,-1
 209.029 1374 l 1,16,-1
 163.738 1141 l 1,17,-1
 40.7383 1141 l 1,18,-1
 109.16 1493 l 1,19,-1
 1452.16 1493 l 1,20,-1
 1383.74 1141 l 1,21,-1
 1260.74 1141 l 1,22,-1
 1306.03 1374 l 1,23,-1
 776.029 1374 l 1,24,-1
 647.738 714 l 1,25,26
 731.951 854 731.951 854 995.338 892 c 0,27,28
 1293.7 935 1293.7 935 1420.43 769 c 0,29,30
 1508.27 655 1508.27 655 1470.95 463 c 2,31,-1
 1385.62 24 l 2,32,33
 1337.6 -223 1337.6 -223 1217.22 -333 c 0,34,35
 1096.84 -443 1096.84 -443 879.84 -443 c 0,36,37
 808.84 -443 808.84 -443 738.645 -426 c 128,-1,38
 668.449 -409 668.449 -409 602.058 -375 c 1,39,-1
 647.737 -140 l 1,40,-1
 761.737 -140 l 1,41,42
 745.493 -239 745.493 -239 780.066 -287.5 c 128,-1,43
 814.639 -336 814.639 -336 902.639 -336 c 0,44,45
 1021.64 -336 1021.64 -336 1083.22 -261 c 0,46,47
 1144.8 -186 1144.8 -186 1187.17 32 c 2,48,-1
 1270.95 463 l 2,0,1
EndSplineSet
EndChar
StartChar: afii10053
Encoding: 1028 1028 160
Width: 1567
Flags: W
HStem: -29 107<670 720> 574 242<359 1031> 694 122<359 931> 1413 107<953 998>
Fore
334.989 694 m 1,0,1
 287.619 404 287.619 404 370.296 248 c 0,2,3
 460.251 78 460.251 78 699.251 78 c 0,4,5
 866.251 78 866.251 78 989.704 157.5 c 128,-1,6
 1113.16 237 1113.16 237 1191.87 395 c 1,7,-1
 1375.87 395 l 1,8,9
 1269.24 186 1269.24 186 1092.85 78.5 c 128,-1,10
 916.452 -29 916.452 -29 678.452 -29 c 0,11,12
 532.452 -29 532.452 -29 417.172 21 c 128,-1,13
 301.891 71 301.891 71 223.745 168 c 0,14,15
 133.516 280 133.516 280 107.118 422 c 0,16,17
 79.9141 565 79.9141 565 114.902 745 c 0,18,19
 182.547 1093 182.547 1093 425.047 1306.5 c 128,-1,20
 667.548 1520 667.548 1520 996.548 1520 c 0,21,22
 1118.55 1520 1118.55 1520 1250.33 1488 c 128,-1,23
 1382.11 1456 1382.11 1456 1528.47 1391 c 1,24,-1
 1461.61 1047 l 1,25,-1
 1348.61 1047 l 1,26,27
 1348.15 1235 1348.15 1235 1253.95 1324 c 128,-1,28
 1159.75 1413 1159.75 1413 958.749 1413 c 0,29,30
 719.749 1413 719.749 1413 563.898 1244 c 0,31,32
 425.547 1093 425.547 1093 359.704 816 c 1,33,-1
 955.704 816 l 1,34,-1
 979.807 940 l 1,35,-1
 1102.81 940 l 1,36,-1
 1031.66 574 l 1,37,-1
 908.664 574 l 1,38,-1
 931.989 694 l 1,39,-1
 334.989 694 l 1,0,1
EndSplineSet
EndChar
StartChar: afii10054
Encoding: 1029 1029 161
Width: 1403
Flags: W
HStem: -29 107<522 588> 1413 107<794 860>
Fore
59.085 72 m 1,0,-1
 125.174 412 l 1,1,-1
 239.979 411 l 1,2,3
 211.936 241 211.936 241 290.19 160 c 0,4,5
 367.251 78 367.251 78 558.251 78 c 0,6,7
 736.251 78 736.251 78 843.455 148.5 c 128,-1,8
 950.659 219 950.659 219 976.9 354 c 0,9,10
 997.894 462 997.894 462 952.667 520 c 128,-1,11
 907.441 578 907.441 578 736.132 633 c 2,12,-1
 550.601 692 l 2,13,14
 349.235 757 349.235 757 280.59 854 c 128,-1,15
 211.945 951 211.945 951 244.796 1120 c 0,16,17
 281.728 1310 281.728 1310 437.138 1415 c 128,-1,18
 592.548 1520 592.548 1520 836.548 1520 c 0,19,20
 940.548 1520 940.548 1520 1060.17 1497.5 c 128,-1,21
 1179.8 1475 1179.8 1475 1311.44 1432 c 1,22,-1
 1249.63 1114 l 1,23,-1
 1136.63 1114 l 1,24,25
 1150.34 1272 1150.34 1272 1075.54 1342.5 c 128,-1,26
 1000.75 1413 1000.75 1413 819.749 1413 c 0,27,28
 661.749 1413 661.749 1413 566.711 1348.5 c 128,-1,29
 471.674 1284 471.674 1284 447.765 1161 c 0,30,31
 426.967 1054 426.967 1054 477.109 993 c 128,-1,32
 527.252 932 527.252 932 716.589 872 c 2,33,-1
 890.898 817 l 2,34,35
 1082.04 756 1082.04 756 1150.17 661.5 c 128,-1,36
 1218.3 567 1218.3 567 1187.4 408 c 0,37,38
 1145.22 191 1145.22 191 984.834 81 c 0,39,40
 824.452 -29 824.452 -29 549.452 -29 c 0,41,42
 426.452 -29 426.452 -29 303.812 -4 c 128,-1,43
 181.172 21 181.172 21 59.085 72 c 1,0,-1
EndSplineSet
EndChar
StartChar: afii10055
Encoding: 1030 1030 162
Width: 809
Flags: W
HStem: 0 106<-13 550> 1386 107<257 427 258 820>
Fore
381.499 106 m 1,0,-1
 571.499 106 l 1,1,-1
 550.896 0 l 1,2,-1
 -32.1045 0 l 1,3,-1
 -11.501 106 l 1,4,-1
 178.499 106 l 1,5,-1
 427.307 1386 l 1,6,-1
 237.307 1386 l 1,7,-1
 258.104 1493 l 1,8,-1
 841.104 1493 l 1,9,-1
 820.307 1386 l 1,10,-1
 630.307 1386 l 1,11,-1
 381.499 106 l 1,0,-1
EndSplineSet
EndChar
StartChar: afii10057
Encoding: 1032 1032 164
Width: 821
Flags: W
HStem: -426 107<-69 -42> 1386 107<287 499 288 892>
Fore
-345.29 -358 m 1,0,-1
 -299.61 -123 l 1,1,-1
 -185.61 -123 l 1,2,3
 -201.854 -222 -201.854 -222 -167.282 -270.5 c 128,-1,4
 -132.709 -319 -132.709 -319 -44.709 -319 c 0,5,6
 74.291 -319 74.291 -319 135.869 -244 c 128,-1,7
 197.448 -169 197.448 -169 239.822 49 c 2,8,-1
 499.709 1386 l 1,9,-1
 267.709 1386 l 1,10,-1
 288.508 1493 l 1,11,-1
 913.508 1493 l 1,12,-1
 892.709 1386 l 1,13,-1
 702.709 1386 l 1,14,-1
 441.268 41 l 2,15,16
 393.256 -206 393.256 -206 272.874 -316 c 128,-1,17
 152.492 -426 152.492 -426 -67.5078 -426 c 0,18,19
 -138.508 -426 -138.508 -426 -208.703 -409 c 128,-1,20
 -278.899 -392 -278.899 -392 -345.29 -358 c 1,0,-1
EndSplineSet
EndChar
StartChar: afii10058
Encoding: 1033 1033 165
Width: 2182
Flags: W
HStem: -36 107<37 64> 0 106<860 1440> 748 122<1403 1544> 1386 107<324 494 325 1693>
Fore
841.394 0 m 1,0,-1
 861.998 106 l 1,1,-1
 1052 106 l 1,2,-1
 1297.7 1370 l 1,3,-1
 692.695 1370 l 1,4,-1
 512.172 431 l 1,5,6
 465.354 185 465.354 185 343.778 74 c 0,7,8
 223.396 -36 223.396 -36 37.3965 -36 c 0,9,10
 -1.60352 -36 -1.60352 -36 -71.7988 -19 c 128,-1,11
 -141.995 -2 -141.995 -2 -208.386 32 c 1,12,-1
 -175.925 199 l 1,13,-1
 -61.9248 199 l 1,14,15
 -67.3672 171 -67.3672 171 -30.2803 120 c 0,16,17
 4.19531 71 4.19531 71 60.1953 71 c 0,18,19
 145.195 71 145.195 71 206.773 146 c 0,20,21
 268.546 222 268.546 222 310.727 439 c 2,22,-1
 494.805 1386 l 1,23,-1
 304.805 1386 l 1,24,-1
 325.604 1493 l 1,25,-1
 1714.6 1493 l 1,26,-1
 1693.8 1386 l 1,27,-1
 1503.8 1386 l 1,28,-1
 1403.5 870 l 1,29,-1
 1523.5 870 l 1,30,31
 1862.23 848 1862.23 848 1974.4 710 c 0,32,33
 2054.35 612 2054.35 612 2019.37 432 c 0,34,35
 1976.21 210 1976.21 210 1815.8 105 c 128,-1,36
 1655.39 0 1655.39 0 1397.39 0 c 2,37,-1
 841.394 0 l 1,0,-1
1306 106 m 1,38,-1
 1420 106 l 2,39,40
 1561 106 1561 106 1659.16 184 c 128,-1,41
 1757.32 262 1757.32 262 1790.37 432 c 0,42,43
 1821.66 593 1821.66 593 1754.23 670.5 c 128,-1,44
 1686.79 748 1686.79 748 1544.79 748 c 2,45,-1
 1379.79 748 l 1,46,-1
 1255 106 l 1,47,-1
 1306 106 l 1,38,-1
EndSplineSet
EndChar
StartChar: afii10059
Encoding: 1034 1034 166
Width: 2290
Flags: W
HStem: 0 106<-13 550 964 1536> 748 122<530 1280 1507 1648> 1386 107<257 427 258 820 1234 1404 1235 1797>
Fore
944.896 0 m 1,0,-1
 965.499 106 l 1,1,-1
 1155.5 106 l 1,2,-1
 1280.29 748 l 1,3,-1
 506.292 748 l 1,4,-1
 381.499 106 l 1,5,-1
 571.499 106 l 1,6,-1
 550.896 0 l 1,7,-1
 -32.1045 0 l 1,8,-1
 -11.501 106 l 1,9,-1
 178.499 106 l 1,10,-1
 427.307 1386 l 1,11,-1
 237.307 1386 l 1,12,-1
 258.104 1493 l 1,13,-1
 841.104 1493 l 1,14,-1
 820.307 1386 l 1,15,-1
 630.307 1386 l 1,16,-1
 530.006 870 l 1,17,-1
 1304.01 870 l 1,18,-1
 1404.31 1386 l 1,19,-1
 1214.31 1386 l 1,20,-1
 1235.1 1493 l 1,21,-1
 1818.1 1493 l 1,22,-1
 1797.31 1386 l 1,23,-1
 1607.31 1386 l 1,24,-1
 1507.01 870 l 1,25,-1
 1627.01 870 l 1,26,27
 1965.73 848 1965.73 848 2078.91 710 c 0,28,29
 2157.86 612 2157.86 612 2122.87 432 c 0,30,31
 2079.71 210 2079.71 210 1919.3 105 c 128,-1,32
 1758.9 0 1758.9 0 1500.9 0 c 2,33,-1
 1388.9 0 l 1,34,-1
 944.896 0 l 1,0,-1
1409.5 106 m 1,35,-1
 1523.5 106 l 2,36,37
 1664.5 106 1664.5 106 1762.66 184 c 128,-1,38
 1860.82 262 1860.82 262 1893.87 432 c 0,39,40
 1925.16 593 1925.16 593 1857.73 670.5 c 128,-1,41
 1790.29 748 1790.29 748 1648.29 748 c 2,42,-1
 1483.29 748 l 1,43,-1
 1358.5 106 l 1,44,-1
 1409.5 106 l 1,35,-1
EndSplineSet
EndChar
StartChar: afii10060
Encoding: 1035 1035 167
Width: 1786
Flags: W
HStem: 0 107<92 653 972 1527> 1374 119<66 529 66 1262>
Fore
1409.1 1493 m 1,0,-1
 1340.68 1141 l 1,1,-1
 1217.68 1141 l 1,2,-1
 1262.97 1374 l 1,3,-1
 732.974 1374 l 1,4,-1
 604.683 714 l 1,5,6
 688.896 854 688.896 854 952.282 892 c 0,7,8
 1250.64 935 1250.64 935 1377.37 769 c 0,9,10
 1465.21 655 1465.21 655 1427.89 463 c 2,11,-1
 1358.69 107 l 1,12,-1
 1548.69 107 l 1,13,-1
 1527.9 0 l 1,14,-1
 952.896 0 l 1,15,-1
 973.693 107 l 1,16,-1
 1158.69 107 l 1,17,-1
 1227.89 463 l 2,18,19
 1262.88 643 1262.88 643 1195.18 696 c 0,20,21
 1092.54 775 1092.54 775 899.264 753 c 0,22,23
 784.542 739 784.542 739 676.854 648 c 0,24,25
 575.137 562 575.137 562 553.561 451 c 2,26,-1
 486.693 107 l 1,27,-1
 674.693 107 l 1,28,-1
 653.896 0 l 1,29,-1
 72.8955 0 l 1,30,-1
 93.6934 107 l 1,31,-1
 283.693 107 l 1,32,-1
 529.974 1374 l 1,33,-1
 165.974 1374 l 1,34,-1
 120.683 1141 l 1,35,-1
 -2.31738 1141 l 1,36,-1
 66.1045 1493 l 1,37,-1
 1409.1 1493 l 1,0,-1
EndSplineSet
EndChar
StartChar: afii10145
Encoding: 1039 1039 171
Width: 1786
Flags: W
HStem: 0 107<18 678 1389 1559> 0 123<416 678 416 1559> 1387 106<288 458 289 851 1265 1435 1266 1828>
Fore
678.093 0 m 1,0,-1
 -0.907227 0 l 1,1,-1
 19.8916 107 l 1,2,-1
 209.892 107 l 1,3,-1
 458.698 1387 l 1,4,-1
 268.698 1387 l 1,5,-1
 289.303 1493 l 1,6,-1
 872.303 1493 l 1,7,-1
 851.698 1387 l 1,8,-1
 661.698 1387 l 1,9,-1
 416.002 123 l 1,10,-1
 1190 123 l 1,11,-1
 1435.7 1387 l 1,12,-1
 1245.7 1387 l 1,13,-1
 1266.3 1493 l 1,14,-1
 1849.3 1493 l 1,15,-1
 1828.7 1387 l 1,16,-1
 1638.7 1387 l 1,17,-1
 1389.89 107 l 1,18,-1
 1579.89 107 l 1,19,-1
 1559.09 0 l 1,20,-1
 880.093 0 l 1,21,-1
 817.697 -321 l 1,22,-1
 615.697 -321 l 1,23,-1
 678.093 0 l 1,0,-1
EndSplineSet
EndChar
StartChar: afii10017
Encoding: 1040 1040 172
Width: 1479
Flags: W
HStem: 0 106<-138 262 830 1353> 434 107<370 936> 1473 20G<796.104 964.104>
Fore
370.055 541 m 1,0,-1
 918.055 541 l 1,1,-1
 782.064 1251 l 1,2,-1
 370.055 541 l 1,0,-1
-157.104 0 m 1,3,-1
 -136.501 106 l 1,4,-1
 -5.50098 106 l 1,5,-1
 796.104 1493 l 1,6,-1
 964.104 1493 l 1,7,-1
 1227.5 106 l 1,8,-1
 1374.5 106 l 1,9,-1
 1353.9 0 l 1,10,-1
 810.896 0 l 1,11,-1
 831.499 106 l 1,12,-1
 997.499 106 l 1,13,-1
 936.256 434 l 1,14,-1
 308.256 434 l 1,15,-1
 119.499 106 l 1,16,-1
 283.499 106 l 1,17,-1
 262.896 0 l 1,18,-1
 -157.104 0 l 1,3,-1
EndSplineSet
EndChar
StartChar: afii10018
Encoding: 1041 1041 173
Width: 1505
Flags: W
HStem: 0 106<-32.1045 806.396> 756 106<507.847 972.45> 1370 123<627.196 1459.1> 1386 107<258.104 427.307>
Fore
381.499 106 m 1,0,-1
 680.499 106 l 2,1,2
 860.499 106 860.499 106 958.661 184 c 0,3,4
 1056.82 262 1056.82 262 1089.87 432 c 0,5,6
 1122.72 601 1122.72 601 1055.28 678.5 c 0,7,8
 987.847 756 987.847 756 806.847 756 c 2,9,-1
 507.847 756 l 1,10,-1
 381.499 106 l 1,0,-1
258.104 1493 m 1,11,-1
 1459.1 1493 l 1,12,-1
 1394.57 1161 l 1,13,-1
 1271.57 1161 l 1,14,-1
 1312.2 1370 l 1,15,-1
 627.196 1370 l 1,16,-1
 528.451 862 l 1,17,-1
 782.451 862 l 2,18,19
 1162.45 862 1162.45 862 1271.79 694 c 1,20,21
 1346.86 576 1346.86 576 1318.87 432 c 0,22,23
 1275.71 210 1275.71 210 1115.3 105 c 0,24,25
 954.896 0 954.896 0 657.896 0 c 2,26,-1
 -32.1045 0 l 1,27,-1
 -11.501 106 l 1,28,-1
 178.499 106 l 1,29,-1
 427.307 1386 l 1,30,-1
 237.307 1386 l 1,31,-1
 258.104 1493 l 1,11,-1
EndSplineSet
EndChar
StartChar: afii10019
Encoding: 1042 1042 174
Width: 1505
Flags: W
HStem: 0 106<-32.1045 806.396> 756 106<507.847 897.347> 1386 107<258.104 1108.1>
Fore
381.499 106 m 1,0,-1
 680.499 106 l 2,1,2
 860.499 106 860.499 106 958.661 184 c 0,3,4
 1056.82 262 1056.82 262 1089.87 432 c 0,5,6
 1122.72 601 1122.72 601 1055.28 678.5 c 0,7,8
 987.847 756 987.847 756 806.847 756 c 2,9,-1
 507.847 756 l 1,10,-1
 381.499 106 l 1,0,-1
528.451 862 m 1,11,-1
 782.451 862 l 2,12,13
 946.451 862 946.451 862 1034.2 925 c 0,14,15
 1121.94 988 1121.94 988 1148.38 1124 c 0,16,17
 1175.01 1261 1175.01 1261 1111.66 1323.5 c 128,-1,18
 1048.31 1386 1048.31 1386 884.307 1386 c 2,19,-1
 630.307 1386 l 1,20,-1
 528.451 862 l 1,11,-1
-32.1045 0 m 1,21,-1
 -11.501 106 l 1,22,-1
 178.499 106 l 1,23,-1
 427.307 1386 l 1,24,-1
 237.307 1386 l 1,25,-1
 258.104 1493 l 1,26,-1
 995.104 1493 l 2,27,28
 1221.1 1493 1221.1 1493 1317.62 1400.5 c 128,-1,29
 1414.14 1308 1414.14 1308 1378.38 1124 c 0,30,31
 1352.53 991 1352.53 991 1258.17 912 c 0,32,33
 1162.81 833 1162.81 833 1006.32 815 c 1,34,35
 1191.65 791 1191.65 791 1271.2 693.5 c 0,36,37
 1350.75 596 1350.75 596 1318.87 432 c 0,38,39
 1275.71 210 1275.71 210 1115.3 105 c 0,40,41
 954.896 0 954.896 0 657.896 0 c 2,42,-1
 -32.1045 0 l 1,21,-1
EndSplineSet
EndChar
StartChar: afii10020
Encoding: 1043 1043 175
Width: 1421
Flags: W
HStem: 0 106<-32.1045 599.896> 1370 123<627.196 1480.1> 1386 107<258.104 427.307>
Fore
381.499 106 m 1,0,-1
 620.499 106 l 1,1,-1
 599.896 0 l 1,2,-1
 -32.1045 0 l 1,3,-1
 -11.501 106 l 1,4,-1
 178.499 106 l 1,5,-1
 427.307 1386 l 1,6,-1
 237.307 1386 l 1,7,-1
 258.104 1493 l 1,8,-1
 1480.1 1493 l 1,9,-1
 1415.57 1161 l 1,10,-1
 1292.57 1161 l 1,11,-1
 1333.2 1370 l 1,12,-1
 627.196 1370 l 1,13,-1
 381.499 106 l 1,0,-1
EndSplineSet
EndChar
StartChar: afii10021
Encoding: 1044 1044 176
Width: 1786
Flags: HW
Fore
300.715 0 m 2,0,1
 186.915 -0 186.915 -0 124.228 -198 c 0,2,3
 95.7334 -288 95.7334 -288 70.0752 -420 c 1,4,-1
 -103.925 -420 l 1,5,-1
 -1.48633 107 l 1,6,-1
 108.708 108 l 2,7,8
 308.06 109.81 308.06 109.81 372.048 439 c 2,9,-1
 556.126 1386 l 1,10,-1
 366.126 1386 l 1,11,-1
 386.925 1493 l 1,12,-1
 1751.92 1493 l 1,13,-1
 1731.13 1386 l 1,14,-1
 1541.13 1386 l 1,15,-1
 1329.06 295 l 1,16,17
 1306.23 229 1306.23 229 1346.54 174 c 0,18,19
 1387.77 117 1387.77 117 1529.51 107 c 1,20,-1
 1427.08 -420 l 1,21,-1
 1253.08 -420 l 1,22,23
 1279.9 -282 1279.9 -282 1285.23 -198 c 0,24,25
 1300.87 0.000976562 1300.87 0.000976562 1185.71 0 c 2,26,-1
 300.715 0 l 2,0,1
1126.06 295 m 1,27,-1
 1335.02 1370 l 1,28,-1
 730.016 1370 l 1,29,-1
 549.493 431 l 1,30,31
 518.976 274 518.976 274 453.204 162 c 0,32,33
 432.401 127 432.401 127 439.457 117 c 0,34,35
 446.514 107 446.514 107 480.514 107 c 2,36,-1
 948.708 108 l 2,37,38
 1085.71 108 1085.71 108 1126.06 295 c 1,27,-1
EndSplineSet
EndChar
StartChar: afii10022
Encoding: 1045 1045 177
Width: 1495
Flags: W
HStem: 0 123<384.804 1086.8 1185.9 1185.9> 0 106<-32.1045 -32.1045 -11.501 178.499> 748 122<506.292 1019.01> 1370 123<627.196 1460.1> 1386 107<258.104 427.307>
Fore
-32.1045 0 m 1,0,-1
 -11.501 106 l 1,1,-1
 178.499 106 l 1,2,-1
 427.307 1386 l 1,3,-1
 237.307 1386 l 1,4,-1
 258.104 1493 l 1,5,-1
 1460.1 1493 l 1,6,-1
 1395.57 1161 l 1,7,-1
 1272.57 1161 l 1,8,-1
 1313.2 1370 l 1,9,-1
 627.196 1370 l 1,10,-1
 530.006 870 l 1,11,-1
 1019.01 870 l 1,12,-1
 1055.36 1057 l 1,13,-1
 1178.36 1057 l 1,14,-1
 1081.94 561 l 1,15,-1
 958.942 561 l 1,16,-1
 995.292 748 l 1,17,-1
 506.292 748 l 1,18,-1
 384.804 123 l 1,19,-1
 1086.8 123 l 1,20,-1
 1127.43 332 l 1,21,-1
 1250.43 332 l 1,22,-1
 1185.9 0 l 1,23,-1
 -32.1045 0 l 1,0,-1
EndSplineSet
EndChar
StartChar: afii10024
Encoding: 1046 1046 178
Width: 2264
Flags: W
HStem: 0 106<7.49902 333.896 708.896 1291.9 1864.5 2013.9> 1386 107<355.104 851.104 999.104 1582.1 1730.1 2226.1>
Fore
1239.71 709 m 1,0,-1
 1122.5 106 l 1,1,-1
 1312.5 106 l 1,2,-1
 1291.9 0 l 1,3,-1
 708.896 0 l 1,4,-1
 729.499 106 l 1,5,-1
 919.499 106 l 1,6,-1
 1036.71 709 l 1,7,-1
 333.896 0 l 1,8,-1
 -13.1045 0 l 1,9,-1
 7.49902 106 l 1,10,-1
 177.499 106 l 1,11,-1
 890.87 823 l 1,12,-1
 502.307 1386 l 1,13,-1
 334.307 1386 l 1,14,-1
 355.104 1493 l 1,15,-1
 851.104 1493 l 1,16,-1
 830.307 1386 l 1,17,-1
 668.307 1386 l 1,18,-1
 1058.48 821 l 1,19,-1
 1168.31 1386 l 1,20,-1
 978.307 1386 l 1,21,-1
 999.104 1493 l 1,22,-1
 1582.1 1493 l 1,23,-1
 1561.31 1386 l 1,24,-1
 1371.31 1386 l 1,25,-1
 1261.48 821 l 1,26,-1
 1871.31 1386 l 1,27,-1
 1709.31 1386 l 1,28,-1
 1730.1 1493 l 1,29,-1
 2226.1 1493 l 1,30,-1
 2205.31 1386 l 1,31,-1
 2037.31 1386 l 1,32,-1
 1429.87 823 l 1,33,-1
 1864.5 106 l 1,34,-1
 2034.5 106 l 1,35,-1
 2013.9 0 l 1,36,-1
 1666.9 0 l 1,37,-1
 1239.71 709 l 1,0,-1
EndSplineSet
EndChar
StartChar: afii10025
Encoding: 1047 1047 179
Width: 1303
Flags: W
HStem: -29 99<396.952 587.452> 758 102<509.257 672.43> 1500 20G<728.548 885.048>
Fore
332.054 1430 m 1,0,1
 457.606 1474 457.606 1474 569.577 1497 c 0,2,3
 681.548 1520 681.548 1520 775.548 1520 c 0,4,5
 994.548 1520 994.548 1520 1099.18 1425.5 c 0,6,7
 1203.81 1331 1203.81 1331 1171.15 1163 c 0,8,9
 1144.91 1028 1144.91 1028 1042.32 937.5 c 0,10,11
 939.729 847 939.729 847 777.51 815 c 1,12,13
 956.455 789 956.455 789 1037.06 681.5 c 0,14,15
 1117.66 574 1117.66 574 1084.42 403 c 0,16,17
 1043.8 194 1043.8 194 881.028 82 c 0,18,19
 719.452 -29 719.452 -29 455.452 -29 c 0,20,21
 338.452 -29 338.452 -29 231.812 -4 c 128,-1,22
 125.172 21 125.172 21 25.085 72 c 1,23,-1
 81.4551 362 l 1,24,-1
 193.455 362 l 1,25,26
 175.465 218 175.465 218 248.08 144 c 0,27,28
 320.696 70 320.696 70 478.696 70 c 0,29,30
 631.696 70 631.696 70 737.398 158.5 c 0,31,32
 843.102 247 843.102 247 873.036 401 c 0,33,34
 907.247 577 907.247 577 833.838 667.5 c 0,35,36
 760.43 758 760.43 758 584.43 758 c 2,37,-1
 489.43 758 l 1,38,-1
 509.257 860 l 1,39,-1
 559.257 860 l 2,40,41
 734.257 860 734.257 860 835.849 932.5 c 128,-1,42
 937.441 1005 937.441 1005 965.821 1151 c 0,43,44
 991.285 1282 991.285 1282 932.795 1351.5 c 0,45,46
 874.304 1421 874.304 1421 739.304 1421 c 128,-1,47
 604.304 1421 604.304 1421 517.363 1357 c 0,48,49
 430.423 1293 430.423 1293 392.932 1167 c 1,50,-1
 280.932 1167 l 1,51,-1
 332.054 1430 l 1,0,1
EndSplineSet
EndChar
StartChar: afii10026
Encoding: 1048 1048 180
Width: 1786
Flags: W
HStem: 0 106<-32.1045 550.896 944.896 1527.9> 1386 107<258.104 841.104 1235.1 1818.1>
Fore
-32.1045 0 m 1,0,-1
 -11.501 106 l 1,1,-1
 178.499 106 l 1,2,-1
 427.307 1386 l 1,3,-1
 237.307 1386 l 1,4,-1
 258.104 1493 l 1,5,-1
 841.104 1493 l 1,6,-1
 820.307 1386 l 1,7,-1
 630.307 1386 l 1,8,-1
 450.894 463 l 1,9,-1
 1371.46 1217 l 1,10,-1
 1404.31 1386 l 1,11,-1
 1214.31 1386 l 1,12,-1
 1235.1 1493 l 1,13,-1
 1818.1 1493 l 1,14,-1
 1797.31 1386 l 1,15,-1
 1607.31 1386 l 1,16,-1
 1358.5 106 l 1,17,-1
 1548.5 106 l 1,18,-1
 1527.9 0 l 1,19,-1
 944.896 0 l 1,20,-1
 965.499 106 l 1,21,-1
 1155.5 106 l 1,22,-1
 1334.91 1029 l 1,23,-1
 414.35 275 l 1,24,-1
 381.499 106 l 1,25,-1
 571.499 106 l 1,26,-1
 550.896 0 l 1,27,-1
 -32.1045 0 l 1,0,-1
EndSplineSet
EndChar
StartChar: afii10028
Encoding: 1050 1050 182
Width: 1530
Flags: W
HStem: 0 106<-32.1045 550.896 1266.5 1415.9> 1386 107<258.104 841.104 1132.1 1628.1>
Fore
-32.1045 0 m 1,0,-1
 -11.501 106 l 1,1,-1
 178.499 106 l 1,2,-1
 427.307 1386 l 1,3,-1
 237.307 1386 l 1,4,-1
 258.104 1493 l 1,5,-1
 841.104 1493 l 1,6,-1
 820.307 1386 l 1,7,-1
 630.307 1386 l 1,8,-1
 520.481 821 l 1,9,-1
 1273.31 1386 l 1,10,-1
 1111.31 1386 l 1,11,-1
 1132.1 1493 l 1,12,-1
 1628.1 1493 l 1,13,-1
 1607.31 1386 l 1,14,-1
 1439.31 1386 l 1,15,-1
 688.87 823 l 1,16,-1
 1266.5 106 l 1,17,-1
 1436.5 106 l 1,18,-1
 1415.9 0 l 1,19,-1
 1068.9 0 l 1,20,-1
 498.711 709 l 1,21,-1
 381.499 106 l 1,22,-1
 571.499 106 l 1,23,-1
 550.896 0 l 1,24,-1
 -32.1045 0 l 1,0,-1
EndSplineSet
EndChar
StartChar: afii10029
Encoding: 1051 1051 183
Width: 1786
Flags: W
HStem: -36 107<17.8965 130.396> 0 106<841.394 1424.39> 1386 107<325.604 1714.6>
Fore
494.805 1386 m 1,0,-1
 304.805 1386 l 1,1,-1
 325.604 1493 l 1,2,-1
 1714.6 1493 l 1,3,-1
 1693.8 1386 l 1,4,-1
 1503.8 1386 l 1,5,-1
 1255 106 l 1,6,-1
 1445 106 l 1,7,-1
 1424.39 0 l 1,8,-1
 841.394 0 l 1,9,-1
 861.998 106 l 1,10,-1
 1052 106 l 1,11,-1
 1297.7 1370 l 1,12,-1
 692.695 1370 l 1,13,-1
 512.172 431 l 1,14,15
 465.354 185 465.354 185 343.778 74 c 0,16,17
 223.396 -36 223.396 -36 37.3965 -36 c 0,18,19
 -1.60352 -36 -1.60352 -36 -71.7988 -19 c 0,20,21
 -141.995 -2 -141.995 -2 -208.386 32 c 1,22,-1
 -175.925 199 l 1,23,-1
 -61.9248 199 l 1,24,25
 -67.3672 171 -67.3672 171 -30.2803 120 c 0,26,27
 4.19531 71 4.19531 71 60.1953 71 c 0,28,29
 145.195 71 145.195 71 206.773 146 c 0,30,31
 268.546 222 268.546 222 310.727 439 c 2,32,-1
 494.805 1386 l 1,0,-1
EndSplineSet
EndChar
StartChar: afii10030
Encoding: 1052 1052 184
Width: 2097
Flags: W
HStem: 0 106<-32.1045 470.896 1255.9 1839.9> 1386 107<247.104 427.307 1730.1 2117.31>
Fore
-32.1045 0 m 1,0,-1
 -11.501 106 l 1,1,-1
 178.499 106 l 1,2,-1
 427.307 1386 l 1,3,-1
 226.307 1386 l 1,4,-1
 247.104 1493 l 1,5,-1
 682.104 1493 l 1,6,-1
 999.479 430 l 1,7,-1
 1730.1 1493 l 1,8,-1
 2138.1 1493 l 1,9,-1
 2117.31 1386 l 1,10,-1
 1918.31 1386 l 1,11,-1
 1669.5 106 l 1,12,-1
 1860.5 106 l 1,13,-1
 1839.9 0 l 1,14,-1
 1255.9 0 l 1,15,-1
 1276.5 106 l 1,16,-1
 1466.5 106 l 1,17,-1
 1690.81 1260 l 1,18,-1
 976.465 219 l 1,19,-1
 835.465 219 l 1,20,-1
 525.814 1260 l 1,21,-1
 301.499 106 l 1,22,-1
 491.499 106 l 1,23,-1
 470.896 0 l 1,24,-1
 -32.1045 0 l 1,0,-1
EndSplineSet
EndChar
StartChar: afii10031
Encoding: 1053 1053 185
Width: 1786
Flags: W
HStem: 0 106<-32.1045 550.896 944.896 1527.9> 748 122<506.292 1304.01> 1386 107<258.104 841.104 1235.1 1818.1>
Fore
-32.1045 0 m 1,0,-1
 -11.501 106 l 1,1,-1
 178.499 106 l 1,2,-1
 427.307 1386 l 1,3,-1
 237.307 1386 l 1,4,-1
 258.104 1493 l 1,5,-1
 841.104 1493 l 1,6,-1
 820.307 1386 l 1,7,-1
 630.307 1386 l 1,8,-1
 530.006 870 l 1,9,-1
 1304.01 870 l 1,10,-1
 1404.31 1386 l 1,11,-1
 1214.31 1386 l 1,12,-1
 1235.1 1493 l 1,13,-1
 1818.1 1493 l 1,14,-1
 1797.31 1386 l 1,15,-1
 1607.31 1386 l 1,16,-1
 1358.5 106 l 1,17,-1
 1548.5 106 l 1,18,-1
 1527.9 0 l 1,19,-1
 944.896 0 l 1,20,-1
 965.499 106 l 1,21,-1
 1155.5 106 l 1,22,-1
 1280.29 748 l 1,23,-1
 506.292 748 l 1,24,-1
 381.499 106 l 1,25,-1
 571.499 106 l 1,26,-1
 550.896 0 l 1,27,-1
 -32.1045 0 l 1,0,-1
EndSplineSet
EndChar
StartChar: afii10032
Encoding: 1054 1054 186
Width: 1679
Flags: W
HStem: -29 107<587.251 832.751> 1413 107<846.749 1153.05>
Fore
710.251 78 m 0,0,1
 955.251 78 955.251 78 1113 246.5 c 0,2,3
 1270.76 415 1270.76 415 1334.9 745 c 0,4,5
 1399.24 1076 1399.24 1076 1307 1244.5 c 0,6,7
 1214.75 1413 1214.75 1413 969.749 1413 c 0,8,9
 723.749 1413 723.749 1413 565.996 1244.5 c 0,10,11
 408.243 1076 408.243 1076 343.902 745 c 0,12,13
 279.757 415 279.757 415 372.004 246.5 c 128,-1,14
 464.251 78 464.251 78 710.251 78 c 0,0,1
689.452 -29 m 0,15,16
 537.452 -29 537.452 -29 419.672 21 c 0,17,18
 301.891 71 301.891 71 223.745 168 c 0,19,20
 133.516 280 133.516 280 107.118 422 c 0,21,22
 79.7197 564 79.7197 564 114.902 745 c 0,23,24
 150.086 926 150.086 926 232.285 1068.5 c 128,-1,25
 314.484 1211 314.484 1211 448.255 1323 c 0,26,27
 565.304 1421 565.304 1421 700.926 1470.5 c 0,28,29
 836.548 1520 836.548 1520 990.548 1520 c 0,30,31
 1315.55 1520 1315.55 1520 1474.14 1307 c 0,32,33
 1632.74 1094 1632.74 1094 1564.9 745 c 0,34,35
 1530.11 566 1530.11 566 1447.21 422.5 c 0,36,37
 1364.32 279 1364.32 279 1230.75 168 c 0,38,39
 1113.7 70 1113.7 70 978.074 20.5 c 0,40,41
 842.452 -29 842.452 -29 689.452 -29 c 0,15,16
EndSplineSet
EndChar
StartChar: afii10033
Encoding: 1055 1055 187
Width: 1786
Flags: W
HStem: 0 106<-32.1045 550.896 944.896 1527.9> 1386 107<258.104 1818.1>
Fore
1818.1 1493 m 1,0,-1
 1797.31 1386 l 1,1,-1
 1607.31 1386 l 1,2,-1
 1358.5 106 l 1,3,-1
 1548.5 106 l 1,4,-1
 1527.9 0 l 1,5,-1
 944.896 0 l 1,6,-1
 965.499 106 l 1,7,-1
 1155.5 106 l 1,8,-1
 1401.2 1370 l 1,9,-1
 627.196 1370 l 1,10,-1
 381.499 106 l 1,11,-1
 571.499 106 l 1,12,-1
 550.896 0 l 1,13,-1
 -32.1045 0 l 1,14,-1
 -11.501 106 l 1,15,-1
 178.499 106 l 1,16,-1
 427.307 1386 l 1,17,-1
 237.307 1386 l 1,18,-1
 258.104 1493 l 1,19,-1
 1818.1 1493 l 1,0,-1
EndSplineSet
EndChar
StartChar: afii10034
Encoding: 1056 1056 188
Width: 1378
Flags: W
HStem: 0 106<-32.1045 591.896> 653 107<487.825 800.825> 1386 107<258.104 1076.1>
Fore
508.624 760 m 1,0,-1
 772.624 760 l 2,1,2
 921.624 760 921.624 760 1015.27 840.5 c 0,3,4
 1108.92 921 1108.92 921 1138.46 1073 c 0,5,6
 1168.21 1226 1168.21 1226 1105.76 1306 c 128,-1,7
 1043.31 1386 1043.31 1386 894.307 1386 c 2,8,-1
 630.307 1386 l 1,9,-1
 508.624 760 l 1,0,-1
-32.1045 0 m 1,10,-1
 -11.501 106 l 1,11,-1
 178.499 106 l 1,12,-1
 427.307 1386 l 1,13,-1
 237.307 1386 l 1,14,-1
 258.104 1493 l 1,15,-1
 964.104 1493 l 2,16,17
 1188.1 1493 1188.1 1493 1297.04 1379.5 c 0,18,19
 1405.98 1266 1405.98 1266 1368.46 1073 c 0,20,21
 1331.14 881 1331.14 881 1177.98 767 c 0,22,23
 1024.83 653 1024.83 653 800.825 653 c 2,24,-1
 487.825 653 l 1,25,-1
 381.499 106 l 1,26,-1
 612.499 106 l 1,27,-1
 591.896 0 l 1,28,-1
 -32.1045 0 l 1,10,-1
EndSplineSet
EndChar
StartChar: afii10035
Encoding: 1057 1057 189
Width: 1567
Flags: W
HStem: -29 107<579.751 797.452> 1413 107<832.048 1059.25>
Fore
1375.87 395 m 1,0,1
 1269.24 186 1269.24 186 1092.85 78.5 c 0,2,3
 916.452 -29 916.452 -29 678.452 -29 c 0,4,5
 532.452 -29 532.452 -29 417.172 21 c 0,6,7
 301.891 71 301.891 71 223.745 168 c 0,8,9
 133.516 280 133.516 280 107.118 422 c 0,10,11
 79.9141 565 79.9141 565 114.902 745 c 0,12,13
 182.547 1093 182.547 1093 425.047 1306.5 c 0,14,15
 667.548 1520 667.548 1520 996.548 1520 c 0,16,17
 1118.55 1520 1118.55 1520 1250.33 1488 c 0,18,19
 1382.11 1456 1382.11 1456 1528.47 1391 c 1,20,-1
 1461.61 1047 l 1,21,-1
 1348.61 1047 l 1,22,23
 1348.15 1235 1348.15 1235 1253.95 1324 c 0,24,25
 1159.75 1413 1159.75 1413 958.749 1413 c 0,26,27
 719.749 1413 719.749 1413 563.802 1243.5 c 0,28,29
 407.854 1074 407.854 1074 343.902 745 c 0,30,31
 280.146 417 280.146 417 370.296 248 c 0,32,33
 460.251 78 460.251 78 699.251 78 c 0,34,35
 866.251 78 866.251 78 989.704 157.5 c 0,36,37
 1113.16 237 1113.16 237 1191.87 395 c 1,38,-1
 1375.87 395 l 1,0,1
EndSplineSet
EndChar
StartChar: afii10036
Encoding: 1058 1058 190
Width: 1366
Flags: W
HStem: 0 106<245.896 829.896> 1141 352<165.104 1422.68> 1374 119<264.974 703.974 905.974 1491.1>
Fore
245.896 0 m 1,0,-1
 266.499 106 l 1,1,-1
 457.499 106 l 1,2,-1
 703.974 1374 l 1,3,-1
 264.974 1374 l 1,4,-1
 219.683 1141 l 1,5,-1
 96.6826 1141 l 1,6,-1
 165.104 1493 l 1,7,-1
 1491.1 1493 l 1,8,-1
 1422.68 1141 l 1,9,-1
 1299.68 1141 l 1,10,-1
 1344.97 1374 l 1,11,-1
 905.974 1374 l 1,12,-1
 659.499 106 l 1,13,-1
 850.499 106 l 1,14,-1
 829.896 0 l 1,15,-1
 245.896 0 l 1,0,-1
EndSplineSet
EndChar
StartChar: afii10037
Encoding: 1059 1059 191
Width: 1530
Flags: W
HStem: 0 118<125.896 457.396> 1386 107<169.104 688.104 1001.1 1584.1>
Fore
410.216 192 m 2,0,-1
 641.691 570 l 1,1,-1
 338.307 1386 l 1,2,-1
 148.307 1386 l 1,3,-1
 169.104 1493 l 1,4,-1
 688.104 1493 l 1,5,-1
 667.307 1386 l 1,6,-1
 505.307 1386 l 1,7,-1
 745.736 740 l 1,8,-1
 1142.31 1386 l 1,9,-1
 980.307 1386 l 1,10,-1
 1001.1 1493 l 1,11,-1
 1584.1 1493 l 1,12,-1
 1563.31 1386 l 1,13,-1
 1373.31 1386 l 1,14,-1
 562.057 78 l 2,15,16
 513.896 0 513.896 0 400.896 0 c 2,17,-1
 125.896 0 l 1,18,-1
 148.832 118 l 1,19,-1
 243.832 118 l 2,20,21
 364.832 118 364.832 118 410.216 192 c 2,0,-1
EndSplineSet
EndChar
StartChar: afii10038
Encoding: 1060 1060 192
Width: 2009
Flags: W
HStem: -321 106<519.499 1102.5> -29 107<689.258 787.057 969.258 1190.06> 1413 107<846.555 1067.35 1249.55 1347.35> 1707 107<934.501 1517.5>
Fore
1270.35 1520 m 1,0,-1
 1347.35 1520 l 2,1,2
 1501.35 1520 1501.35 1520 1617.73 1470.5 c 128,-1,3
 1734.11 1421 1734.11 1421 1813.06 1323 c 0,4,5
 1924.24 1185 1924.24 1185 1930.49 1068 c 0,6,7
 1936.89 926 1936.89 926 1901.71 745 c 0,8,9
 1856.42 512 1856.42 512 1804.92 422 c 0,10,11
 1722.32 280 1722.32 280 1588.55 168 c 0,12,13
 1472.7 71 1472.7 71 1335.48 21 c 128,-1,14
 1198.26 -29 1198.26 -29 1046.26 -29 c 2,15,-1
 969.258 -29 l 1,16,-1
 933.104 -215 l 1,17,-1
 1123.1 -215 l 1,18,-1
 1102.5 -321 l 1,19,-1
 519.499 -321 l 1,20,-1
 540.104 -215 l 1,21,-1
 730.104 -215 l 1,22,-1
 766.258 -29 l 1,23,-1
 689.258 -29 l 2,24,25
 537.258 -29 537.258 -29 419.478 21 c 0,26,27
 301.696 71 301.696 71 223.551 168 c 0,28,29
 133.321 280 133.321 280 106.924 422 c 0,30,31
 79.5254 564 79.5254 564 114.708 745 c 0,32,33
 149.892 926 149.892 926 232.091 1068.5 c 128,-1,34
 314.29 1211 314.29 1211 448.061 1323 c 0,35,36
 565.109 1421 565.109 1421 700.731 1470.5 c 0,37,38
 836.354 1520 836.354 1520 990.354 1520 c 2,39,-1
 1067.35 1520 l 1,40,-1
 1103.7 1707 l 1,41,-1
 913.702 1707 l 1,42,-1
 934.501 1814 l 1,43,-1
 1517.5 1814 l 1,44,-1
 1496.7 1707 l 1,45,-1
 1306.7 1707 l 1,46,-1
 1270.35 1520 l 1,0,-1
990.057 78 m 1,47,-1
 1067.06 78 l 2,48,49
 1313.06 78 1313.06 78 1470.81 246.5 c 128,-1,50
 1628.56 415 1628.56 415 1692.71 745 c 0,51,52
 1757.05 1076 1757.05 1076 1664.8 1244.5 c 128,-1,53
 1572.55 1413 1572.55 1413 1326.55 1413 c 2,54,-1
 1249.55 1413 l 1,55,-1
 990.057 78 l 1,47,-1
787.057 78 m 1,56,-1
 1046.55 1413 l 1,57,-1
 969.555 1413 l 2,58,59
 723.555 1413 723.555 1413 565.802 1244.5 c 0,60,61
 408.048 1076 408.048 1076 343.708 745 c 0,62,63
 279.562 415 279.562 415 371.81 246.5 c 0,64,65
 464.057 78 464.057 78 710.057 78 c 2,66,-1
 787.057 78 l 1,56,-1
EndSplineSet
EndChar
StartChar: afii10039
Encoding: 1061 1061 193
Width: 1458
Flags: W
HStem: 0 106<-133.104 360.896 710.896 1302.9> 1386 107<163.104 755.104 1036.1 1525.1>
Fore
657.104 639 m 1,0,-1
 188.499 106 l 1,1,-1
 381.499 106 l 1,2,-1
 360.896 0 l 1,3,-1
 -133.104 0 l 1,4,-1
 -112.501 106 l 1,5,-1
 59.499 106 l 1,6,-1
 611.376 733 l 1,7,-1
 302.307 1386 l 1,8,-1
 142.307 1386 l 1,9,-1
 163.104 1493 l 1,10,-1
 755.104 1493 l 1,11,-1
 734.307 1386 l 1,12,-1
 558.307 1386 l 1,13,-1
 784.81 905 l 1,14,-1
 1207.31 1386 l 1,15,-1
 1015.31 1386 l 1,16,-1
 1036.1 1493 l 1,17,-1
 1525.1 1493 l 1,18,-1
 1504.31 1386 l 1,19,-1
 1336.31 1386 l 1,20,-1
 829.537 811 l 1,21,-1
 1163.5 106 l 1,22,-1
 1323.5 106 l 1,23,-1
 1302.9 0 l 1,24,-1
 710.896 0 l 1,25,-1
 731.499 106 l 1,26,-1
 909.499 106 l 1,27,-1
 657.104 639 l 1,0,-1
EndSplineSet
EndChar
StartChar: afii10040
Encoding: 1062 1062 194
Width: 1786
Flags: W
HStem: 0 107<-0.907227 1398.09> 1387 106<289.303 872.303 1266.3 1849.3>
Fore
1620.89 107 m 1,0,-1
 1389.89 107 l 1,1,-1
 1638.7 1387 l 1,2,-1
 1828.7 1387 l 1,3,-1
 1849.3 1493 l 1,4,-1
 1266.3 1493 l 1,5,-1
 1245.7 1387 l 1,6,-1
 1435.7 1387 l 1,7,-1
 1190 123 l 1,8,-1
 416.002 123 l 1,9,-1
 661.698 1387 l 1,10,-1
 851.698 1387 l 1,11,-1
 872.303 1493 l 1,12,-1
 289.303 1493 l 1,13,-1
 268.698 1387 l 1,14,-1
 458.698 1387 l 1,15,-1
 209.892 107 l 1,16,-1
 19.8916 107 l 1,17,-1
 -0.907227 0 l 1,18,-1
 1398.09 0 l 1,19,-1
 1335.7 -321 l 1,20,-1
 1537.7 -321 l 1,21,-1
 1620.89 107 l 1,0,-1
EndSplineSet
EndChar
StartChar: afii10041
Encoding: 1063 1063 195
Width: 1534
Flags: W
HStem: 0 106<673.896 1282.9> 653 107<674.825 1008.62> 1386 107<89.1045 664.104 963.104 1544.1>
Fore
1544.1 1493 m 1,0,-1
 1523.31 1386 l 1,1,-1
 1333.31 1386 l 1,2,-1
 1084.5 106 l 1,3,-1
 1303.5 106 l 1,4,-1
 1282.9 0 l 1,5,-1
 673.896 0 l 1,6,-1
 694.499 106 l 1,7,-1
 881.499 106 l 1,8,-1
 987.825 653 l 1,9,-1
 674.825 653 l 2,10,11
 377.825 653 377.825 653 268.984 767 c 0,12,13
 160.145 881 160.145 881 197.465 1073 c 2,14,-1
 258.307 1386 l 1,15,-1
 68.3066 1386 l 1,16,-1
 89.1045 1493 l 1,17,-1
 664.104 1493 l 1,18,-1
 643.307 1386 l 1,19,-1
 458.307 1386 l 1,20,-1
 397.465 1073 l 2,21,22
 367.919 921 367.919 921 430.271 840.5 c 0,23,24
 492.624 760 492.624 760 744.624 760 c 2,25,-1
 1008.62 760 l 1,26,-1
 1132.31 1386 l 1,27,-1
 942.307 1386 l 1,28,-1
 963.104 1493 l 1,29,-1
 1544.1 1493 l 1,0,-1
EndSplineSet
EndChar
StartChar: afii10042
Encoding: 1064 1064 196
Width: 2098
Flags: W
HStem: 0 107<-32.1045 1839.9> 1387 106<258.104 841.104 1547.1 2130.1>
Fore
1024.8 123 m 1,0,-1
 1470.8 123 l 1,1,-1
 1716.5 1387 l 1,2,-1
 1526.5 1387 l 1,3,-1
 1547.1 1493 l 1,4,-1
 2130.1 1493 l 1,5,-1
 2109.5 1387 l 1,6,-1
 1919.5 1387 l 1,7,-1
 1670.69 107 l 1,8,-1
 1860.69 107 l 1,9,-1
 1839.9 0 l 1,10,-1
 -32.1045 0 l 1,11,-1
 -11.3066 107 l 1,12,-1
 178.693 107 l 1,13,-1
 427.501 1387 l 1,14,-1
 237.501 1387 l 1,15,-1
 258.104 1493 l 1,16,-1
 841.104 1493 l 1,17,-1
 820.501 1387 l 1,18,-1
 630.501 1387 l 1,19,-1
 384.804 123 l 1,20,-1
 830.804 123 l 1,21,-1
 1050.06 1251 l 1,22,-1
 1244.06 1251 l 1,23,-1
 1024.8 123 l 1,0,-1
EndSplineSet
EndChar
StartChar: afii10043
Encoding: 1065 1065 197
Width: 2146
Flags: W
HStem: 0 107<-0.907227 1710.09> 1387 106<289.303 872.303 1578.3 2161.3>
Fore
1932.89 107 m 1,0,-1
 1701.89 107 l 1,1,-1
 1950.7 1387 l 1,2,-1
 2140.7 1387 l 1,3,-1
 2161.3 1493 l 1,4,-1
 1578.3 1493 l 1,5,-1
 1557.7 1387 l 1,6,-1
 1747.7 1387 l 1,7,-1
 1502 123 l 1,8,-1
 1056 123 l 1,9,-1
 1275.26 1251 l 1,10,-1
 1081.26 1251 l 1,11,-1
 862.002 123 l 1,12,-1
 416.002 123 l 1,13,-1
 661.698 1387 l 1,14,-1
 851.698 1387 l 1,15,-1
 872.303 1493 l 1,16,-1
 289.303 1493 l 1,17,-1
 268.698 1387 l 1,18,-1
 458.698 1387 l 1,19,-1
 209.892 107 l 1,20,-1
 19.8916 107 l 1,21,-1
 -0.907227 0 l 1,22,-1
 1710.09 0 l 1,23,-1
 1647.7 -321 l 1,24,-1
 1849.7 -321 l 1,25,-1
 1932.89 107 l 1,0,-1
EndSplineSet
EndChar
StartChar: afii10044
Encoding: 1066 1066 198
Width: 1558
Flags: W
HStem: 0 106<170.896 899.898> 748 122<758.292 918.292> 1370 123<215.104 215.104 314.196 671.196> 1386 107<882.307 1070.31 1091.1 1091.1>
Fore
793.499 106 m 2,0,1
 934.499 106 934.499 106 1032.66 184 c 0,2,3
 1130.82 262 1130.82 262 1163.87 432 c 0,4,5
 1195.16 593 1195.16 593 1127.73 670.5 c 0,6,7
 1060.29 748 1060.29 748 918.292 748 c 2,8,-1
 758.292 748 l 1,9,-1
 633.499 106 l 1,10,-1
 793.499 106 l 2,0,1
425.499 106 m 1,11,-1
 671.196 1370 l 1,12,-1
 314.196 1370 l 1,13,-1
 273.57 1161 l 1,14,-1
 150.57 1161 l 1,15,-1
 215.104 1493 l 1,16,-1
 1091.1 1493 l 1,17,-1
 1070.31 1386 l 1,18,-1
 882.307 1386 l 1,19,-1
 782.006 870 l 1,20,-1
 897.006 870 l 1,21,22
 1235.73 848 1235.73 848 1348.91 710 c 0,23,24
 1427.86 612 1427.86 612 1392.87 432 c 0,25,26
 1349.71 210 1349.71 210 1189.3 105 c 0,27,28
 1028.9 0 1028.9 0 770.896 0 c 2,29,-1
 170.896 0 l 1,30,-1
 191.499 106 l 1,31,-1
 425.499 106 l 1,11,-1
EndSplineSet
EndChar
StartChar: afii10045
Encoding: 1067 1067 199
Width: 2128
Flags: W
HStem: 0 106<34.8955 719.896 1173.9 1756.9> 748 122<573.292 738.292> 1386 107<325.104 908.104 1464.1 2047.1>
Fore
1587.5 106 m 1,0,-1
 1777.5 106 l 1,1,-1
 1756.9 0 l 1,2,-1
 1173.9 0 l 1,3,-1
 1194.5 106 l 1,4,-1
 1384.5 106 l 1,5,-1
 1633.31 1386 l 1,6,-1
 1443.31 1386 l 1,7,-1
 1464.1 1493 l 1,8,-1
 2047.1 1493 l 1,9,-1
 2026.31 1386 l 1,10,-1
 1836.31 1386 l 1,11,-1
 1587.5 106 l 1,0,-1
245.499 106 m 1,12,-1
 494.307 1386 l 1,13,-1
 304.307 1386 l 1,14,-1
 325.104 1493 l 1,15,-1
 908.104 1493 l 1,16,-1
 887.307 1386 l 1,17,-1
 697.307 1386 l 1,18,-1
 597.006 870 l 1,19,-1
 717.006 870 l 1,20,21
 1055.73 848 1055.73 848 1168.91 710 c 0,22,23
 1247.86 612 1247.86 612 1212.87 432 c 0,24,25
 1169.71 210 1169.71 210 1009.3 105 c 0,26,27
 848.896 0 848.896 0 590.896 0 c 2,28,-1
 478.896 0 l 1,29,-1
 34.8955 0 l 1,30,-1
 55.499 106 l 1,31,-1
 245.499 106 l 1,12,-1
499.499 106 m 1,32,-1
 613.499 106 l 2,33,34
 754.499 106 754.499 106 852.661 184 c 0,35,36
 950.822 262 950.822 262 983.867 432 c 0,37,38
 1015.16 593 1015.16 593 947.728 670.5 c 0,39,40
 880.292 748 880.292 748 738.292 748 c 2,41,-1
 573.292 748 l 1,42,-1
 448.499 106 l 1,43,-1
 499.499 106 l 1,32,-1
EndSplineSet
EndChar
StartChar: afii10046
Encoding: 1068 1068 200
Width: 1414
Flags: W
HStem: 0 106<34.8955 719.896> 748 122<573.292 738.292> 1386 107<325.104 908.104>
Fore
245.499 106 m 1,0,-1
 494.307 1386 l 1,1,-1
 304.307 1386 l 1,2,-1
 325.104 1493 l 1,3,-1
 908.104 1493 l 1,4,-1
 887.307 1386 l 1,5,-1
 697.307 1386 l 1,6,-1
 597.006 870 l 1,7,-1
 717.006 870 l 1,8,9
 1055.73 848 1055.73 848 1168.91 710 c 0,10,11
 1247.86 612 1247.86 612 1212.87 432 c 0,12,13
 1169.71 210 1169.71 210 1009.3 105 c 0,14,15
 848.896 0 848.896 0 590.896 0 c 2,16,-1
 478.896 0 l 1,17,-1
 34.8955 0 l 1,18,-1
 55.499 106 l 1,19,-1
 245.499 106 l 1,0,-1
499.499 106 m 1,20,-1
 613.499 106 l 2,21,22
 754.499 106 754.499 106 852.661 184 c 0,23,24
 950.822 262 950.822 262 983.867 432 c 0,25,26
 1015.16 593 1015.16 593 947.728 670.5 c 0,27,28
 880.292 748 880.292 748 738.292 748 c 2,29,-1
 573.292 748 l 1,30,-1
 448.499 106 l 1,31,-1
 499.499 106 l 1,20,-1
EndSplineSet
EndChar
StartChar: afii10047
Encoding: 1069 1069 201
Width: 1567
Flags: W
HStem: -29 107<460.452 719.751> 694 122<606.989 1226.7> 1413 107<759.249 1028.05>
Fore
1203.99 694 m 1,0,1
 1138.62 404 1138.62 404 995.296 248 c 0,2,3
 839.251 78 839.251 78 600.251 78 c 0,4,5
 433.251 78 433.251 78 340.704 157.5 c 0,6,7
 248.157 237 248.157 237 230.87 395 c 1,8,-1
 46.8701 395 l 1,9,10
 72.2441 186 72.2441 186 206.849 78.5 c 0,11,12
 341.452 -29 341.452 -29 579.452 -29 c 0,13,14
 725.452 -29 725.452 -29 860.172 21 c 0,15,16
 994.891 71 994.891 71 1110.75 168 c 0,17,18
 1244.52 280 1244.52 280 1326.71 422.5 c 0,19,20
 1408.91 565 1408.91 565 1443.9 745 c 0,21,22
 1511.55 1093 1511.55 1093 1352.05 1306.5 c 128,-1,23
 1192.55 1520 1192.55 1520 863.548 1520 c 0,24,25
 741.548 1520 741.548 1520 597.327 1488 c 0,26,27
 453.107 1456 453.107 1456 281.473 1391 c 1,28,-1
 214.605 1047 l 1,29,-1
 327.605 1047 l 1,30,31
 401.149 1235 401.149 1235 529.949 1324 c 0,32,33
 658.749 1413 658.749 1413 859.749 1413 c 0,34,35
 1098.75 1413 1098.75 1413 1188.9 1244 c 0,36,37
 1268.55 1093 1268.55 1093 1226.7 816 c 1,38,-1
 630.704 816 l 1,39,-1
 654.807 940 l 1,40,-1
 531.807 940 l 1,41,-1
 460.664 574 l 1,42,-1
 583.664 574 l 1,43,-1
 606.989 694 l 1,44,-1
 1203.99 694 l 1,0,1
EndSplineSet
EndChar
StartChar: afii10048
Encoding: 1070 1070 202
Width: 2444
Flags: W
HStem: -29 107<1332.25 1577.75> 0 106<-31.9102 551.09> 694 156<495.989 885.312> 1386 107<258.299 841.299> 1413 107<1591.75 1898.05>
Fore
381.693 106 m 1,0,-1
 571.693 106 l 1,1,-1
 551.09 0 l 1,2,-1
 -31.9102 0 l 1,3,-1
 -11.3066 106 l 1,4,-1
 178.693 106 l 1,5,-1
 427.501 1386 l 1,6,-1
 237.501 1386 l 1,7,-1
 258.299 1493 l 1,8,-1
 841.299 1493 l 1,9,-1
 820.501 1386 l 1,10,-1
 630.501 1386 l 1,11,-1
 526.312 850 l 1,12,-1
 885.312 850 l 1,13,14
 919.444 969 919.444 969 976.688 1068 c 0,15,16
 1059.48 1211 1059.48 1211 1193.25 1323 c 0,17,18
 1310.3 1421 1310.3 1421 1445.83 1470 c 0,19,20
 1581.55 1520 1581.55 1520 1735.55 1520 c 0,21,22
 2060.55 1520 2060.55 1520 2219.14 1307 c 0,23,24
 2377.74 1094 2377.74 1094 2309.9 745 c 0,25,26
 2275.11 566 2275.11 566 2192.12 422 c 0,27,28
 2109.32 279 2109.32 279 1975.75 168 c 0,29,30
 1858.7 70 1858.7 70 1722.98 20 c 0,31,32
 1587.45 -29 1587.45 -29 1434.45 -29 c 0,33,34
 1282.45 -29 1282.45 -29 1165.17 21 c 0,35,36
 1046.89 71 1046.89 71 968.745 168 c 0,37,38
 878.516 280 878.516 280 851.118 422 c 0,39,40
 828.832 544 828.832 544 850.989 694 c 1,41,-1
 495.989 694 l 1,42,-1
 381.693 106 l 1,0,-1
1455.25 78 m 0,43,44
 1700.25 78 1700.25 78 1857.91 246 c 0,45,46
 2015.76 415 2015.76 415 2079.9 745 c 0,47,48
 2144.24 1076 2144.24 1076 2051.9 1244 c 0,49,50
 1959.75 1413 1959.75 1413 1714.75 1413 c 0,51,52
 1468.75 1413 1468.75 1413 1310.9 1244 c 0,53,54
 1153.24 1076 1153.24 1076 1088.9 745 c 0,55,56
 1024.76 415 1024.76 415 1116.91 246 c 0,57,58
 1209.25 78 1209.25 78 1455.25 78 c 0,43,44
EndSplineSet
EndChar
StartChar: afii10049
Encoding: 1071 1071 203
Width: 1728
Flags: W
HStem: 0 106<-11.501 319.896 841.896 1445.9> 694 107<838.094 1208.59> 1386 107<870.104 1736.1 979.104 1736.1>
Fore
721.931 741 m 1,0,1
 648.237 722 648.237 722 588.894 676.5 c 0,2,3
 529.549 631 529.549 631 473.61 549 c 2,4,-1
 170.499 106 l 1,5,-1
 -11.501 106 l 1,6,-1
 -32.1045 0 l 1,7,-1
 319.896 0 l 1,8,-1
 645.226 475 l 1,9,10
 739.05 613 739.05 613 802.923 653.5 c 0,11,12
 866.795 694 866.795 694 964.795 694 c 2,13,-1
 1187.79 694 l 1,14,-1
 1073.5 106 l 1,15,-1
 862.499 106 l 1,16,-1
 841.896 0 l 1,17,-1
 1445.9 0 l 1,18,-1
 1466.5 106 l 1,19,-1
 1276.5 106 l 1,20,-1
 1525.31 1386 l 1,21,-1
 1715.31 1386 l 1,22,-1
 1736.1 1493 l 1,23,-1
 979.104 1493 l 2,24,25
 761.104 1493 761.104 1493 622.39 1389 c 0,26,27
 483.674 1285 483.674 1285 446.547 1094 c 0,28,29
 416.612 940 416.612 940 485.91 851.5 c 0,30,31
 555.207 763 555.207 763 721.931 741 c 1,0,1
1208.59 801 m 1,32,-1
 913.594 801 l 2,33,34
 762.594 801 762.594 801 704.492 872.5 c 128,-1,35
 646.39 944 646.39 944 675.547 1094 c 128,-1,36
 704.704 1244 704.704 1244 790.505 1315 c 0,37,38
 876.307 1386 876.307 1386 1027.31 1386 c 2,39,-1
 1322.31 1386 l 1,40,-1
 1208.59 801 l 1,32,-1
EndSplineSet
EndChar
StartChar: afii10065
Encoding: 1072 1072 204
Width: 1221
Flags: W
HStem: -29 107<289.55 528.349> 0 106<916.291 1059.69> 559 107<583.145 841.145> 993 99<569.706 766.45>
Fore
776.61 334 m 2,0,-1
 820.346 559 l 1,1,-1
 583.346 559 l 2,2,3
 446.346 559 446.346 559 367.877 500 c 0,4,5
 289.408 441 289.408 441 265.694 319 c 0,6,7
 244.118 208 244.118 208 299.483 143 c 0,8,9
 354.849 78 354.849 78 470.849 78 c 0,10,11
 585.849 78 585.849 78 670.149 149 c 0,12,13
 754.45 220 754.45 220 776.61 334 c 2,0,-1
1024.76 664 m 2,14,-1
 916.291 106 l 1,15,-1
 1080.29 106 l 1,16,-1
 1059.69 0 l 1,17,-1
 711.687 0 l 1,18,-1
 734.041 115 l 1,19,20
 658.656 41 658.656 41 571.854 6 c 0,21,22
 485.05 -29 485.05 -29 378.05 -29 c 0,23,24
 201.05 -29 201.05 -29 115.321 65 c 0,25,26
 29.5938 159 29.5938 159 60.6943 319 c 0,27,28
 92.7666 484 92.7666 484 229.455 575 c 0,29,30
 366.145 666 366.145 666 583.145 666 c 2,31,-1
 841.145 666 l 1,32,-1
 855.334 739 l 2,33,34
 878.854 860 878.854 860 818.28 926.5 c 0,35,36
 757.707 993 757.707 993 624.706 993 c 0,37,38
 514.707 993 514.707 993 439.987 943 c 0,39,40
 365.269 893 365.269 893 330.219 795 c 1,41,-1
 235.219 795 l 1,42,-1
 277.011 1010 l 1,43,44
 380.98 1051 380.98 1051 475.466 1071.5 c 0,45,46
 569.95 1092 569.95 1092 655.95 1092 c 0,47,48
 876.95 1092 876.95 1092 971.165 982.5 c 0,49,50
 1065.38 873 1065.38 873 1024.76 664 c 2,14,-1
EndSplineSet
EndChar
StartChar: afii10066
Encoding: 1073 1073 205
Width: 1233
Flags: W
HStem: -29 99<348.48 580.98> 993 99<589.138 798.881>
Fore
464.48 -29 m 0,0,1
 232.48 -29 232.48 -29 121.318 124.5 c 0,2,3
 10.1553 278 10.1553 278 59.5283 532 c 0,4,5
 108.9 786 108.9 786 278.641 939 c 0,6,7
 328.193 983 328.193 983 381.219 1014 c 1,8,9
 349.608 1016 349.608 1016 310.577 1057 c 2,10,-1
 303.938 1064 l 2,11,12
 255.406 1123 255.406 1123 276.512 1211 c 0,13,14
 278.484 1216 278.484 1216 279.262 1220 c 0,15,16
 330.416 1406 330.416 1406 537.856 1470 c 0,17,18
 611.327 1493 611.327 1493 706.077 1502 c 0,19,20
 831.409 1514 831.409 1514 995.66 1505 c 0,21,22
 1011.47 1504 1011.47 1504 1021.27 1503 c 0,23,24
 1054.69 1500 1054.69 1500 1151.77 1521 c 0,25,26
 1178.94 1527 1178.94 1527 1196.52 1530 c 1,27,-1
 1152.36 1380 l 1,28,-1
 1062.22 1369 l 1,29,30
 1001.25 1364 1001.25 1364 939.252 1364 c 1,31,-1
 754.808 1372 l 1,32,33
 714.808 1372 714.808 1372 672.641 1366 c 0,34,35
 552.531 1350 552.531 1350 474.119 1281 c 0,36,37
 433.121 1245 433.121 1245 426.706 1212 c 0,38,39
 415.627 1155 415.627 1155 479.657 1114 c 0,40,41
 515.992 1090 515.992 1090 564.243 1081 c 1,42,43
 621.381 1092 621.381 1092 682.381 1092 c 0,44,45
 915.381 1092 915.381 1092 1026.14 939 c 0,46,47
 1136.9 786 1136.9 786 1087.53 532 c 128,-1,48
 1038.16 278 1038.16 278 867.818 124.5 c 0,49,50
 697.48 -29 697.48 -29 464.48 -29 c 0,0,1
483.725 70 m 0,51,52
 631.725 70 631.725 70 729.967 187 c 128,-1,53
 828.209 304 828.209 304 872.528 532 c 0,54,55
 916.847 760 916.847 760 863.992 876.5 c 128,-1,56
 811.137 993 811.137 993 663.138 993 c 0,57,58
 515.137 993 515.137 993 416.395 876 c 0,59,60
 318.847 760 318.847 760 274.528 532 c 0,61,62
 230.209 304 230.209 304 283.467 187 c 0,63,64
 336.725 70 336.725 70 483.725 70 c 0,51,52
EndSplineSet
EndChar
StartChar: afii10067
Encoding: 1074 1074 206
Width: 1149
Flags: W
HStem: 0 103<-30.3135 632.187> 510 132<415.821 678.821> 959 104<176.313 847.813>
Fore
336.708 103 m 1,0,-1
 540.708 103 l 2,1,2
 657.708 103 657.708 103 732.594 159 c 0,3,4
 806.479 215 806.479 215 824.556 308 c 0,5,6
 842.439 400 842.439 400 790.13 455 c 128,-1,7
 737.821 510 737.821 510 619.821 510 c 2,8,-1
 415.821 510 l 1,9,-1
 336.708 103 l 1,0,-1
441.479 642 m 1,10,-1
 610.479 642 l 2,11,12
 716.479 642 716.479 642 782.629 686.5 c 0,13,14
 848.779 731 848.779 731 862.191 800 c 0,15,16
 875.798 870 875.798 870 826.947 914.5 c 0,17,18
 778.098 959 778.098 959 672.098 959 c 2,19,-1
 503.098 959 l 1,20,-1
 441.479 642 l 1,10,-1
-30.3135 0 m 1,21,-1
 -10.292 103 l 1,22,-1
 156.708 103 l 1,23,-1
 323.098 959 l 1,24,-1
 156.098 959 l 1,25,-1
 176.313 1063 l 1,26,-1
 761.313 1063 l 2,27,28
 934.313 1063 934.313 1063 1008.48 997 c 0,29,30
 1083.66 931 1083.66 931 1058.19 800 c 0,31,32
 1039.92 706 1039.92 706 967.84 649 c 0,33,34
 895.954 593 895.954 593 776.428 580 c 1,35,36
 918.123 563 918.123 563 980.711 494 c 0,37,38
 1042.1 424 1042.1 424 1019.56 308 c 0,39,40
 988.844 150 988.844 150 867.266 75 c 0,41,42
 745.687 0 745.687 0 518.687 0 c 2,43,-1
 -30.3135 0 l 1,21,-1
EndSplineSet
EndChar
StartChar: afii10068
Encoding: 1075 1075 207
Width: 1101
Flags: W
HStem: 0 106<-33.3135 459.687> 940 123<499.404 986.404 1115.31 1115.31> 958 105<162.313 318.903>
Fore
1115.31 1063 m 1,0,-1
 162.313 1063 l 1,1,-1
 141.903 958 l 1,2,-1
 318.903 958 l 1,3,-1
 153.291 106 l 1,4,-1
 -12.709 106 l 1,5,-1
 -33.3135 0 l 1,6,-1
 459.687 0 l 1,7,-1
 480.291 106 l 1,8,-1
 337.291 106 l 1,9,-1
 499.404 940 l 1,10,-1
 986.404 940 l 1,11,-1
 958.414 796 l 1,12,-1
 1063.41 796 l 1,13,-1
 1115.31 1063 l 1,0,-1
EndSplineSet
EndChar
